<?xml version="1.0" encoding="UTF-8"?>
<svg id="_Слой_2" data-name="Слой 2" xmlns="http://www.w3.org/2000/svg" viewBox="0 0 891.68 891.84">
  <defs>
    <style>
      .cls-1 {
        fill: #fff;
      }

      .cls-2 {
        fill: #00aeef;
      }

      .cls-3 {
        fill: #f6fcfe;
      }
    </style>
  </defs>
  <g id="_Слой_1-2" data-name="Слой 1">
    <g>
      <path class="cls-2" d="m451.82,891.84c-5,0-10.27-.1-15.67-.31-1.85-.07-3.69-.14-5.54-.2-13.09-.47-26.62-.95-39.99-3.03-3.49-.54-7.09-1.02-10.57-1.49-4.86-.65-9.89-1.31-14.79-2.18-12.54-2.21-25.73-5.35-42.79-10.17-21.3-6.02-40.42-12.99-58.45-21.31-32.02-14.77-56.69-29.12-77.66-45.16-.76-.58-1.62-1.12-2.53-1.68-.46-.28-.92-.57-1.37-.86-.27-.18-.51-.39-.71-.64-.14-.07-.27-.15-.39-.24-35.15-25.67-65.67-55.89-90.71-89.82-.18-.24-.32-.51-.42-.79-.66-.19-1.23-.61-1.62-1.18-1.48-2.15-2.97-4.3-4.45-6.45-8.03-11.61-16.34-23.61-23.57-36.12-.64-1.11-1.24-2.25-1.81-3.34-.26-.5-.52-1-.79-1.49-.27-.5-.38-1.06-.35-1.61-.03-.02-.06-.03-.08-.04-.48-.28-.87-.68-1.14-1.17-7.53-13.88-15.39-28.92-21.84-44.83-1.83-4.5-3.53-9.11-5.18-13.56-1.84-4.96-3.74-10.09-5.79-15.04-.22-.52-.28-1.08-.19-1.62-.04-.03-.07-.05-.11-.08-.52-.4-.9-.95-1.08-1.58-.63-2.25-1.26-4.51-1.88-6.77-1.68-6.08-3.42-12.36-5.31-18.46-.54-1.75-.78-3.39-1-4.97-.06-.4-.11-.8-.17-1.2-.04-.27-.05-.55-.01-.82-.03-.02-.38-.25-.38-.25-.54-.37-.95-.92-1.15-1.54-.44-1.33-.3-2.58-.19-3.57.03-.29.08-.71.07-.95,0,0,0,0,0,0-.94-.54-1.52-1.56-1.5-2.65,0-.54.16-1.06.43-1.5-.16-.4-.24-.83-.22-1.26-.38-.43-.64-.97-.72-1.57-.46-3.33-1.18-6.57-1.94-10-.94-4.25-1.92-8.65-2.34-13.21-.35-3.74-.97-7.58-1.57-11.29-.53-3.29-1.08-6.7-1.46-10.11l-.13-1.14c-1.37-12.31-2.79-25.04-2.65-37.77.04-3.97,0-8.02-.05-11.94-.08-6.93-.16-14.09.24-21.16.63-11.29,1.78-23.09,3.51-36.08,1.89-14.2,3.73-26.1,6.58-38,6.05-25.24,12.75-47.12,20.5-66.89,7.25-18.51,14.99-35.05,23.65-50.57,42.54-76.25,102.27-135.96,177.51-177.46,36.78-20.29,76.35-35.14,117.6-44.15,16.15-3.53,29.55-5.64,42.18-6.66.06,0,.13,0,.19,0,.49-.46,1.14-.76,1.85-.81,0,0,17.08-1.19,17.12-1.19.02,0,.13,0,.15,0,.58,0,1.1.08,1.52.15.07.01.14.02.21.03.56-.61,1.36-.97,2.21-.97.01,0,.17,0,.17,0,1.09.01,2.19.03,3.28.03,3.47,0,7.19-.12,10.84-.98.2-.05.41-.07.62-.08C430,.07,433.1,0,433.11,0l21.92.27c.78,0,1.52.32,2.07.87,0,0,0,0,0,0-.01,0,.04,0,.14,0,.25,0,.6-.05.97-.1.52-.07,1.11-.15,1.76-.15l16.11.25c.83.01,1.62.37,2.18.99.22,0,.55-.05.9-.09.51-.07,1.08-.15,1.71-.15.11,0,.23,0,.34,0l16.07,1.19c.73.05,1.41.37,1.91.88.26-.03.51-.06.76-.07.04,0,.21,0,.27,0l5.95.3c.67.03,1.29.29,1.78.7.05,0,.1,0,.15,0,.04,0,4.1.2,4.1.2.64.03,1.23.26,1.71.64.5-.14,1.03-.21,1.57-.21.99,0,1.85.24,2.54.43.34.09.76.21.94.21.74,0,1.47.27,2.03.74.16,0,.33,0,.49,0,2.59,0,4.92.63,7.18,1.23,1.97.53,3.82,1.03,5.62,1.03.19,0,.39,0,.59-.02.06,0,.13,0,.19,0,.7,0,1.36.24,1.89.67.05,0,.1,0,.15,0,.19,0,.39.02.58.06l11.84,2.32c.63.12,1.2.45,1.62.9l24.53,6.13c.55.14,1.04.43,1.42.82,3.52.57,6.76,1.77,9.89,2.94,2.3.86,4.48,1.67,6.72,2.22.61.15,1.15.49,1.54.94l9.65,3.12c.54.17,1.01.49,1.36.91,16.25,6.03,32.36,13.3,49.24,22.25.4.21.74.5,1,.85,17.5,8.68,34.97,19.7,54.98,34.68,7.08,5.3,14.04,10.97,20.76,16.46,3.07,2.5,6.14,5,9.22,7.48.04.03.07.06.11.09,0,0,2.43,2.14,2.46,2.17,14.43,13.71,33.12,32.1,49.67,52.88,14.83,18.61,28.11,38.11,39.46,57.96.53.92.93,1.84,1.32,2.73.12.29.25.57.38.85.36.27.67.62.88,1.04,0,0,6.17,12.09,6.17,12.09.35.28.64.64.84,1.06l6.17,12.97c.38.31.68.71.88,1.17l4.16,9.9c.39.33.69.76.88,1.25l2.14,5.79c.42.36.73.83.9,1.38l1.13,3.61c.41.36.72.83.89,1.37l1.13,3.69c.38.35.68.79.84,1.3l2.16,6.68c.38.34.67.78.84,1.28l1.05,3.15c5.39,16.2,10.96,32.96,14.35,50.14.04.2.06.41.06.61.35.4.59.9.69,1.45.51,2.94,1,5.88,1.5,8.82,1.11,6.57,2.25,13.36,3.54,19.98,1.61,8.3,2.47,16.77,3.31,24.95.19,1.85.38,3.7.57,5.54,1.03,9.67,1.63,20.05,1.77,30.87.1,7.55-.16,15.2-.42,22.6-.11,3.26-.23,6.53-.31,9.79-.02.74-.31,1.45-.83,1.99-.21.23-.25.48-.09,1.87.08.65.16,1.39.14,2.19,0,.04-1.23,18.08-1.23,18.08-.05.76-.39,1.46-.93,1.97,0,.51-.05,1.18-.33,1.89-.11.27-.25.52-.42.75,0,.08,0,.17,0,.25l-.09,6.01c-.21,5.33-1.28,10.36-2.29,14.58-.14.57-.43,1.08-.85,1.47.01.13.03.28.04.4.04.35.09.77.1,1.23.31,1.83-.14,3.44-.51,4.76-.38,1.37-.51,1.97-.26,2.47.54,1.03.43,2.27-.26,3.19-.2.27-.42.53-.64.78-.13.15-.3.35-.41.49.04.22.07.46.06.68-.07,2.25-.67,4.23-1.25,6.15-.57,1.88-1.11,3.66-.98,5.36.07.87-.25,1.7-.82,2.3l-4.23,17.68c-.13.54-.4,1.02-.78,1.41l-1.21,5.53c-.12.57-.41,1.08-.81,1.48-.99,4.69-2.57,9.18-4.1,13.52-.73,2.07-1.48,4.2-2.15,6.3-.15.46-.4.87-.73,1.2l-.17,1.26c-.1.71-.44,1.35-.95,1.81l-1.12,3.73c-.16.55-.48,1.03-.89,1.39l-3.16,8.76c-.17.48-.46.89-.82,1.22l-1.14,3.65c-.17.56-.5,1.04-.93,1.4l-2.14,5.72c-.18.48-.48.9-.86,1.23,0,0,0,0,0,.01-5.83,13-12.33,26.89-20.32,40.37-.21.35-.48.65-.8.89-7.62,14.4-17.07,28.77-30.64,46.58-43.93,57.64-99.25,102.64-164.44,133.74-29.71,14.18-61.71,25.13-95.11,32.55-1.25.28-2.47.42-3.65.56-.32.04-.63.07-.95.11-.42.42-.97.72-1.58.83-2.64.49-5.33,1.04-7.94,1.58-6.11,1.26-12.42,2.55-18.78,3.17-7.48.73-15.1,1.59-22.46,2.42l-.57.06c-10.69,1.21-21.76,1.8-33.87,1.8Zm170.13-208.26c.29.24.53.53.72.86,3.04,5.46,6.84,10.04,11.95,14.42,6.55,5.62,14.25,9.07,24.97,11.18.22.04.44.11.65.21,1.27.57,2.5.85,3.78.85s2.56-.28,3.9-.83c.22-.09.45-.16.69-.19,9.34-1.44,16.97-5.94,23.83-10.59,10.15-6.89,13.55-16.58,15.72-26.03.12-.54.39-1.02.76-1.41.1-1.38.21-2.77.33-4.15.28-3.4.57-6.92.62-10.34.27-17.3.37-31.41.3-44.42,0-1.8.19-4.07,1.81-5.69,1.6-1.6,3.83-1.79,5.37-1.79h.4c4.71.11,9.66.16,14.72.16,4.71,0,9.5-.04,14.65-.13h.31c1.55,0,3.16.19,4.72.38,1.45.17,2.82.34,4.03.34,1.38,0,2.28-.22,2.68-.66,1.35-1.51,1.11-5.25.9-8.55-.08-1.3-.17-2.63-.17-3.91-.05-17.69.05-35.66.15-53.05.2-35.15.42-71.49-.66-107.21-.32-10.46-1.75-18.46-4.66-25.95-7.77-20.02-20.98-32.97-40.38-39.6-6.43-2.2-10.9-6.17-13.28-11.8-2.78-6.57-5.4-13.32-7.93-19.84l-.67-1.72c-2.73-7.03-5.42-14.07-8.12-21.11-1.58-4.12-3.16-8.24-4.74-12.36-1.48-3.85-2.96-7.71-4.44-11.57-3.8-9.93-7.74-20.2-11.7-30.26-1.2-3.05-2.38-6.12-3.56-9.19-3.51-9.14-7.15-18.6-11.43-27.49-12.72-26.42-35.21-39.96-66.86-40.25-36.19-.33-71.66-.5-105.45-.5-6.99,0-13.97,0-20.96.02h-3.69c-6.24,0-12.48-.03-18.72-.06-6.23-.03-12.46-.06-18.69-.06-15.01,0-26.48.18-37.19.58-4.8.18-9.97.27-15.8.27-6.44,0-12.97-.11-19.29-.21-5.73-.09-11.66-.19-17.48-.21h-3.03c-12.08,0-23.87.29-35.43,3.87-18.25,5.65-31.92,17.72-41.79,36.92-.21.4-.5.74-.84,1.01l-3.09,7.6c-.17.43-.44.8-.77,1.1l-1.13,3.68c-.17.54-.48,1.01-.88,1.37l-4.16,11.73c-.17.49-.47.91-.84,1.25l-4.16,11.75c-.17.49-.47.91-.84,1.25l-4.16,11.75c-.17.49-.46.91-.84,1.24l-2.16,6.63c-.16.5-.45.94-.83,1.28l-1.13,3.72c-.16.54-.48,1.01-.88,1.38l-2.15,6.62c-.16.5-.45.95-.83,1.29l-1.13,3.71c-.16.54-.47,1.01-.88,1.37l-2.15,6.65c-.17.52-.47.97-.86,1.32l-2.16,6.63c-.16.5-.45.93-.82,1.28l-1.14,3.73c-.16.53-.47,1-.87,1.36l-2.16,6.66c-.16.5-.45.95-.83,1.29l-1.13,3.72c-.16.54-.47,1-.87,1.36l-2.15,6.66c-.17.52-.47.97-.86,1.32l-2.16,6.65c-.16.49-.44.93-.81,1.27-1.85,6.99-6.46,11.99-13.36,14.47-19,6.83-32.71,19.58-40.74,37.91-.7,1.59-1.47,3.16-2.23,4.68-2.29,4.64-4.46,9.03-4.47,13.75-.08,31.59-.09,63.71-.1,94.77,0,28.51-.02,58-.08,87,0,1.34.14,1.87.21,2.04.16.06.62.17,1.69.17h.34c5.11-.1,10.12-.12,13.91-.12,2.18,0,4.37,0,6.55,0,2.18,0,4.36,0,6.54,0,5.01,0,8.85-.03,12.45-.09h.39c5.3,0,7.81,2.5,7.88,7.86.14,10.47.5,21.13.84,31.43.13,3.97.26,7.95.38,11.92.02.52-.1,1.03-.34,1.47.25.45.38.96.37,1.49l-.08,3.99c.05,1.02-.05,1.99-.14,2.86-.19,1.84-.21,2.66.34,3.38.37.48.58,1.07.61,1.68l.19,3.86c.54.49.9,1.18.97,1.95l.13,1.41c.32.36.55.79.66,1.27l.22.98c.03.14.05.28.06.42.55.52.9,1.24.95,2.04,0,0,0,0,0,0,.5.47.83,1.11.92,1.82.21,1.72.82,2.29,1.45,2.65.37.21.68.49.93.83,2.36,3.2,5.29,6.82,9.2,9.4.73.48,1.21,1.25,1.32,2.12.02.17.05.27.07.31,0,0,0,0,0,0,.03,0,.14.04.34.06.46.06.9.23,1.29.48.4.27.75.64.98,1.06.08.15.14.23.18.28.03,0,.05,0,.08,0,.43,0,.89.09,1.28.26.98.11,1.85.7,2.32,1.58.09.16.15.26.19.3.06,0,.12,0,.17,0,.94,0,1.92.43,2.49,1.18.11.14.79.23,1.33.31.4.05.8.11,1.18.19.5.1.96.32,1.35.65.99.83,2.41,1.16,4.06,1.53l.18.04c1.16.13,2.31.33,3.41.52,1.77.3,3.44.59,4.99.59.51,0,.98-.03,1.42-.09,13.14-1.9,22.38-5.54,29.97-11.8,10.28-8.48,15.28-19.92,15.72-36,.32-11.61.39-23.43.47-34.87.03-4.18.05-8.36.09-12.53v-.12c.07-7.88,1.41-9.17,9.56-9.17h324.31c.29,0,.59,0,.88.02.23,0,.46.02.69.02.19,0,.38,0,.57-.03.44-.05.86-.08,1.25-.08,1.78,0,3.21.55,4.25,1.62,1.16,1.19,1.68,2.89,1.61,5.18-.16,4.86-.32,11.28-.1,17.79.16,4.88.06,9.82-.03,14.6-.26,13.32-.51,25.91,4.27,38.16Z"/>
      <path class="cls-2" d="m862.21,595.94c-.09.63-.17,1.27-.26,1.9-.59.13-.92.45-.77,1.1-.4,1.33-.8,2.66-1.2,3.99-.58.09-.94.35-.76,1.01-1.08,3-2.16,5.99-3.24,8.99-.59.08-.94.34-.76,1.01-.41,1.33-.83,2.66-1.24,3.98-.6.08-.92.37-.79,1.02-.74,1.98-1.48,3.96-2.23,5.94-.6.1-.93.41-.79,1.06-6.12,13.66-12.52,27.18-20.16,40.07-.61,0-.94.27-.82.92-8.66,16.39-19.22,31.55-30.42,46.25-43.75,57.41-98.19,101.76-163.35,132.85-30.23,14.42-61.78,25.07-94.47,32.33-1.61.36-3.28.47-4.92.7-.65-.14-.98.21-1.16.78-8.82,1.63-17.57,3.85-26.46,4.72-7.69.75-15.41,1.63-23.07,2.49-16.36,1.85-32.74,2.09-49.09,1.47-15.06-.57-30.14-.86-45.18-3.2-8.37-1.3-16.96-2.18-25.3-3.65-14.32-2.52-28.46-6.13-42.49-10.1-19.87-5.62-39.31-12.52-58.01-21.15-27.07-12.49-53.29-26.61-77.09-44.81-1.29-.99-2.72-1.79-4.08-2.67-.05-.59-.29-.96-.96-.79-34.5-25.2-64.67-54.78-90.07-89.18.1-1.42-.92-1.67-1.98-1.89-9.59-13.93-19.42-27.7-27.9-42.36-.9-1.55-1.7-3.16-2.55-4.75.55-1.54-.48-2.21-1.57-2.84-7.88-14.53-15.47-29.16-21.7-44.53-3.85-9.48-7.07-19.18-10.99-28.62,1.19-1.68-.28-2.21-1.27-2.95-2.37-8.45-4.61-16.94-7.22-25.31-.6-1.93-.78-3.81-1.07-5.73.69-1.69-.57-2.35-1.65-3.09-.66-2.02,1.21-4.65-1.48-6.19,1.47-.78.84-1.73.21-2.69.02-.35.05-.7.07-1.05.13-.66-.25-.92-.81-1.05-1.07-7.75-3.53-15.2-4.27-23.08-.67-7.15-2.23-14.25-3.03-21.45-1.43-12.82-2.9-25.61-2.76-38.55.12-10.99-.42-22,.19-32.96.67-11.98,1.9-23.93,3.49-35.85,1.69-12.67,3.55-25.29,6.53-37.69,5.41-22.58,11.88-44.82,20.38-66.5,6.77-17.27,14.48-34.09,23.47-50.2,42.06-75.39,100.61-134.53,176.34-176.29,36.77-20.28,75.75-34.88,116.79-43.85,13.79-3.01,27.69-5.46,41.78-6.6.84.16,1.68.3,2.01-.82,5.66-.39,11.33-.79,16.99-1.18,1.38-.03,2.96.88,4.02-.79,5.02.06,10.05.13,14.98-1.04,1-.02,2-.05,3-.07,7.31.09,14.61.18,21.92.27,1.53,1.52,3.37.59,5.08.63,5.32.08,10.64.17,15.96.25,1.46,1.7,3.33.67,5.04.75,5.33.39,10.66.79,15.99,1.18.68,1.47,1.92.86,3.01.82,1.98.1,3.96.2,5.95.3.41,1.04,1.24.86,2.05.7,1.33.07,2.66.13,3.98.2.33,1.12,1.18.95,2.01.81,1.71-1,3.3.3,4.96.26.39,1.05,1.21.89,2.04.74,4.8-.15,9.14,2.54,13.97,2.23.39,1.1,1.19.96,2.03.66,3.95.77,7.89,1.55,11.84,2.32.15.59.48.92,1.13.79,8.29,2.07,16.58,4.14,24.87,6.21.15.59.48.91,1.13.79,5.92.82,11.18,3.78,16.91,5.19.12.59.43.93,1.08.8,3.3,1.07,6.61,2.13,9.91,3.2.13.59.44.93,1.09.81,16.86,6.24,33.15,13.73,49.03,22.14.04.61.32.93.96.84,19.39,9.6,37.35,21.51,54.62,34.45,10.21,7.64,19.95,15.89,29.91,23.87.79.7,1.58,1.4,2.37,2.09,17.46,16.59,34.35,33.7,49.39,52.57,14.51,18.22,27.64,37.36,39.2,57.58.65,1.14,1.13,2.39,1.68,3.59-.1.64.21.91.83.91,2.06,4.03,4.11,8.06,6.17,12.09-.14.66.2.93.81.99l6.19,13.01c-.13.66.22.93.81,1.01l4.2,9.99c-.14.65.2.94.79,1.04.74,1.99,1.47,3.98,2.21,5.96-.15.66.2.94.79,1.05.41,1.32.82,2.63,1.23,3.95-.15.65.19.93.78,1.02.41,1.33.81,2.65,1.22,3.98-.17.66.17.95.77,1.05.75,2.32,1.5,4.63,2.25,6.95-.17.65.17.93.76,1.03,5.79,17.44,11.74,34.84,15.3,52.93-.32.87-.42,1.67.73,2,1.67,9.62,3.19,19.28,5.05,28.86,1.94,10,2.77,20.14,3.84,30.24,1.08,10.15,1.62,20.38,1.76,30.59.15,10.75-.45,21.52-.73,32.27-1.73,1.82-.71,3.99-.78,6.03-.41,5.99-.82,11.98-1.23,17.97-1.43.61-.68,1.99-1.06,2.98-1.02.43-.92,1.2-.62,2.04-.03,2-.06,4.01-.09,6.01-.19,4.73-1.11,9.34-2.21,13.92-1.53,1.11-.73,2.68-.79,4.08.64,2.82-1.92,5.47-.43,8.33-.82,1.1-2.07,2.01-1.59,3.67-.12,4.06-2.54,7.69-2.22,11.83-.56.18-.93.47-.69,1.13-1.43,5.97-2.86,11.94-4.29,17.91-.57.14-.93.42-.71,1.08-.43,1.97-.86,3.94-1.29,5.9-.58.14-.92.44-.73,1.1-1.4,6.86-4.15,13.3-6.26,19.94-.58.12-.94.4-.75,1.06Zm-661.05,108.97c.64,1.17,1.55,1.9,2.96,1.84.28.14.57.22.88.24.66,1.26,1.64,2.01,3.13,1.9,1.1,1.44,2.78,1.31,4.31,1.61,1.64,1.39,3.67,1.78,5.68,2.24,3.59.38,7.29,1.52,10.75,1.01,11.4-1.65,22.16-4.8,31.45-12.46,12.21-10.07,16.4-23.31,16.81-38.23.44-15.81.41-31.64.56-47.46.06-6.32.01-6.32,6.56-6.32,108.1,0,216.21,0,324.31,0,.83,0,1.68.08,2.5-.02,2.79-.34,3.85.77,3.76,3.65-.2,5.99-.3,12-.1,17.98.6,18.09-2.4,36.5,4.57,54.06-.15.65.17.91.78.93,3.27,5.86,7.34,10.71,12.62,15.24,7.87,6.75,16.65,9.94,26.34,11.85,3.34,1.51,6.7,1.44,10.06.06,9.36-1.44,17.18-5.73,25.06-11.08,10.29-6.98,14.4-16.69,16.96-27.84.57-.18.91-.5.78-1.16.35-5.12.92-10.24,1-15.36.23-14.82.38-29.65.3-44.48-.02-3.52,1.05-4.54,4.52-4.46,9.83.21,19.66.19,29.49.02,4.77-.08,11.11,2.17,13.91-.95,2.89-3.22,1.51-9.52,1.49-14.48-.16-53.45,1.1-106.9-.51-160.34-.28-9.27-1.45-18.17-4.86-26.95-7.87-20.28-21.57-34.31-42.2-41.36-5.31-1.82-9.32-5.01-11.49-10.13-3.01-7.09-5.77-14.29-8.56-21.47-4.32-11.14-8.57-22.31-12.86-33.46-5.37-13.96-10.67-27.94-16.15-41.85-4.87-12.36-9.33-24.94-15.08-36.88-13.93-28.95-38.24-41.66-69.54-41.95-42.15-.39-84.3-.56-126.45-.48-26.13.05-52.25-.51-78.39.47-17.46.66-34.97-.1-52.45-.15-13.25-.04-26.49.02-39.35,4-20.3,6.28-34.06,19.92-43.57,38.41-.59,0-.92.24-.8.89-1.08,2.65-2.16,5.31-3.24,7.96-.59.1-.94.37-.76,1.03-.41,1.33-.82,2.67-1.23,4-.59.08-.93.34-.75,1-1.42,3.99-2.83,7.99-4.25,11.98-.59.09-.93.37-.76,1.02-1.41,3.99-2.83,7.98-4.24,11.98-.59.09-.92.37-.76,1.02-1.41,3.99-2.83,7.98-4.24,11.97-.59.09-.92.38-.77,1.03-.75,2.3-1.5,4.61-2.25,6.91-.59.13-.92.44-.77,1.09-.4,1.32-.8,2.65-1.21,3.97-.58.09-.92.38-.77,1.02-.75,2.31-1.5,4.61-2.25,6.92-.59.13-.92.43-.77,1.08-.4,1.33-.81,2.65-1.21,3.98-.58.09-.92.37-.76,1.02-.75,2.31-1.5,4.63-2.25,6.94-.59.11-.92.41-.78,1.06-.75,2.3-1.5,4.59-2.24,6.89-.58.14-.92.46-.77,1.11-.4,1.32-.8,2.64-1.21,3.95-.59.1-.92.4-.76,1.04-.75,2.31-1.5,4.62-2.25,6.92-.59.12-.92.43-.77,1.08-.4,1.33-.81,2.66-1.21,3.99-.58.09-.92.36-.76,1.01-.75,2.32-1.5,4.64-2.25,6.97-.59.1-.92.39-.77,1.03-.75,2.31-1.5,4.62-2.25,6.93-.59.12-.92.42-.76,1.07-1.56,6.33-5.61,10.63-11.57,12.77-19.84,7.13-34.05,20.31-42.48,39.53-2.78,6.34-6.93,12.5-6.95,19.63-.16,60.59-.05,121.18-.19,181.77,0,4.22,1.19,5.3,5.3,5.22,13.15-.26,26.3.04,39.45-.18,3.81-.06,5.17.89,5.22,4.9.2,14.47.78,28.94,1.22,43.4-1.52.96-1.54,1.9.03,2.82-.03,1.36-.05,2.73-.08,4.09.16,2.68-1.09,5.51.82,8.01.06,1.33.13,2.66.19,3.99-.14.88-.27,1.75.97,1.94.06.7.13,1.4.19,2.1-.35.71.14.84.65.97.07.33.15.66.22.99-.22.9-.22,1.7.94,1.94.04.8-.24,1.75.94,2.03.25,2.07,1.05,3.82,2.95,4.9,2.84,3.85,5.92,7.46,9.96,10.13.23,1.77,1.26,2.73,3.01,2.96l.03.02Z"/>
      <path class="cls-3" d="m884.16,505.99c.03-2,.06-4.01.09-6.01,2.8,2.05,2.82,4.05-.09,6.01Z"/>
      <path class="cls-3" d="m887.16,476.99c.06-2.03-.95-4.21.78-6.03,1.25,2.2,2.41,4.4-.78,6.03Z"/>
      <path class="cls-3" d="m460.07,3.9c-1.72-.04-3.55.88-5.08-.63,1.91-1.52,3.72-2.29,5.08.63Z"/>
      <path class="cls-3" d="m481.07,4.9c-1.7-.08-3.57.95-5.04-.75,1.94-1.51,3.75-2.15,5.04.75Z"/>
      <path class="cls-3" d="m415.09,4.11c-1.06,1.68-2.63.76-4.02.79.87-2.62,2.35-2.21,4.02-.79Z"/>
      <path class="cls-3" d="m881.16,523.98c.06-1.4-.74-2.96.79-4.08.48,1.5,2.39,3.28-.79,4.08Z"/>
      <path class="cls-3" d="m500.06,6.9c-1.09.04-2.33.65-3.01-.82,1.5-1.55,2.51-1.32,3.01.82Z"/>
      <path class="cls-3" d="m433.07,3c-1,.02-2,.05-3,.07.14-1.01.38-1.96,1.7-1.82,1.03.1,1.16.95,1.3,1.75Z"/>
      <path class="cls-3" d="m884.87,497.94c.38-.98-.37-2.37,1.06-2.98,1.76,1.74,1.16,2.65-1.06,2.98Z"/>
      <path class="cls-3" d="m59.08,661.13c1.09.63,2.12,1.3,1.57,2.84-1.68-.31-1.52-1.63-1.57-2.84Z"/>
      <path class="cls-3" d="m25.12,585.03c.98.74,2.46,1.27,1.27,2.95-1.51-.52-1.22-1.81-1.27-2.95Z"/>
      <path class="cls-3" d="m15.18,550.89c1.08.75,2.34,1.4,1.65,3.09-1.93-.29-1.67-1.76-1.65-3.09Z"/>
      <path class="cls-3" d="m879.15,535.98c-.48-1.66.76-2.57,1.59-3.67.2,1.54.73,3.22-1.59,3.67Z"/>
      <path class="cls-3" d="m741.92,116.31c-.79-.7-1.58-1.4-2.37-2.09,1.57-.19,2.45.42,2.37,2.09Z"/>
      <path class="cls-3" d="m91.09,711.08c1.06.21,2.08.46,1.98,1.89-1.22-.04-1.9-.65-1.98-1.89Z"/>
      <path class="cls-3" d="m394.08,6.08c-.33,1.11-1.17.97-2.01.82.25-1.3.61-2.35,2.01-.82Z"/>
      <path class="cls-3" d="m508.06,7.9c-.82.15-1.64.33-2.05-.7,1.32-1.64,1.77-.7,2.05.7Z"/>
      <path class="cls-3" d="m514.06,8.9c-.84.15-1.68.31-2.01-.81,1.4-1.55,1.76-.5,2.01.81Z"/>
      <path class="cls-3" d="m521.06,9.9c-.82.15-1.65.3-2.04-.74,1.36-1.61,1.77-.62,2.04.74Z"/>
      <path class="cls-3" d="m537.06,12.8c-.85.3-1.64.44-2.03-.66,1.26-1.55,1.73-.7,2.03.66Z"/>
      <path class="cls-3" d="m878.01,349c-1.15-.33-1.05-1.13-.73-2,1.29.28,2.21.7.73,2Z"/>
      <path class="cls-3" d="m13.91,542.01c.63.95,1.26,1.9-.21,2.69-.56-.94-.61-1.85.21-2.69Z"/>
      <path class="cls-3" d="m534.88,879.85c.18-.57.5-.91,1.16-.78-.39.26-.77.52-1.16.78Z"/>
      <path class="cls-3" d="m594.03,28.9c-.65.13-.96-.21-1.08-.8.36.27.72.53,1.08.8Z"/>
      <path class="cls-3" d="m576.03,22.91c-.65.12-.98-.2-1.13-.79.38.26.75.53,1.13.79Z"/>
      <path class="cls-3" d="m655.02,55.9c-.64.09-.93-.23-.96-.84.32.28.64.56.96.84Z"/>
      <path class="cls-3" d="m550.04,15.91c-.65.13-.98-.2-1.13-.79.38.26.76.52,1.13.79Z"/>
      <path class="cls-3" d="m13.17,539.91c.56.13.95.39.81,1.05-.27-.35-.54-.7-.81-1.05Z"/>
      <path class="cls-3" d="m876.24,548.95c-.25-.67.12-.96.69-1.13-.23.38-.46.76-.69,1.13Z"/>
      <path class="cls-3" d="m861.98,294.07c-.59-.1-.92-.38-.76-1.03.25.34.5.69.76,1.03Z"/>
      <path class="cls-3" d="m871.24,567.94c-.22-.66.13-.94.71-1.08-.24.36-.47.72-.71,1.08Z"/>
      <path class="cls-3" d="m869.22,574.95c-.19-.65.15-.95.73-1.1-.24.37-.48.73-.73,1.1Z"/>
      <path class="cls-3" d="m862.21,595.94c-.18-.66.17-.94.75-1.06-.25.35-.5.71-.75,1.06Z"/>
      <path class="cls-3" d="m861.18,598.95c-.15-.65.19-.96.77-1.1-.26.37-.52.73-.77,1.1Z"/>
      <path class="cls-3" d="m859.22,603.94c-.18-.66.18-.92.76-1.01-.25.34-.51.67-.76,1.01Z"/>
      <path class="cls-3" d="m858.97,286.09c-.59-.1-.93-.39-.77-1.05.26.35.51.7.77,1.05Z"/>
      <path class="cls-3" d="m855.22,613.94c-.18-.66.17-.93.76-1.01-.25.34-.51.67-.76,1.01Z"/>
      <path class="cls-3" d="m853.19,618.94c-.14-.65.19-.94.79-1.02-.26.34-.53.68-.79,1.02Z"/>
      <path class="cls-3" d="m850.18,625.94c-.14-.65.19-.96.79-1.06-.26.35-.53.71-.79,1.06Z"/>
      <path class="cls-3" d="m856.98,281.06c-.59-.09-.93-.37-.78-1.02.26.34.52.68.78,1.02Z"/>
      <path class="cls-3" d="m854.97,276.09c-.58-.11-.94-.39-.79-1.05.26.35.52.7.79,1.05Z"/>
      <path class="cls-3" d="m829.19,666.94c-.11-.65.21-.92.82-.92-.27.31-.55.61-.82.92Z"/>
      <path class="cls-3" d="m851.98,269.08c-.59-.1-.93-.39-.79-1.04.26.35.53.69.79,1.04Z"/>
      <path class="cls-3" d="m846.99,258.05c-.59-.08-.94-.35-.81-1.01.27.34.54.67.81,1.01Z"/>
      <path class="cls-3" d="m839.99,244.04c-.61-.06-.95-.33-.81-.99.27.33.54.66.81.99Z"/>
      <path class="cls-3" d="m833.02,230.96c-.61,0-.93-.27-.83-.91.28.3.55.61.83.91Z"/>
      <path class="cls-3" d="m183.14,802.14c.68-.17.91.2.96.79-.32-.26-.64-.53-.96-.79Z"/>
      <path class="cls-3" d="m605.03,32.92c-.65.12-.96-.22-1.09-.81.36.27.73.54,1.09.81Z"/>
      <path class="cls-1" d="m237.09,229.98l3.24-7.96c.27-.3.54-.59.8-.89,9.51-18.49,23.27-32.14,43.57-38.41,12.86-3.98,26.1-4.04,39.35-4,17.49.05,35,.81,52.45.15,26.14-.98,52.26-.42,78.39-.47,42.15-.09,84.3.09,126.45.48,31.3.29,55.6,13,69.54,41.95,5.75,11.95,10.2,24.52,15.08,36.88,5.48,13.91,10.78,27.89,16.15,41.85,4.29,11.15,8.54,22.32,12.86,33.46,2.79,7.18,5.55,14.38,8.56,21.47,2.17,5.13,6.18,8.32,11.49,10.13,20.63,7.05,34.33,21.07,42.2,41.36,3.41,8.78,4.58,17.68,4.86,26.95,1.61,53.44.35,106.9.51,160.34.01,4.96,1.4,11.26-1.49,14.48-2.8,3.12-9.14.87-13.91.95-9.83.16-19.66.19-29.49-.02-3.47-.07-4.53.94-4.52,4.46.08,14.83-.07,29.65-.3,44.48-.08,5.12-.66,10.24-1,15.36-.26.39-.52.77-.78,1.16-2.56,11.15-6.67,20.86-16.96,27.84-7.88,5.35-15.7,9.64-25.06,11.08-3.34-1.75-6.7-1.67-10.06-.06-9.69-1.91-18.47-5.1-26.34-11.85-5.28-4.53-9.35-9.38-12.62-15.24-.26-.31-.52-.62-.78-.93-6.97-17.56-3.97-35.97-4.57-54.06-.2-5.99-.1-11.99.1-17.98.09-2.88-.96-3.98-3.76-3.65-.82.1-1.66.02-2.5.02-108.1,0-216.21,0-324.31,0-6.55,0-6.5,0-6.56,6.32-.14,15.82-.12,31.65-.56,47.46-.41,14.92-4.6,28.16-16.81,38.23-9.29,7.66-20.05,10.81-31.45,12.46-3.46.5-7.16-.63-10.75-1.01-1.17-2.58-3.32-2.69-5.68-2.24-1.52-.3-3.21-.18-4.31-1.61-.17-2.08-1.67-1.96-3.13-1.9-.31-.02-.6-.1-.88-.24-.17-1.92-1.59-1.84-2.96-1.84l-.03-.02c-.13-1.88-1.11-2.88-3.01-2.96-4.04-2.67-7.13-6.27-9.96-10.13-.18-2.12-.29-4.27-2.95-4.9-1.18-.28-.89-1.23-.94-2.03,1.34-1.45.23-1.71-.94-1.94-.07-.33-.15-.66-.22-.99-.22-.32-.44-.64-.65-.97-.06-.7-.13-1.4-.19-2.1,1.35-1.49.2-1.72-.97-1.94-.06-1.33-.13-2.66-.19-3.99,1.2-2.82,2.55-5.66-.82-8.01.03-1.36.05-2.73.08-4.09,1.04-.95,1.02-1.89-.03-2.82-.44-14.47-1.02-28.93-1.22-43.4-.06-4.02-1.42-4.97-5.22-4.9-13.15.22-26.3-.08-39.45.18-4.1.08-5.31-1-5.3-5.22.14-60.59.03-121.18.19-181.77.02-7.13,4.17-13.29,6.95-19.63,8.42-19.21,22.63-32.39,42.48-39.53,5.96-2.14,10-6.44,11.57-12.77.25-.36.51-.72.76-1.07.75-2.31,1.5-4.62,2.25-6.93l.77-1.03c.75-2.32,1.5-4.64,2.25-6.97.25-.34.5-.67.76-1.01.4-1.33.81-2.66,1.21-3.99.26-.36.51-.72.77-1.08.75-2.31,1.5-4.62,2.25-6.92.25-.35.51-.69.76-1.04.4-1.32.8-2.64,1.21-3.95.26-.37.51-.74.77-1.11.75-2.3,1.5-4.59,2.24-6.89.26-.35.52-.7.78-1.06.75-2.31,1.5-4.63,2.25-6.94.25-.34.51-.68.76-1.02.4-1.33.81-2.65,1.21-3.98.26-.36.51-.72.77-1.08.75-2.31,1.5-4.61,2.25-6.92.26-.34.51-.68.77-1.02.4-1.32.8-2.65,1.21-3.97.26-.36.51-.73.77-1.09.75-2.3,1.5-4.61,2.25-6.91l.77-1.03c1.41-3.99,2.83-7.98,4.24-11.97l.76-1.02c1.41-3.99,2.83-7.98,4.24-11.98.25-.34.51-.68.76-1.02,1.42-3.99,2.83-7.99,4.25-11.98.25-.33.5-.67.75-1,.41-1.33.82-2.67,1.23-4,.25-.34.51-.69.76-1.03Zm33.2,237.02c2-.41,2.29-1.42,1.04-2.97-.02-.34-.05-.69-.07-1.03,2.94-3,2.94-6.01,0-9.01-.41-2.61-.81-5.22-1.22-7.83-.25-.38-.5-.76-.75-1.14-4.92-15.79-19.69-27.7-36.18-29.18-1.67-2.93-3.34-2.93-5.01,0-2.98.12-5.99.16-8.84,1.16-26.5,9.33-42.82,41.68-20.78,68.63,14.42,17.63,36.55,20.12,53.97,8.38,2.62.06,4.11-1.29,4.73-3.74,7.07-6.24,11.93-13.71,13.11-23.26Zm429.94,7.97c.26-.34.52-.68.78-1.02.39-1.65.78-3.3,1.18-4.96,2.34-.47,1.79-2.16,1.57-3.71,0-4.53,0-9.07,0-13.6.21-1.52.8-3.18-1.48-3.7-.42-1.66-.84-3.32-1.25-4.98-.26-.33-.52-.66-.78-.99-4.95-14.65-19.88-25.44-36.21-26.18-1.34-2.64-2.68-2.64-4.01,0-21.26.12-39.69,22.69-39.73,41.65-.03,15.1,6.9,27.48,19.42,36.4,8.72,6.22,18.14,9.65,28.94,7.08,14.73-3.5,25.86-11.48,31.57-25.99Zm-254.19-115.31c58.63,0,117.26,0,175.9,0,7.5,0,14.99-.09,22.49.04,3.13.06,4.33-.54,2.89-3.92-2.18-5.11-3.99-10.39-5.97-15.59-7.1-18.62-14.18-37.24-21.31-55.84-4.95-12.94-9.77-25.94-15-38.77-4.59-11.26-14.83-13.3-25.18-13.26-90.07.33-180.15-1.05-270.22.56-11.54.21-18.66,5.34-23.36,15.13-3.42,7.11-5.77,14.64-8.54,22-5.08,13.54-10.42,26.98-15.43,40.54-5.33,14.42-10.33,28.97-15.65,43.4-2.13,5.77-2.34,5.7,4,5.7,65.13,0,130.26,0,195.39,0Z"/>
      <path class="cls-3" d="m659.01,712.99c3.36-1.61,6.72-1.69,10.06.06-3.36,1.39-6.71,1.45-10.06-.06Z"/>
      <path class="cls-3" d="m180.28,664.95c3.37,2.35,2.02,5.19.82,8.01-1.91-2.5-.66-5.33-.82-8.01Z"/>
      <path class="cls-3" d="m212.44,710.51c2.36-.45,4.51-.34,5.68,2.24-2.01-.46-4.04-.85-5.68-2.24Z"/>
      <path class="cls-3" d="m185.21,686.92c2.66.62,2.77,2.78,2.95,4.9-1.9-1.08-2.7-2.82-2.95-4.9Z"/>
      <path class="cls-3" d="m198.13,701.94c1.9.08,2.88,1.08,3.01,2.96-1.75-.23-2.78-1.19-3.01-2.96Z"/>
      <path class="cls-3" d="m180.33,658.03c1.05.93,1.07,1.87.03,2.82-1.57-.92-1.55-1.86-.03-2.82Z"/>
      <path class="cls-3" d="m205,706.99c1.47-.06,2.96-.18,3.13,1.9-1.5.11-2.47-.64-3.13-1.9Z"/>
      <path class="cls-3" d="m201.16,704.92c1.37,0,2.78-.09,2.96,1.84-1.41.07-2.32-.67-2.96-1.84Z"/>
      <path class="cls-3" d="m183.34,682.94c1.17.23,2.28.5.94,1.94-1.16-.24-1.15-1.04-.94-1.94Z"/>
      <path class="cls-3" d="m181.3,676.94c1.17.22,2.33.46.97,1.94-1.24-.19-1.11-1.06-.97-1.94Z"/>
      <path class="cls-3" d="m241.13,221.12c-.27.3-.54.59-.8.89-.12-.65.21-.89.8-.89Z"/>
      <path class="cls-3" d="m191.08,349.91c-.25.36-.51.72-.76,1.07-.15-.65.18-.95.76-1.07Z"/>
      <path class="cls-3" d="m194.1,341.95l-.77,1.03c-.15-.65.18-.93.77-1.03Z"/>
      <path class="cls-3" d="m197.1,333.98c-.25.34-.5.67-.76,1.01-.17-.65.17-.92.76-1.01Z"/>
      <path class="cls-3" d="m199.08,328.92c-.26.36-.51.72-.77,1.08-.15-.65.18-.95.77-1.08Z"/>
      <path class="cls-3" d="m202.09,320.95c-.25.35-.51.69-.76,1.04-.15-.65.18-.94.76-1.04Z"/>
      <path class="cls-3" d="m204.07,315.89c-.26.37-.51.74-.77,1.11-.15-.65.18-.97.77-1.11Z"/>
      <path class="cls-3" d="m207.09,307.94c-.26.35-.52.7-.78,1.06-.14-.65.19-.94.78-1.06Z"/>
      <path class="cls-3" d="m210.1,299.97c-.25.34-.51.68-.76,1.02-.16-.65.18-.93.76-1.02Z"/>
      <path class="cls-3" d="m212.08,294.92c-.26.36-.51.72-.77,1.08-.15-.65.18-.95.77-1.08Z"/>
      <path class="cls-3" d="m215.1,286.97c-.26.34-.51.68-.77,1.02-.15-.65.19-.93.77-1.02Z"/>
      <path class="cls-3" d="m217.07,281.91c-.26.36-.51.73-.77,1.09-.15-.65.18-.96.77-1.09Z"/>
      <path class="cls-3" d="m711.08,674.12c.26-.39.52-.77.78-1.16.14.65-.21.98-.78,1.16Z"/>
      <path class="cls-3" d="m220.09,273.97c-.26.34-.51.69-.77,1.03-.15-.65.18-.94.77-1.03Z"/>
      <path class="cls-3" d="m182.46,680.99c.22.32.44.64.65.97-.51-.12-1-.26-.65-.97Z"/>
      <path class="cls-3" d="m619.27,684.97c.26.31.52.62.78.93-.6-.02-.93-.27-.78-.93Z"/>
      <path class="cls-3" d="m225.09,260.98l-.76,1.02c-.16-.65.17-.93.76-1.02Z"/>
      <path class="cls-3" d="m230.09,247.99c-.25.34-.51.68-.76,1.02-.17-.65.17-.93.76-1.02Z"/>
      <path class="cls-3" d="m235.1,235.01c-.25.33-.5.67-.75,1-.18-.66.16-.92.75-1Z"/>
      <path class="cls-3" d="m237.09,229.98c-.25.34-.51.69-.76,1.03-.17-.66.17-.93.76-1.03Z"/>
      <path class="cls-2" d="m644.37,362.7c-2.77-.05-5.78-.07-9.47-.07-2.16,0-4.31,0-6.47.02-2.16,0-4.33.02-6.49.02H250.24c-3.65,0-5.86,0-7.22-1.96-1.35-1.93-.58-4.02.59-7.17l.22-.6c2.6-7.05,5.17-14.26,7.65-21.23,2.59-7.27,5.27-14.79,8-22.17,2.82-7.61,5.78-15.31,8.64-22.75,2.24-5.83,4.56-11.86,6.8-17.8.77-2.05,1.51-4.11,2.24-6.17,1.9-5.32,3.87-10.82,6.4-16.08,5.41-11.27,13.68-16.61,26.01-16.84,30.42-.54,63.56-.8,104.31-.8,22.5,0,45.38.07,67.5.15,22.12.07,44.98.15,67.48.15,10.33,0,20.65-.02,30.98-.05h.29c9.23,0,22.15,1.57,27.68,15.13,3.93,9.64,7.68,19.52,11.31,29.08,1.23,3.25,2.47,6.5,3.71,9.75,5.69,14.85,11.35,29.72,17.01,44.58l4.29,11.27c.64,1.67,1.25,3.35,1.87,5.02,1.28,3.46,2.6,7.04,4.05,10.45.44,1.02,1.59,3.72.13,5.94-1.43,2.17-4.21,2.17-5.4,2.17h-.42Z"/>
      <path class="cls-2" d="m446.04,359.66c-65.13,0-130.26,0-195.39,0-6.34,0-6.13.07-4-5.7,5.32-14.43,10.32-28.97,15.65-43.4,5.01-13.56,10.35-27,15.43-40.54,2.77-7.37,5.12-14.89,8.54-22,4.71-9.8,11.82-14.93,23.36-15.13,90.07-1.61,180.15-.22,270.22-.56,10.35-.04,20.59,2,25.18,13.26,5.23,12.83,10.05,25.83,15,38.77,7.12,18.61,14.21,37.23,21.31,55.84,1.98,5.2,3.79,10.47,5.97,15.59,1.44,3.38.24,3.98-2.89,3.92-7.49-.13-14.99-.04-22.49-.04-58.63,0-117.26,0-175.9,0Z"/>
      <path class="cls-2" d="m661.47,504.82c-7.79,0-15.48-2.78-23.5-8.49-13.56-9.67-20.71-23.1-20.68-38.85.04-20.11,19.1-44.51,42.71-44.64,0,0,4.03,0,4.03,0,.05,0,.09,0,.14,0,17.44.79,33.35,12.24,38.8,27.9.46.39.8.93.95,1.54l1.25,4.98c.09.34.11.69.07,1.04-.03.24-.06.49-.1.74.96.51,1.6,1.52,1.6,2.65v13.6c0,1.15-.65,2.17-1.64,2.67.03.32.06.65.07.96,0,.26-.02.52-.08.77l-1.18,4.96c-.15.64-.5,1.19-.98,1.6-5.73,14.4-17.03,23.7-33.6,27.64-2.63.63-5.28.94-7.88.94Z"/>
      <path class="cls-2" d="m664.03,415.83c16.33.74,31.26,11.54,36.21,26.18-.15.65.19.92.78.99.42,1.66.84,3.32,1.25,4.98-.16,1.49-.83,3.2,1.48,3.7,0,4.53,0,9.07,0,13.6-2.28.49-1.6,2.23-1.57,3.7-.39,1.65-.78,3.3-1.18,4.96-.59.09-.92.37-.78,1.02-5.71,14.51-16.84,22.49-31.57,25.99-10.8,2.57-20.22-.86-28.94-7.08-12.52-8.93-19.45-21.3-19.42-36.4.04-18.95,18.47-41.53,39.73-41.65,1.34,0,2.67,0,4.01,0Z"/>
      <path class="cls-2" d="m229.66,504.2c-12.81,0-24.71-5.92-33.5-16.68-9.96-12.18-13.3-26.57-9.39-40.53,4.17-14.88,16.24-27.46,31.49-32.83,3.04-1.07,6.06-1.19,8.97-1.3,0,0,.87-.03.87-.03h5.01c.09,0,.18,0,.27.02,17.53,1.57,33.44,14.37,38.73,31.13.47.45.79,1.04.9,1.71l1.22,7.83c.02.15.04.31.04.46v8.9s.06.93.06.93c.03.48-.05.96-.24,1.4-.25.58-.57,1.04-.81,1.38,0,0,0,.01-.01.02.03.25.03.5,0,.75-1.18,9.59-5.79,17.81-14.1,25.15-.55.49-1.26.75-1.98.75-.11,0-.22,0-.33-.02-.05,0-.1,0-.15,0-.26.12-.68.79-.93,1.2-.27.43-.58.93-.95,1.41-.2.25-.43.48-.7.66-7.49,5.04-15.94,7.71-24.46,7.71h0Z"/>
      <path class="cls-2" d="m270.04,446.15c.41,2.61.81,5.22,1.22,7.83,0,3,0,6.01,0,9.01.02.34.05.69.07,1.03-.42.97-1.53,1.68-1.04,2.97-1.17,9.56-6.04,17.03-13.11,23.26-2.81-.31-3.47,2.1-4.73,3.75-17.42,11.74-39.55,9.25-53.97-8.38-22.05-26.95-5.72-59.3,20.78-68.63,2.85-1,5.86-1.04,8.84-1.16,1.67,0,3.34,0,5.01,0,16.49,1.48,31.25,13.39,36.18,29.18-.16.65.17.98.75,1.14Z"/>
      <path class="cls-3" d="m271.26,462.99c0-3,0-6.01,0-9.01,2.94,3,2.94,6.01,0,9.01Z"/>
      <path class="cls-3" d="m252.45,494c1.27-1.64,1.92-4.06,4.73-3.75-.62,2.45-2.12,3.81-4.73,3.75Z"/>
      <path class="cls-3" d="m233.11,415.83c-1.67,0-3.34,0-5.01,0,1.67-2.93,3.34-2.93,5.01,0Z"/>
      <path class="cls-3" d="m664.03,415.83c-1.34,0-2.67,0-4.01,0,1.33-2.64,2.67-2.64,4.01,0Z"/>
      <path class="cls-3" d="m703.75,451.69c-2.31-.51-1.64-2.21-1.48-3.7,2.28.52,1.69,2.19,1.48,3.7Z"/>
      <path class="cls-3" d="m702.19,468.99c-.04-1.47-.72-3.21,1.57-3.7.22,1.55.78,3.24-1.57,3.7Z"/>
      <path class="cls-3" d="m270.29,467c-.49-1.28.63-2,1.04-2.97,1.25,1.55.96,2.56-1.04,2.97Z"/>
      <path class="cls-3" d="m701.02,443.01c-.59-.07-.92-.34-.78-.99.26.33.52.66.78.99Z"/>
      <path class="cls-3" d="m270.04,446.15c-.58-.16-.91-.49-.75-1.14.25.38.5.76.75,1.14Z"/>
      <path class="cls-3" d="m700.23,474.97c-.14-.65.2-.93.78-1.02-.26.34-.52.68-.78,1.02Z"/>
    </g>
  </g>
</svg>