<?xml version="1.0" encoding="UTF-8"?>
<svg id="_Слой_2" data-name="Слой 2" xmlns="http://www.w3.org/2000/svg" viewBox="0 0 1022.71 1023.78">
  <defs>
    <style>
      .cls-1 {
        fill: #6fdaf1;
      }

      .cls-2 {
        fill: #40c9e7;
      }

      .cls-3 {
        fill: #fabc3d;
      }

      .cls-4 {
        fill: #059bbf;
      }

      .cls-5 {
        fill: #0484ab;
      }
    </style>
  </defs>
  <g id="_Слой_1-2" data-name="Слой 1">
    <g>
      <path class="cls-3" d="m538.37,1023.78h-53.94c-.67-.98-1.72-.9-2.69-.92-14.05-.34-27.95-2.18-41.87-4.02-25.96-3.44-51.45-9.08-76.47-16.67-50.99-15.46-98.42-38.39-142.34-68.63-22.93-15.79-44.27-33.54-64.48-52.6-14.73-13.89-28.03-29.15-40.96-44.75-23.7-28.59-43.7-59.59-60.34-92.74-7.86-15.66-14.52-31.84-21.06-48.13-10.63-26.47-18.06-53.75-24.09-81.47-2.21-10.19-3.05-20.72-4.68-31-2.1-13.23-4.01-26.39-4.48-39.76-.05-1.43.39-3.04-.96-4.2v-53.99c.96-.68.93-1.74.9-2.71-.27-10.3.98-20.53,2.31-30.65,2.59-19.81,6.04-39.5,10.72-58.97,11.95-49.77,31.3-96.49,56.49-140.96,2.51-4.42,5.1-8.91,7.86-13.07,9.16-13.83,19-27.22,28.81-40.62,8.31-11.35,17.15-22.3,26.95-32.42,5.79-5.97,12.16-11.4,17.66-17.61,9.59-10.83,20.29-20.54,31.33-29.68,10.39-8.61,20.98-17.22,32.2-24.67,17.96-11.92,35.89-23.98,55.16-33.88,9.79-5.03,19.66-10.04,29.46-14.98,6.99-3.52,15.05-5.91,22.64-8.74,24.79-9.24,49.69-18.02,75.66-23.39,15.18-3.14,30.22-6.85,45.81-7.86,9.32-.6,18.6-2.04,27.93-2.9,4.14-.38,8.56.11,12.54-1.79h53.94c3.62,1.91,7.74,1.5,11.53,1.81,16.28,1.34,32.43,3.23,48.56,5.92,21.51,3.59,42.69,8.36,63.46,14.85,99.2,31.03,181.54,87.09,247.22,167.65,17.59,21.57,33.27,44.47,46.76,68.87,14.79,26.74,27.66,54.28,37.77,83.16,8.66,24.73,15.29,49.97,20.27,75.64,4.19,21.59,6.66,43.48,7.72,65.42.62,12.9.75,25.87,1.05,38.8.12,4.97-.9,9.87-1.03,14.87-.25,10-.81,20.04-2.1,29.95-.43,3.31.83,6.83-.33,9.49-1.92,4.4-2.16,8.7-2.66,13.33-1.08,10.12-3.15,20.16-5.32,30.12-3.08,14.12-6.97,28.02-11.05,41.9-4.02,13.7-9.06,26.96-14.08,40.23-3.83,10.12-8.58,19.92-13.42,29.67-3.8,7.66-7.75,15.43-11.42,23.24-2.27,4.82-6.42,9.35-8.59,13.87-4.12,8.58-9.16,16.5-14.17,24.41-14.49,22.88-31.5,43.86-49.61,63.95-15.3,16.97-31.94,32.56-49.36,47.32-7.52,6.38-15.46,12.28-23.34,18.16-9.82,7.33-20.11,14.13-30.38,20.9-14.3,9.44-29.45,17.2-44.32,25.51-13.18,7.37-27.38,12.61-41.2,18.62-6.22,2.71-12.72,4.76-19.07,7.18-12.37,4.72-25.18,7.99-37.85,11.68-15.01,4.37-30.34,7.46-45.73,10.11-13.84,2.39-27.83,3.79-41.79,5.42-5.84.68-11.9-.63-17.54,1.73Zm47.47-809.6c-8.46-.07-16.92-.22-25.38-.21-41.16.02-82.32.09-123.48.14-12.46,12.51-24.93,25.02-37.39,37.53-15.09,4.68-30.2,9.32-45.28,14.06-22.81,7.18-45.63,14.33-68.37,21.72-4.77,1.55-9.7,2.6-14.38,4.32-6.82,2.51-13.53,5.29-20.82,6.15-2.81.66-5.1,2.47-7.92,3.28-7.35,2.12-14.52,4.83-21.87,7.01-4.31,1.28-7.38,3.77-7.35,9.65.26,56.4.17,112.8.14,169.2,0,6.55,5.14,10.94,11.74,9.82,8.38-1.42,16.77-2.83,25.15-4.25,1.79.22,3.47.21,5.34-.26,4.56-1.15,9.25-1.83,13.91-2.52,10.11-1.49,20.32-2.37,30.3-4.71,5.54-1.3,6.49-.55,6.49,5.35,0,99.47.11,198.95-.13,298.42-.03,12.63,8.81,21.17,21.11,21.1,59.59-.36,119.19-.16,178.78-.17,1.66,0,3.32-.13,4.98-.2,1.99.05,3.99.13,5.98.13,58.55,0,117.1,0,175.65,0,1.33,0,2.66.03,3.99,0,8.8-.23,15.57-5.08,17.83-13.32.9-3.27,1.14-6.81,1.14-10.23.06-98.23.05-196.46.05-294.69,0-1,.3-2.12-.05-2.98-1.55-3.88.83-3.99,3.44-3.61,9.98,1.47,19.92,3.27,29.92,4.51,7.55.94,14.96,2.98,22.64,2.88,7.41,2.19,15.2,2.18,22.67,3.92,8.61,2.01,14.38-2.15,14.38-10.98.02-55.27.01-110.53,0-165.8,0-6.06-2.13-9.33-7.78-11.17-9.68-3.17-19.44-6.08-29.16-9.11-21.13-6.68-42.26-13.37-63.4-20.03-15.38-4.85-30.78-9.62-46.14-14.52-13.13-4.19-26.21-8.51-39.32-12.78-12.46-12.56-24.93-25.11-37.39-37.67Z"/>
      <path class="cls-4" d="m250.74,297.88c7.3-.86,14-3.64,20.82-6.15,4.68-1.72,9.61-2.77,14.38-4.32,22.74-7.38,45.56-14.54,68.37-21.72,15.08-4.74,30.18-9.38,45.28-14.06.06,27.42.11,54.84.17,82.25.27.28.54.55.81.83,6.49-2.1,12.98-4.16,19.45-6.3,30.47-10.08,60.94-20.18,91.41-30.27-.01,170.49-.02,340.98-.04,511.47-1.66.07-3.32.2-4.98.2-59.59.01-119.19-.19-178.78.17-12.29.07-21.14-8.47-21.11-21.1.24-99.47.13-198.95.13-298.42,0-5.9-.95-6.65-6.49-5.35-9.98,2.33-20.19,3.22-30.3,4.71-4.66.69-9.35,1.36-13.91,2.52-1.87.47-3.54.48-5.34.26.06-1,.17-1.99.17-2.99-.01-63.91-.03-127.82-.06-191.73Zm149.18,120.88c-16.48,0-32.95.11-49.42-.07-4.33-.05-6.24.93-6.17,5.79.26,18.15.2,36.31.03,54.47-.04,3.81,1.28,5.62,4.9,6.78,15.37,4.93,30.67,10.08,45.95,15.27,3.33,1.13,6.42,1.08,9.73-.04,15.29-5.18,30.58-10.32,45.94-15.27,3.39-1.09,4.74-2.74,4.7-6.39-.16-18.32-.2-36.65.02-54.97.05-4.47-1.45-5.69-5.76-5.64-16.64.21-33.28.08-49.92.08Z"/>
      <path class="cls-5" d="m511.39,809.61c.01-170.49.02-340.98.04-511.47,1.75.48,3.53.88,5.25,1.45,33.42,11.12,66.83,22.27,100.24,33.4q6.16,2.05,6.17-4.28c.04-25.62.09-51.24.13-76.86,13.1,4.26,26.19,8.59,39.32,12.78,15.36,4.9,30.76,9.67,46.14,14.52,21.14,6.67,42.27,13.36,63.4,20.03-.05,1-.13,1.99-.13,2.99,0,63.38.02,126.77.03,190.15-7.68.1-15.09-1.94-22.64-2.88-10.01-1.25-19.94-3.04-29.92-4.51-2.61-.38-4.98-.27-3.44,3.61.34.86.05,1.98.05,2.98,0,98.23.01,196.46-.05,294.69,0,3.42-.24,6.96-1.14,10.23-2.27,8.24-9.04,13.09-17.83,13.32-1.33.03-2.66,0-3.99,0-58.55,0-117.1,0-175.65,0-1.99,0-3.99-.09-5.98-.13Zm46.5-390.97c.08,19.99.27,39.98.16,59.97-.02,3.98,1.16,5.93,5.04,7.17,15.22,4.85,30.36,9.94,45.47,15.12,3.68,1.26,7.04,1.15,10.67-.09,14.96-5.1,29.94-10.16,45-14.97,3.78-1.21,5.21-2.97,5.17-7.06-.18-19.99-.03-39.98,0-59.97,1.1-1.66.78-3.53.79-5.34.03-8.49.02-16.98,0-25.47-.01-6.9-.17-7.08-6.94-7.08-32.27-.01-64.53,0-96.8,0-1.83,0-3.66,0-5.49.06-2.14.06-3.59,1.08-3.56,3.31.12,11.46-.78,22.93.48,34.37Z"/>
      <path class="cls-1" d="m623.23,251.85c-.05,25.62-.09,51.24-.13,76.86q-.01,6.33-6.17,4.28c-33.41-11.14-66.83-22.28-100.24-33.4-1.72-.57-3.5-.97-5.25-1.45-30.47,10.09-60.93,20.19-91.41,30.27-6.47,2.14-12.97,4.2-19.45,6.3-.27-.27-.54-.55-.81-.83-.06-27.42-.11-54.84-.17-82.25,12.46-12.51,24.93-25.02,37.39-37.53.11,1.66.2,3.32.34,4.97,1.33,16.27,3.71,32.12,14.82,45.28,4.91,5.82,10.38,10.85,17.04,14.34,18.09,9.48,37.29,12.01,57.43,8.9,19.18-2.96,35.48-10.67,46.74-27.13,1.14-1.66,2.72-2.7,3.49-5.04,2.66-8.18,5.02-16.25,6.33-24.86.83-5.4,2.03-10.87,2.66-16.38,12.46,12.56,24.93,25.11,37.39,37.67Z"/>
      <path class="cls-5" d="m585.84,214.18c-.63,5.51-1.84,10.98-2.66,16.38-1.32,8.61-3.67,16.68-6.33,24.86-.76,2.34-2.35,3.38-3.49,5.04-11.27,16.46-27.56,24.17-46.74,27.13-20.14,3.11-39.34.58-57.43-8.9-6.66-3.49-12.13-8.52-17.04-14.34-11.12-13.16-13.49-29.01-14.82-45.28-.14-1.66-.23-3.32-.34-4.97,41.16-.05,82.32-.11,123.48-.14,8.46,0,16.92.14,25.38.21Z"/>
      <path class="cls-2" d="m250.74,297.88c.02,63.91.04,127.82.06,191.73,0,1-.11,1.99-.17,2.99-8.38,1.41-16.77,2.83-25.15,4.25-6.6,1.12-11.74-3.27-11.74-9.82.03-56.4.12-112.8-.14-169.2-.03-5.88,3.04-8.37,7.35-9.65,7.35-2.18,14.52-4.89,21.87-7.01,2.82-.82,5.11-2.62,7.92-3.28Z"/>
      <path class="cls-2" d="m771.99,492.32c-.01-63.38-.02-126.77-.03-190.15,0-1,.08-1.99.13-2.99,9.73,3.02,19.48,5.94,29.16,9.11,5.65,1.85,7.78,5.12,7.78,11.17.01,55.27.02,110.53,0,165.8,0,8.83-5.77,12.99-14.38,10.98-7.46-1.74-15.26-1.72-22.67-3.92Z"/>
      <path class="cls-2" d="m399.91,418.76c16.64,0,33.28.12,49.92-.08,4.3-.05,5.81,1.17,5.76,5.64-.22,18.32-.18,36.65-.02,54.97.03,3.65-1.31,5.3-4.7,6.39-15.36,4.95-30.66,10.1-45.94,15.27-3.3,1.12-6.4,1.17-9.73.04-15.28-5.19-30.58-10.34-45.95-15.27-3.62-1.16-4.94-2.97-4.9-6.78.17-18.16.23-36.31-.03-54.47-.07-4.86,1.84-5.84,6.17-5.79,16.47.19,32.95.07,49.42.07Z"/>
      <path class="cls-2" d="m399.75,333.88c.27.28.54.55.81.83-.27-.28-.54-.55-.81-.83Z"/>
      <path class="cls-2" d="m669.42,418.8c-.04,19.99-.19,39.98,0,59.97.04,4.09-1.39,5.86-5.17,7.06-15.06,4.81-30.03,9.87-45,14.97-3.63,1.24-6.99,1.35-10.67.09-15.11-5.18-30.25-10.28-45.47-15.12-3.88-1.23-5.06-3.19-5.04-7.17.11-19.99-.08-39.98-.16-59.96,37.17.05,74.35.1,111.52.15Z"/>
      <path class="cls-4" d="m669.42,418.8c-37.17-.05-74.34-.1-111.52-.15-1.26-11.44-.36-22.92-.48-34.38-.02-2.23,1.43-3.25,3.56-3.31,1.83-.05,3.66-.06,5.49-.06,32.27,0,64.53,0,96.8,0,6.77,0,6.93.17,6.94,7.08.01,8.49.02,16.98,0,25.47,0,1.81.31,3.69-.79,5.34Z"/>
    </g>
  </g>
</svg>