<?xml version="1.0" encoding="UTF-8"?>
<svg id="_Слой_2" data-name="Слой 2" xmlns="http://www.w3.org/2000/svg" viewBox="0 0 937.4 936.69">
  <defs>
    <style>
      .cls-1 {
        fill: #fff;
      }

      .cls-2 {
        fill: #00c165;
      }

      .cls-3 {
        fill: #5ca8d6;
      }

      .cls-4 {
        fill: #007ac1;
      }
    </style>
  </defs>
  <g id="_Слой_1-2" data-name="Слой 1">
    <g>
      <path class="cls-4" d="m429.36,935.83c-.23,0-.46-.02-.69-.06l-3-.06-18.74-.4c-.85-.02-1.65-.39-2.2-1.03-.55-.64-.81-1.48-.71-2.32.02-.17.03-.3.03-.41-.06,0-.12,0-.2,0-.08,0-.16,0-.25,0-2.42.11-4.84.12-6.88.12h-4.31s-1.6,0-1.6,0c-.24,0-.48-.03-.71-.08h0c-1.47-.36-2.44-1.74-2.27-3.24,0-.27,0-.47-.01-.62-.08,0-.17,0-.28,0h-.19c-1.63.06-3.39.09-5.37.09-2.12,0-4.24-.03-6.37-.06-1.62-.02-3.23-.05-4.85-.06l-2.97-.07c-.82-.02-1.6-.37-2.15-.98s-.83-1.42-.77-2.24c.03-.35.02-.6,0-.76-.07,0-.14,0-.24,0-.15,0-.3,0-.47.02-2.04.19-4.07.2-6.03.2-.83,0-1.66,0-2.5.02-.02,0-.16,0-.21,0l-7.65-.37c-.85-.04-1.65-.44-2.19-1.1-.54-.66-.77-1.52-.63-2.36.03-.17.04-.32.05-.44-.02,0-.03,0-.05,0-.1,0-.21,0-.32.01h-.2c-.52.05-1.1.08-1.67.08-1.29,0-3.15-.16-4.39-1.57-1.54-1.74-3.34-2.45-6.23-2.45-1.19,0-2.44.11-3.76.23l-.62.05-6.59.47c-.07,0-.14,0-.21,0-.79,0-1.56-.32-2.13-.88-.62-.62-.93-1.47-.87-2.34.05-.64.04-1.08.02-1.38-.17.04-.39.1-.66.19-.31.11-.64.16-.97.16-.04,0-3.68-.15-3.68-.15-1.58-.07-2.84-1.35-2.87-2.94,0-.52.06-.98.19-1.38-.59-.14-1.15-.23-1.65-.23-.67,0-1.42.14-2.38,1.12-.32.33-.7.57-1.13.73-.55.2-1.11.3-1.66.3-1.78,0-2.97-1.02-3.61-1.58-.11-.09-.22-.19-.33-.28-.34-.24-.62-.54-.84-.9-1.03-1.69-2.26-2.44-3.99-2.44-.3,0-.63.02-.97.07-.14.02-.27.03-.41.03-.36,0-.72-.07-1.06-.19l-1.16-.44c-.88-.33-1.55-1.05-1.82-1.95-.29-.97-.51-1.4-2.72-1.4-.41,0-.82.02-1.24.03-.04,0-.08,0-.12,0-.3,0-.59-.04-.87-.13-.27-.08-.54-.16-.81-.23-1-.27-1.8-1.03-2.1-2.03-.5-1.65-1.09-1.65-1.61-1.65-.33,0-.71.06-1.15.16-.24.06-.48.09-.73.09-.1,0-.21,0-.31-.02l-3.67-.39c-1.49-.16-2.64-1.4-2.68-2.9-.02-.6-.08-.96-.14-1.17-.04,0-.08,0-.12,0-.4,0-.92.06-1.47.13-.67.08-1.43.18-2.2.18-.64,0-1.22-.06-1.76-.19-.14-.03-.28-.08-.41-.13-1.13-.45-1.92-1.56-1.93-2.78,0-.61-.06-.99-.12-1.21h-.02c-.41,0-.95.07-1.52.15-.71.1-1.51.21-2.33.21-.65,0-1.23-.07-1.78-.21-.16-.04-.32-.1-.47-.17-1.1-.49-1.82-1.59-1.8-2.79,0-.58-.04-.95-.08-1.18-.39,0-.91.07-1.45.14-.69.09-1.48.2-2.27.2-.74,0-1.39-.09-2-.27-.1-.03-.21-.07-.31-.11-1.27-.53-2.04-1.87-1.83-3.23.03-.17.04-.32.05-.44-.19.02-.43.06-.72.13-.22.05-.45.08-.67.08-.04,0-2.95-.13-2.95-.13-.83-.04-1.6-.41-2.14-1.04-.54-.63-.8-1.45-.71-2.27.03-.27.04-.49.04-.67-.13.03-.29.08-.47.14-.3.1-.62.15-.93.15-.12,0-.24,0-.36-.02l-3.57-.44c-1.32-.16-2.38-1.18-2.6-2.49-.79-4.81-6.04-5.33-8.26-5.33-.26,0-.52,0-.79.02-.05,0-.09,0-.14,0-1.66,0-3-1.34-3-3,0-.2.02-.4.06-.59.02-.11.04-.21.06-.31-.18.04-.4.08-.65.16-.26.07-.53.11-.79.11-.02,0-2.65-.04-2.65-.04-.8-.01-1.56-.35-2.12-.92-.55-.58-.85-1.35-.83-2.16,0-.33.05-.64.12-.92-1.72-.5-3.29-1.29-4.01-2.99-.88-2.07-2.68-2.9-5.53-4.08-2.31-.96-4.88-2.02-6.81-4.27-.23.04-.45.06-.64.08-.08,0-.17.01-.25.01-.59,0-1.17-.18-1.65-.5-.98-.63-1.51-1.79-1.33-2.97.04-.24.06-.44.07-.61-.14.03-.3.06-.49.11-.26.07-.52.1-.78.1-.13,0-.26,0-.38-.02l-3.55-.46c-.8-.1-1.52-.52-2.01-1.17-.49-.64-.69-1.45-.57-2.25.03-.23.05-.42.06-.58-.12.01-.27.04-.45.07-.24.06-.49.09-.74.09-.54,0-1.08-.15-1.56-.44h0c-1.05-.64-1.6-1.86-1.4-3.07,0-.05.02-.09.03-.14.02-.15.04-.29.04-.4-.16.02-.36.05-.61.1-.2.04-.41.06-.62.06-.58,0-1.16-.17-1.65-.5-1.01-.67-1.52-1.87-1.3-3.06.04-.19.06-.36.07-.49-.17.02-.38.06-.64.11-.21.05-.43.07-.65.07-.15,0-.29-.01-.44-.03l-3.54-.52c-.81-.12-1.53-.56-2-1.22-.47-.66-.66-1.49-.51-2.29.02-.11.04-.21.05-.3-1.97-.04-3.31-1.04-4.2-1.7-.25-.19-.6-.45-.75-.5-.41-.15-.78-.38-1.09-.69-.55-.55-.95-1.2-1.19-1.94-.16-.51-.19-1.06-.07-1.58.25-1.09.15-1.34-1.95-2.76-.31-.21-.64-.43-.97-.68-.16.06-.32.1-.48.14-.19.04-.38.05-.57.05-.73,0-1.44-.27-2-.76l-4.89-4.36c-.62-.55-.98-1.34-1-2.17v-.46c-.02-.42-.03-1.03-.07-1.49-.12.02-.27.05-.44.1-.25.06-.5.09-.75.09-1.05,0-2.05-.56-2.6-1.5-.37-.63-.48-1.36-.35-2.04h-.01c.04-.25.07-.45.08-.61-.13.02-.29.04-.48.08-.21.05-.42.07-.63.07-.8,0-1.56-.32-2.12-.88-.7-.69-1.03-1.7-.84-2.7.05-.24.07-.44.09-.6-.14.02-.31.04-.5.08-.2.04-.4.06-.59.06-.86,0-1.7-.37-2.27-1.04-.6-.69-.85-1.63-.68-2.53.04-.23.07-.41.08-.57-.15.01-.33.04-.56.08-.19.04-.38.05-.57.05-.78,0-1.54-.3-2.1-.86-.72-.71-1.04-1.75-.84-2.74.04-.2.06-.36.08-.5-.16.02-.35.04-.58.09-.2.04-.39.06-.58.06-1.06,0-2.06-.56-2.6-1.51-.38-.67-.49-1.44-.32-2.16h-.02c.04-.19.07-.35.09-.48-.18.01-.39.04-.61.08-.17.03-.34.04-.51.04-.79,0-1.55-.31-2.12-.88-.73-.73-1.04-1.78-.82-2.79.04-.2.07-.37.09-.5-.03,0-.07,0-.1,0-.49,0-1.01.04-1.53.08l-.26.02c-.07,0-.14,0-.21,0-1.02,0-1.98-.52-2.53-1.39-.55-.86-1.46-1.58-2.52-2.42-1.61-1.27-3.43-2.7-4.52-5.11-.18-.39-.27-.81-.27-1.23,0-.57.06-1.1.12-1.57.03-.22.06-.52.07-.74-.45-.41-.92-.8-1.38-1.2-2.5-2.12-5.54-4.7-6.2-9.21-.24.02-.49.04-.75.04-.09,0-.18,0-.27,0-.89-.04-1.72-.47-2.26-1.18-.55-.72-.75-1.67-.56-2.55h0c.05-.22.08-.4.11-.55-.12.01-.25.03-.41.06-.2.04-.4.06-.61.06-1.66,0-3-1.34-3-3,0-.23.02-.45.07-.66.05-.23.07-.42.09-.57-.17,0-.35.03-.55.06-.16.03-.32.04-.48.04-1.01,0-1.97-.51-2.53-1.38-.42-.65-.57-1.44-.42-2.2.05-.25.08-.45.09-.61-.15.01-.31.03-.48.06-.16.03-.33.04-.49.04-.64,0-1.26-.2-1.78-.58-.65-.48-1.08-1.2-1.19-2l-.49-3.55c-.05-.39-.03-.79.07-1.18.05-.2.09-.37.11-.51-.19,0-.4.03-.63.07-.15.02-.3.03-.45.03-1,0-1.96-.5-2.51-1.36-.48-.73-.62-1.65-.37-2.49.04-.15.08-.28.1-.39-.09,0-.19,0-.31,0-.15,0-.3,0-.46.01-.06,0-.12,0-.18,0-1.56,0-2.87-1.21-2.99-2.78l-.21-2.81c-.28-2.88-2.35-5.36-4.72-5.57-1.19-.11-2.21-.91-2.58-2.05-.22-.66-.33-1.28-.43-1.84-.07-.41-.18-1.03-.29-1.19-.9-.38-1.58-1.17-1.78-2.12-.16-.74-.24-1.47-.32-2.17-.08-.72-.22-1.94-.43-2.24-1.22-1.52-2.08-3.22-2.84-4.72-.79-1.56-1.53-3.03-2.51-3.99-1.47-1.44-3.28-3.23-2.95-6.27.06-.59.03-.93,0-1.09-.14-.04-.42-.08-.88-.08-.31,0-.63.02-.97.05-.09,0-.18.01-.27.01-.85,0-1.66-.36-2.23-1l-.94-1.04c-1.07-1.19-1.02-3,.11-4.12.14-.14.43-.43.67-.71h-.08c-.44,0-.85-.04-1.23-.12-1.08-.24-1.94-1.04-2.24-2.11-.13-.47-.15-.96-.06-1.42h0c.06-.3.1-.54.12-.74-.09.01-.2.03-.31.05-.17.03-.34.04-.51.04-.66,0-1.3-.22-1.83-.62-.66-.51-1.08-1.27-1.16-2.11l-.34-3.73c-.03-.31,0-.62.06-.92.06-.28.1-.51.12-.69-.13.01-.28.03-.43.05s-.31.04-.46.04c-.67,0-1.32-.22-1.85-.64-.66-.51-1.07-1.28-1.13-2.11l-.31-3.73c-.03-.31,0-.62.07-.92.07-.28.1-.51.13-.69-.13,0-.26.02-.41.04-.14.02-.28.03-.42.03-.67,0-1.33-.23-1.86-.65-.64-.51-1.05-1.26-1.12-2.08l-.34-3.74c-.03-.34,0-.69.08-1.02.06-.24.1-.44.12-.59-.16,0-.32.01-.5.03-.1.01-.21.02-.31.02-.69,0-1.36-.24-1.9-.68-.62-.51-1.01-1.24-1.08-2.04l-.35-3.78c-.03-.33,0-.66.07-.97.44-1.84,0-2.13-1.33-2.48-1.01-.26-1.8-1.03-2.11-2.02l-.36-1.18c-.11-.35-.15-.71-.12-1.07.05-.82.15-1.64.24-2.47.15-1.29.26-2.38.25-3.36-.27.05-.57.09-.89.09s-.66-.04-.99-.1c-1.38-.28-2.38-1.48-2.4-2.89l-.03-1.82c0-.23.02-.46.07-.68.19-.88.72-3.31.74-4.42-.31-.07-.83-.16-1.71-.24-.97-.1-1.84-.66-2.31-1.51-1.21-2.15-1.02-4.39-.9-5.73.01-.17.04-.34.09-.5.24-.93.4-1.55-1.62-2.38-1.11-.46-1.85-1.53-1.86-2.74l-.02-1.55c.01-1.01.02-1.94.02-2.88.01-2.13.03-4.34.11-6.52.01-.32,0-.55-.03-.7-.03,0-.06,0-.1,0-.19,0-.41.02-.65.05-.15.02-.29.03-.44.03-.7,0-1.37-.24-1.92-.69-.66-.54-1.05-1.34-1.08-2.19l-.11-2.86c-.01-.32.03-.63.11-.93.36-1.28.29-2.76.21-4.33-.06-1.21-.12-2.47,0-3.79.01-.13.02-.25.02-.35-.19.01-.42.04-.67.07-.16.03-.31.04-.47.04-1.32,0-2.52-.88-2.89-2.19-.07-.26-.13-.59-.13-.86.02-.89.02-1.72.02-2.56,0-1.96,0-3.99.18-6.03.02-.25.02-.44.02-.58h-.03c-.18,0-.37.01-.57.04-.16.03-.32.04-.47.04-1.14,0-2.21-.65-2.71-1.72h0c-.21-.44-.3-.91-.28-1.37,0-1.18,0-2.36-.02-3.55-.03-2.84-.05-5.78.11-8.72.02-.36,0-.61-.01-.77-.09,0-.2-.01-.33-.01s-.27,0-.41.02c-.07,0-.14,0-.21,0-.75,0-1.47-.28-2.02-.78-.61-.55-.96-1.33-.98-2.15l-.06-2.93c0-1.31-.02-2.56-.04-3.82-.04-2.95-.08-6,.06-9.03,0-.14,0-.26,0-.35-.07,0-.15,0-.25,0-.14,0-.29,0-.44.01-.06,0-.12,0-.18,0-.75,0-1.47-.28-2.02-.79-.6-.55-.95-1.31-.98-2.12l-.12-3.92c-.01-2.33-.03-4.59-.05-6.84-.04-5.62-.09-11.44,0-17.17,0-.05,0-.09,0-.13-.33-.03-.72-.05-.9-.05-1.6-.06-2.87-1.36-2.89-2.96l-.21-15.84-.04-58.23.33-19.81c.01-.8.35-1.56.92-2.12.56-.54,1.3-.83,2.08-.83.03,0,.44,0,.44,0,.12,0,.22,0,.31,0,0,0,0-.02,0-.02-.11-4.08-.1-8.2-.1-12.19,0-1.67,0-3.35,0-5.02l.3-10.86c.02-.81.37-1.58.97-2.13.55-.51,1.28-.79,2.02-.79.06,0,.12,0,.18,0,.2.01.39.02.57.02h.05s0-.03,0-.05c-.1-3.09-.06-6.2-.02-9.21.02-1.29.03-2.57.04-3.86,0-.18.02-.37.05-.55.27-1.42,1.51-2.44,2.95-2.44.04,0,.36,0,.48,0,.19,0,.34,0,.46-.02,0-.08,0-.17,0-.28-.15-2.81-.15-5.63-.14-8.35,0-1.17,0-2.34,0-3.51,0-.14,0-.29.03-.43.2-1.49,1.47-2.61,2.98-2.61.13,0,.27,0,.4.03.27.04.51.06.71.06,0-.15.01-.35,0-.61-.16-2.95-.11-5.91-.07-8.77.02-1.22.04-2.44.04-3.66,0-.05,0-.11,0-.16l.21-3.81c.04-.81.42-1.57,1.03-2.1.55-.48,1.25-.74,1.97-.74.08,0,.17,0,.26.01.23.02.45.03.65.03.22,0,.39-.01.52-.03-.01-.19-.05-.48-.15-.89-.32-1.31-1.16-4.78,2.34-6.79.77-.44.93-1.1,1.12-3.29.02-.29.05-.59.08-.88.02-.17,0-.53-.02-.84-.08-1.33-.24-4.1,2.3-5.64,1.14-.69,1.29-1.5,1.47-3.82.06-.78.12-1.59.28-2.43.01-.09,0-.41-.01-.62-.05-1.16-.18-3.88,2.46-5.22.9-.45,1.06-.86,1.23-3.1.06-.8.13-1.7.34-2.62.04-.17.04-.52.04-.85,0-1.12,0-3.01,1.45-4.7,2.53-2.98,3.48-6.79,4.49-10.83.33-1.33.68-2.7,1.08-4.06l.15-2.55c.09-1.56,1.36-2.79,2.92-2.83.62-.01,1-.08,1.2-.14.01-.41-.08-1.11-.14-1.6-.16-1.2-.33-2.56-.02-3.94.04-.16.09-.32.15-.48.46-1.12,1.56-1.87,2.77-1.88.61,0,1-.06,1.22-.11,0-.41-.09-1.07-.15-1.54-.17-1.25-.36-2.67,0-4.09.04-.16.1-.32.16-.47.48-1.09,1.56-1.8,2.75-1.8h.02c.61,0,.99-.05,1.22-.1,0-.41-.09-1.05-.15-1.51-.17-1.26-.36-2.69.01-4.13.04-.14.08-.28.14-.41.47-1.12,1.58-1.85,2.77-1.85.11,0,.22,0,.33.02.23.03.45.04.66.04h.04c0-.1,0-.22,0-.37,0-.14-.02-.28-.03-.44-.38-4.34,1.76-5.68,3.62-6.05.12-.02.21-.05.29-.07,0-.3-.06-.72-.09-1.02-.04-.39-.09-.78-.11-1.17-.02-.41.03-.81.17-1.2.41-1.14,1.48-1.95,2.69-2.01h0c.68-.03,1.01-.14,1.15-.19.11-.44,0-1.57-.06-2.26-.05-.5-.09-.99-.12-1.48-.03-.63.14-1.25.48-1.78.83-1.28,1.98-1.48,2.59-1.48.07,0,.14,0,.22,0,.26.02.51.03.73.03s.39,0,.53-.02c-.04-.38-.13-.86-.2-1.23-.25-1.34-.53-2.87-.11-4.4.07-.27.19-.53.33-.77.55-.89,1.54-1.48,2.59-1.48.08,0,.16,0,.24,0-.11-.42-.13-.87-.05-1.3l.68-3.72c.24-1.3,1.3-2.29,2.62-2.44,2.32-.26,4.47-2.82,4.71-5.6,0-.06.01-.12.02-.17l.54-3.7c.19-1.31,1.22-2.35,2.54-2.54,2.49-.36,4.83-2.93,4.92-5.4,0-.04.23-2.98.23-2.98.11-1.43,1.22-2.58,2.65-2.74,2.05-.24,4.94-3.33,4.98-5.35.01-.59.2-1.16.54-1.65.57-.81,1.5-1.29,2.47-1.29.16,0,.32.01.48.04.22.04.42.06.59.07-.02-.15-.06-.33-.11-.55-.09-.36-.11-.73-.06-1.1l.47-3.57c.2-1.5,1.48-2.61,2.97-2.61.06,0,.12,0,.18,0,.3.02.61.05.93.09.05,0,.09.01.14.02,1.12-2.08,2.77-3.47,4.24-4.7.97-.81,1.88-1.58,2.4-2.38.86-1.33,1.9-2.42,2.91-3.48,2.02-2.11,3.16-3.41,3.07-5.41-.04-.85.29-1.67.9-2.27.51-.5,1.18-.8,1.89-.85.03-.1.06-.19.09-.28.29-.91.73-2.3,1.95-3.31.54-.45,1.22-.69,1.92-.69,0,0,.7,0,.7,0,.65,0,1.86,0,2.55-.08.11-.9.08-2.75.04-4.55-.01-.65.19-1.28.56-1.81.57-.8,1.53-1.3,2.5-1.3.11,0,.22,0,.33.02.27.03.52.05.73.05-.02-.11-.04-.23-.07-.37-.2-.88,0-1.81.57-2.52.58-.74,1.49-1.19,2.42-1.19.15,0,.3.01.45.04.23.04.44.06.63.07-.01-.13-.04-.28-.07-.46-.2-.98.1-2,.81-2.71.58-.58,1.4-.93,2.22-.93.17,0,.33.01.5.04.22.04.4.06.55.08-.01-.14-.04-.31-.07-.52-.18-.98.13-1.98.84-2.68.58-.57,1.39-.92,2.21-.92.19,0,.38.02.56.06.17.03.31.06.43.07,0-.17-.03-.39-.07-.65-.17-1.08.28-2.17,1.15-2.84.54-.41,1.22-.64,1.9-.64.21,0,.41.02.61.07.16.04.3.06.41.08,0-.17-.02-.39-.06-.66-.15-1.1.32-2.2,1.23-2.85.51-.36,1.2-.61,1.83-.61.01,0,.02,0,.04,0,.88.01,1.65.02,2.33.02,1.16,0,1.82-.04,2.19-.09.08-.72.09-2.05.09-3.25,0-1.44,1.03-2.67,2.44-2.94.81-.16,1.51-.79,2.57-1.82,1.04-1,2.22-2.14,3.88-2.86.38-.16.78-.25,1.19-.25.16,0,.33.01.49.04.15.03.3.04.43.04.78,0,1.29-.55,2.52-2.32.65-.93,1.39-1.98,2.36-2.83.64-.56,1.41-.93,2.15-1.29.45-.22,1.26-.61,1.57-.89-.02-.08-.06-.21-.15-.4-.51-1.12-.28-2.45.58-3.33.34-.35.77-.63,1.23-.78.64-.21,1.35-.31,2.15-.31.75,0,1.5.09,2.16.17.48.06.94.11,1.31.12.02-.25.03-.63-.01-1.18-.08-1,.35-1.98,1.14-2.6.53-.41,1.22-.67,1.89-.67.25,0,.49.03.73.09.19.05.35.08.49.1,0-.16-.03-.35-.06-.59-.15-.99.2-1.99.94-2.66.56-.51,1.28-.79,2.02-.79.24,0,.47.03.71.08.2.05.36.08.5.1,0-.17-.02-.39-.05-.67-.16-1.25.48-2.46,1.6-3.04.43-.22.91-.34,1.4-.34.23,0,.45.03.67.08.19.04.35.07.48.09,0-.15-.02-.34-.05-.57-.11-.82.13-1.65.65-2.29.52-.64,1.29-1.04,2.11-1.1l2.91-.21c.15-.01.37-.02.6-.02.42,0,.88.04,1.34.08h.17c1.35-3.39,4.39-3.79,5.93-3.99.29-.04.58-.07.87-.13,1.67-.33,3.12-1.83,4.52-3.28l.3-.31c3.06-3.15,6.45-6.31,11.17-7.25.12-.02.22-.05.31-.07-.02-.28-.07-.61-.09-.76-.12-.83.12-1.68.66-2.33.6-.73,1.41-1.22,2.34-1.42.2-.04.41-.06.61-.06.17,0,.33.01.5.04.62.1,1.23.16,1.81.16,3.51,0,5.78-1.89,6.07-5.06.07-.81.47-1.55,1.1-2.06l1.09-.89c.55-.45,1.22-.67,1.89-.67s1.4.24,1.96.73l.3.26c.28.25.68.59,1.02.84,0-.05-.01-.09-.02-.13-.06-.46-.11-.92-.12-1.35-.05-1.57,1.13-2.91,2.69-3.07l3.7-.38c.1-.01.21-.02.31-.02.2,0,.41.02.61.06.31.06.55.1.74.12-.01-.11-.03-.23-.05-.37-.14-.83.06-1.68.57-2.34.51-.67,1.28-1.09,2.11-1.16l3.7-.33c.09,0,.18-.01.27-.01.23,0,.46.03.68.08.29.07.52.11.7.13,0-.12-.02-.26-.05-.42-.13-.82.1-1.66.61-2.31.52-.65,1.28-1.06,2.11-1.13l3.55-.29c.43-.08.87-.12,1.36-.12.87,0,1.73.13,2.48.24.58.09,1.13.17,1.54.18.05-.22.1-.58.1-1.14-.07-1.35.77-2.59,2.07-3.01h0c.3-.1.61-.15.93-.15.06,0,.13,0,.19,0,.55.04,1.08.05,1.6.05,7.08,0,7.41-3.33,7.55-4.75.15-1.55,1.45-2.71,2.98-2.71.07,0,.14,0,.22,0,.23.02.45.02.68.02,2.47,0,4.83-.95,7.88-3.17.51-.37,1.13-.57,1.77-.57.05,0,.11,0,.16,0l.83.04c1.68.09,3.27.18,4.86.18s3.11-.1,4.42-.32c0-.02,0-.04,0-.05-.13-.84.1-1.7.63-2.37.54-.66,1.33-1.06,2.19-1.1l1.41-.07c1.02-.05,2.01-.1,3.01-.14.28-.01.55-.01.83-.01s1.52.01,1.52.01c.52,0,1.12-.01,1.61-.12.42-.09.86-.16,1.31-.22.41-.06.98-.14,1.32-.24,0-.08,0-.19-.01-.33-.11-1.25.58-2.43,1.71-2.97l2.11-.99c.4-.19.84-.29,1.28-.29.41,0,.82.08,1.21.25,1.23.54,2.38.83,3.32.83,1.36,0,2.02-.52,2.29-1.78.24-1.12,1.09-2.01,2.2-2.29.25-.06.56-.11.83-.11.03,0,.05,0,.08,0,.67.02,1.35.06,2.02.11.99.06,1.92.12,2.83.12.42,0,.83-.01,1.24-.04.19-.01.38-.02.58-.02.55,0,1.08.05,1.58.1.26.02.53.05.78.07,1.59-3.95,5.02-3.95,6.36-3.95h.65c.17,0,.33,0,.49,0l1.1-.06c1.38-.08,2.81-.15,4.25-.15.89,0,1.71.03,2.48.09.15.01.3.02.44.02.11,0,.2,0,.27,0,0-.17,0-.41-.03-.75-.08-.82.17-1.63.7-2.25s1.29-1,2.11-1.05l3.73-.22c.12-.01.31-.02.5-.02.99,0,1.95.2,2.8.37.45.09.9.18,1.27.23.04-.23.08-.57.08-1.05.01-1.6,1.28-2.91,2.88-2.97,0,0,4.04-.16,4.08-.16,1.65,0,3.29-.02,4.94-.04,2.3-.02,4.61-.05,6.91-.05,1.72,0,3.43.01,5.15.05,0,0,.06,0,.08,0,0-.14-.01-.32-.03-.54-.07-.83.2-1.64.75-2.26.55-.62,1.34-.98,2.16-1l14.74-.35h.44c1.89,0,3.79,0,5.68-.01,1.9,0,3.8-.01,5.7-.01,3.68,0,6.66.03,9.38.09,0,0,.06,0,.08,0,.01-.18.02-.41.02-.74,0-1.66,1.34-3,3-3h61.78c.8,0,1.57.32,2.13.9s.88,1.34.87,2.14c0,.31,0,.53.02.7.03,0,.19,0,.19,0,2.67-.06,5.58-.09,9.16-.09,1.95,0,3.91,0,5.86.02,1.94,0,3.89.02,5.83.02h.18l7.9.19c.8.02,1.56.36,2.11.94.55.58.84,1.36.81,2.17-.01.35,0,.59.02.76.04,0,.09,0,.15,0,.08,0,.17,0,.26,0,2.82-.16,5.65-.18,8.39-.19,1.17,0,2.33-.01,3.5-.03.02,0,.11,0,.15,0l15.56.53c1.57.05,2.83,1.31,2.9,2.88.02.6.09.99.15,1.22.39-.03.92-.14,1.44-.24.86-.17,1.83-.37,2.82-.37.46,0,.88.04,1.29.12l6.48.24c.83.03,1.61.4,2.16,1.03.54.63.8,1.45.72,2.28-.03.26-.04.46-.04.62.08,0,.17,0,.25-.01,1.93-.13,3.84-.14,5.64-.14h1.37c.66,0,1.31,0,1.97,0,.01,0,.15,0,.21,0l3.79.21c1.61.09,2.86,1.44,2.83,3.05,0,.46.01.79.04,1.04.34-.05.73-.14,1.08-.22.88-.2,1.89-.43,2.92-.43.2,0,.39,0,.59.03.69.02,1.35.18,1.97.49.81.4,1.39,1.15,1.59,2.03.36,1.61,2.56,2.33,4.58,2.33,1.14,0,2.38-.22,3.56-.63.32-.11.65-.16.98-.16.21,0,.42.02.62.07,1.64.35,2.2,1.47,2.39,2.11.15.5.16,1.04.04,1.55,0,0,.02,0,.02,0,1.26.38,2.62.55,4.4.55.98,0,1.97-.05,3.02-.1,0,0,.34-.02.39-.02.57,0,1.13.16,1.61.47.87.56,1.45,1.56,1.44,2.59,0,.23.01.39.03.51.32.06.84.09,1.22.11.98.06,2.1.12,3.21.54,0,0,0,0,0,0,.02,0,.1.01.29.01s.36,0,.54-.02c.26-.01.53-.02.79-.02.79,0,3.2,0,5.04,2.3.88,1.1,1.85,1.59,3.14,1.59.75,0,1.62-.17,2.56-.51.32-.11.66-.17,1-.17.02,0,1.9.03,1.9.03,1.24.02,2.34.8,2.76,1.97.17.46.32,1.07.3,1.73,2.34.19,4.83.72,6.52,2.74.98,1.17,1.78,1.38,3.11,1.38.45,0,.9-.02,1.35-.05.57-.03,1.14-.06,1.71-.06.15,0,.3,0,.45,0,.31,0,.6.06.88.16h0c1.27.43,2.09,1.64,2.04,2.95,0,.56.06.92.11,1.14.41,0,.96-.08,1.54-.17.74-.11,1.57-.23,2.42-.23.6,0,1.14.06,1.66.18,0,0,0,0,0,0,1.37.33,2.32,1.55,2.31,2.96,0,.63.04,1.03.09,1.27.4,0,.94-.09,1.5-.18.76-.12,1.61-.25,2.48-.25.52,0,.99.04,1.44.14l3.53.32c.84.08,1.61.5,2.12,1.18s.71,1.53.56,2.36c-.02.11-.04.21-.05.3.22-.02.47-.06.75-.11.19-.04.37-.05.56-.05,0,0,0,0,0,0,.45,0,.91.1,1.31.3,1.16.56,1.84,1.81,1.67,3.09,0,.07-.02.14-.04.21-.03.21-.04.37-.04.5.08,0,.17.01.29.01.1,0,.2,0,.31,0l.33-.02c.35-.03.71-.05,1.08-.05,3.22,0,4.32,2.07,4.64,2.96.42,1.16.68,1.16,1.2,1.16.63,0,1.46-.17,2.33-.35l.71-.14c.19-.04.38-.06.58-.06.34,0,.68.06,1.01.17.69.24,1.29.64,1.79,1.17.54.57.84,1.34.82,2.13-.01.58.03.96.07,1.21.43-.03,1.01-.14,1.56-.24.79-.15,1.68-.32,2.58-.35.03,0,.07,0,.1,0,.09,0,.17,0,.26.01,1.05.09,2,.58,2.68,1.38.63.74.87,1.74.64,2.68-.05.21-.08.37-.09.48.29.13.77.28,1.12.39,1.31.41,3.06.96,4.24,2.52.05,0,.11,0,.19,0,.18,0,.36,0,.54-.01.26,0,.51-.02.76-.02.5,0,1.25.03,2.06.27,1.16.35,2,1.36,2.12,2.57.22,2.12,3.1,4.78,6.49,5.02l2.79.2c1.39.1,2.53,1.15,2.75,2.53.36,2.33,3.55,5.02,5.36,5.02.03,0,.06,0,.09,0,.15,0,.32,0,.46.03l3.52.5c.79.11,1.51.54,1.99,1.18.48.64.68,1.45.56,2.24-.05.34-.06.59-.06.75.06,0,.14,0,.22,0,.08,0,.34-.01.39-.01.19,0,.38.02.56.05l.22.04c.65.1,1.25.41,1.71.88.57.59.87,1.38.84,2.2,0,.22,0,.39,0,.52.17-.02.39-.05.69-.12.23-.06.47-.08.7-.08.66,0,1.31.22,1.84.63.89.69,1.33,1.84,1.12,2.95-.04.19-.06.35-.08.49.16-.02.36-.06.6-.11.22-.05.45-.08.68-.08.13,0,.26,0,.39.03l3.57.47c.85.11,1.6.58,2.09,1.28.48.7.64,1.58.44,2.41-.13.51-.29,1.44,0,1.91.18.29.79.84,2.82,1.29l2.68.5c1.49.28,2.54,1.63,2.44,3.14-.05.71-.03,1.17,0,1.45.15-.02.34-.05.58-.1.22-.05.44-.07.66-.07.92,0,1.79.42,2.37,1.16,1.47,1.89,3.74,2.99,5.94,3.96,1.04.45,1.73,1.45,1.79,2.58.05.89-.06,1.78-.15,2.56-.02.2-.05.43-.08.66.19-.03.41-.08.67-.14.23-.06.47-.08.71-.08.77,0,1.51.29,2.08.84.74.71,1.11,1.79.91,2.79-.04.19-.06.35-.08.49.11-.02.23-.05.37-.09.25-.06.5-.1.76-.1.8,0,1.57.32,2.14.9l.07.07c.72.74,1.01,1.8.77,2.8-.04.18-.07.33-.1.46.1-.01.21-.03.34-.06.66-.22,1.31-.33,1.94-.33,3.13,0,4.47,2.52,5.19,3.87.1.19.23.44.35.63.02,0,.05,0,.07,0,.61,0,1.21.19,1.72.56.66.47,1.07,1.19,1.2,1.99.05.31.82.87,1.44,1.32,1.61,1.17,4.31,3.14,3.87,7.1-.01.12-.03.23-.06.35-.05.21-.08.38-.1.53.14-.02.31-.05.5-.09.2-.04.41-.06.61-.06.82,0,1.62.34,2.2.96.66.71.98,1.75.78,2.71-.05.23-.08.43-.1.59.24,0,.49-.03.74-.04.49-.03.98-.06,1.45-.06s.85.03,1.23.08c1.24.17,2.24,1.1,2.51,2.32.06.25.8.82,1.3,1.19,1.52,1.15,4.06,3.07,3.64,6.88,0,.06-.02.13-.03.19-.17.96-.02,1.28,2.08,2.81,1.24.9,2.65,1.92,3.61,3.52.13.21.29.54.48.94.17.37.67,1.45,1.05,1.77.06-.02.16-.06.3-.13.43-.23.91-.34,1.39-.34s.95.11,1.39.34c.87.45,1.46,1.3,1.59,2.27l.47,3.55c.05.36.03.73-.05,1.08-.06.23-.09.43-.12.59.13-.02.28-.04.46-.08.2-.04.4-.06.6-.06.91,0,1.78.41,2.35,1.14.57.72.8,1.69.59,2.58-.05.2-.08.38-.1.52.14,0,.29-.03.45-.05.02,0,.03,0,.05,0,.18-.03.37-.05.55-.05.97,0,1.9.48,2.47,1.3h0c.48.7.65,1.57.45,2.41-.05.21-.08.38-.1.52.19,0,.4-.02.63-.05.13-.02.26-.02.39-.02,1.14,0,2.19.65,2.7,1.69.17.35.28.76.31,1.15.05.77.03,1.5.01,2.15-.05,2.27-.07,3.12,1.75,4.25,4.38,2.72,6.61,5.96,6.63,9.64.4.02.83.06,1.26.15.71.15,1.34.55,1.77,1.13.39.51.6,1.14.61,1.78,0,.36-.02.73-.04,1.1-.01.17-.03.41-.03.58,3.44,2.99,5.31,7.02,6.7,10.58.15.38.27.6.34.73.19,0,.44-.03.77-.08.15-.02.3-.03.45-.03.71,0,1.41.25,1.95.72.69.59,1.16,1.37,1.37,2.25.1.4.11.82.03,1.23-.43,2.37-.06,4.49,1.05,5.97.86,1.15,2.13,1.84,3.69,2.01,1.44.16,2.56,1.31,2.67,2.75l.21,2.79c.02.24,0,.49-.03.73-.06.37-.1.66-.11.88.07-.01.15-.02.23-.04.19-.04.38-.06.57-.06.64,0,1.26.2,1.79.59.68.5,1.11,1.26,1.2,2.1l.38,3.68c.03.32.01.65-.06.97-.07.3-.1.53-.13.72.13-.01.26-.03.41-.05.15-.02.31-.04.46-.04.67,0,1.32.22,1.85.64.65.51,1.07,1.28,1.13,2.11l.31,3.72c.03.31,0,.63-.07.93-.07.28-.1.5-.13.68.14,0,.28-.03.44-.05.15-.02.3-.03.45-.03.67,0,1.32.22,1.86.64.65.51,1.06,1.27,1.13,2.1l.32,3.71c.03.33,0,.66-.08.98-.07.26-.1.48-.13.65.16,0,.32-.02.5-.04.12-.01.24-.02.36-.02.68,0,1.34.23,1.88.66.63.51,1.03,1.25,1.11,2.05l.35,3.69c.03.36,0,.72-.09,1.06-.07.24-.11.44-.13.6.16,0,.33-.01.51-.03.1,0,.19-.01.29-.01,1.52,0,2.82,1.15,2.98,2.69l.39,3.71c.04.36.01.72-.08,1.06-1.2,4.63,1.15,7.16,5.4,11.25.42.4.83.8,1.24,1.2.5.49.81,1.13.88,1.83l.4,3.82c.04.41,0,.82-.12,1.21-.57,1.84-.74,2.99-.5,3.44.11.2.56.51,1.47.77,1.08.3,1.91,1.18,2.13,2.28.13.62.18,1.21.23,1.72.11,1.12.17,1.44.45,1.73,3.34,3.4,3.97,7.67,4.3,11.77.1.51.11,1.01.07,1.48.55.02,1.09.2,1.55.51.76.51,1.25,1.35,1.32,2.27l.54,7.49c.02.35-.01.7-.11,1.03-.09.31-.15.56-.19.77.08,0,.16-.02.25-.03.14-.02.29-.03.43-.03.68,0,1.35.23,1.89.67.65.53,1.05,1.3,1.1,2.14l.48,7.6c0,.08,0,.17,0,.25-.02.84-.02,1.68-.03,2.52-.01,1.96-.02,4-.2,6.04-.03.3-.03.53-.02.68.04,0,.09,0,.14,0,.18,0,.37-.01.57-.04.11-.01.22-.02.33-.02.71,0,1.4.25,1.95.72.63.54,1.01,1.31,1.05,2.13l.19,3.67c.12,1.2-.1,2.35-.29,3.38-.07.36-.16.84-.2,1.21.22.03.54.06.99.06,1.61,0,2.93,1.27,2.99,2.88,0,0,.32,7.87.32,7.9.01,2.02.03,4.03.05,6.05.05,4.89.1,9.95.01,14.95.22.02.47.03.67.04l.29.02c1.63.02,2.95,1.35,2.96,2.99,0,2.27.02,4.54.04,6.81.04,5.61.08,11.41-.01,17.13,0,.05,0,.1,0,.15.18.01.44.03.79.03,1.63.01,2.96,1.33,2.98,2.96,0,0,.15,12.01.15,12.05-.37,13.33-.32,26.38.15,38.79.06.5.04.99-.06,1.48-.49,4.12-.5,8.51-.03,13.39.01.11.02.22.01.33l-.18,11.86c-.02,1.62-1.32,2.92-2.94,2.96-.36,0-.65.02-.87.04,0,.04,0,.08,0,.12.09,5.98.05,12.05.01,17.91-.02,2.35-.03,4.7-.04,7.05l-.15,6.94c-.02.82-.37,1.59-.96,2.14-.56.51-1.28.79-2.03.79-.06,0-.12,0-.18,0-.15,0-.31-.01-.45-.01-.1,0-.19,0-.27,0,0,.1,0,.21,0,.35.16,3.05.15,6.12.14,9.08,0,1.26,0,2.52,0,3.78,0,.05,0,.1,0,.14l-.48,11.67c-.07,1.61-1.39,2.88-3,2.88h-.02c-.41,0-.71.02-.92.05.04.35.12.78.18,1.12.19,1.05.4,2.24.23,3.46l-.17,3.65c-.07,1.54-1.3,2.78-2.85,2.86-.71.04-1.13.12-1.37.2.03.44.18,1.15.28,1.61.26,1.2.55,2.54.36,3.94l-.22,3.59c-.05.84-.45,1.62-1.11,2.15-.54.43-1.2.67-1.89.67-.15,0-.3-.01-.45-.03-.23-.03-.43-.05-.6-.06-.03.2-.07.5-.07.95,0,.81.09,1.78.19,2.8.34,3.35.77,7.52-2.5,10.03-2.02,1.55-1.83,2.49-1.28,5.26.06.31.12.63.18.95.05.29.06.58.03.87l-.4,3.67c-.09.84-.54,1.61-1.22,2.11-.52.37-1.13.57-1.76.57-.21,0-.42-.02-.62-.07-.24-.05-.44-.08-.59-.1,0,.11,0,.23.02.38.1,1.15.11,2.25.11,3.32,0,.45,0,.89,0,1.34.01.61-.16,1.2-.49,1.71-.56.86-1.53,1.38-2.54,1.38-.09,0-.18,0-.27-.01-.02.08-.05.18-.08.29-.22.91-.36,1.87-.51,2.9-.46,3.09-.97,6.59-3.83,9.73-.41.45-1.06,2-.24,3.13.39.53.59,1.18.58,1.84l-.04,1.85c-.03,1.24-.81,2.34-1.98,2.76-.52.19-1.04.28-1.55.28-.03,0-.06,0-.09,0-.21,2.22-.81,4.39-2.39,5.96-1.88,1.86-1.99,3.5-1.75,6.73.06.53-.01,1.07-.23,1.57-.48,1.1-1.57,1.8-2.75,1.8-.04,0-.09,0-.13,0-.56,0-.92.06-1.13.11,0,.41.1,1.08.17,1.56.18,1.23.38,2.62.05,4.03-.31,1.36-1.53,2.33-2.92,2.33-.01,0-.16,0-.16,0-.55,0-.9.05-1.12.09,0,.41.1,1.05.16,1.5.18,1.26.38,2.69.02,4.13,0,0,0,0,0,0-.34,1.33-1.54,2.26-2.91,2.26h-.02c-.63,0-1.02.05-1.24.1,0,.41.09,1.07.16,1.54.17,1.24.36,2.65.01,4.07-.2.82-.74,1.53-1.49,1.93-.44.24-.93.36-1.42.36-.33,0-.66-.05-.98-.16v.1c-.05,1.78-.15,5.63-3.9,7.07.08,3.16-1.63,5.42-3.02,7.27-1.45,1.92-2.01,2.82-1.73,4.03.18.78.03,1.68-.4,2.35-.53.85-1.57,1.58-2.58,1.81-.95.22-1.17.44-1.72,2.8-.22.93-.46,1.98-.92,3-.19.42-.46.78-.81,1.07-.07.13-.15.69-.21,1.06-.1.68-.22,1.52-.56,2.38-.46,1.17-1.59,1.9-2.79,1.9-.3,0-.6-.04-.9-.14-.29-.09-.52-.15-.71-.19,0,.24.03.56.1.98,1.09,4.48-2.46,6.34-3.98,7.15l-.39.21c-.44.24-.93.36-1.43.36-.12,0-.25,0-.37-.02-.29-.04-.55-.05-.76-.05h-.03c0,.08,0,.16,0,.27.03,1.39.11,5.62-5.34,7.03-.8.21-1.86.64-2.35,1.49-.38.66-.4,1.57-.07,2.71.11.39.15.8.09,1.21l-.45,3.56c-.1.81-.53,1.55-1.19,2.04-.52.39-1.15.59-1.79.59-.17,0-.34-.01-.51-.04-.18-.03-.34-.05-.49-.06.01.14.03.31.07.52.21.91,0,1.87-.61,2.6-.58.7-1.43,1.09-2.31,1.09-.22,0-.43-.02-.65-.07-.14-.02-.26-.04-.37-.05.02.17.05.38.11.63.18.84,0,1.71-.51,2.4-.56.77-1.48,1.25-2.44,1.25-.2,0-.4-.02-.59-.06-.16-.03-.31-.06-.43-.07.02.14.06.31.1.51.22.9,0,1.85-.58,2.58-.57.71-1.49,1.19-2.4,1.19-.21,0-.43-.02-.64-.07-.21-.05-.41-.08-.58-.11h0c.04,3.01-1.6,4.82-2.91,6.27-.21.23-.42.46-.63.71-.78.91-1.71,1.57-2.62,2.22-2.25,1.61-2.27,1.87-1.96,2.84.16.52.18,1.08.05,1.61-.37,1.52-1.46,2.31-2.25,2.74-.09.41-.27.81-.54,1.16-.56.74-1.44,1.18-2.37,1.18h-.32c-.45,0-1.1,0-1.59.05.02.12.05.27.09.45.24.98-.02,2.01-.7,2.75-.57.62-1.38.97-2.21.97-.16,0-.31-.01-.47-.04-.25-.04-.48-.06-.68-.08.02.13.05.29.09.47.22.98-.07,2-.76,2.73-.57.6-1.36.92-2.17.92-.17,0-.35-.02-.53-.05-.24-.04-.46-.07-.65-.08.01.11.03.23.06.38.23.96-.02,1.98-.69,2.72-.58.64-1.39.99-2.23.99-.22,0-.44-.02-.66-.07-.18-.03-.33-.05-.46-.06.01.13.03.29.06.48.24,1.06-.11,2.17-.92,2.9-.56.5-1.28.77-2,.77-.23,0-.45-.03-.67-.08-.17-.03-.31-.05-.43-.06.01.17.04.37.08.63.18.99-.15,1.99-.87,2.69-.56.54-1.31.84-2.08.84-.21,0-.42-.02-.63-.07-.18-.04-.34-.07-.47-.08,0,.18.03.4.08.67.15.9-.12,1.81-.72,2.49-.57.64-1.39,1-2.24,1-.05,0-.1,0-.15,0-.37-.02-.77-.07-1.18-.13-.03,0-.06,0-.1-.01-1.18,1.92-2.89,3.16-4.31,4.18-.99.72-2.02,1.46-2.26,2.05-.82,2.05-2.54,3.11-3.8,3.89-.36.22-.88.54-1.12.76.02.08.05.2.11.36.6,1.52-.14,3.25-1.66,3.87l-.98.4c-.18.07-.36.13-.55.17l-.22.04c-.01.06-.03.12-.05.18-.03.81-.4,1.6-1.04,2.16-1.42,1.22-2.99,1.36-4.04,1.36-.22,0-.45,0-.67-.01-.16,0-.32-.01-.47-.01,0,0-.2,0-.23,0-.23,0-.46-.03-.68-.08-.24-.06-.44-.09-.61-.12.02.12.04.25.08.41.25,1.14-.18,2.31-1.11,3.02-.54.41-1.21.64-1.88.64-.22,0-.43-.02-.64-.07-.23-.05-.42-.08-.58-.11.01.11.03.24.05.38.21.98-.07,2-.78,2.73-.57.59-1.36.91-2.16.91-.23,0-.45-.03-.68-.08-.22-.04-.4-.06-.55-.08.01.14.03.32.06.53.2,1.19-.33,2.38-1.35,3.03-.49.31-1.05.47-1.62.47-.2,0-.41-.02-.61-.06-.22-.04-.4-.07-.54-.09,0,.15.03.33.06.55.13.8-.07,1.62-.56,2.27s-1.21,1.08-2.02,1.18l-3.57.46c-.13.02-.26.02-.38.02h-.01c-2.08,0-5.22,2.81-5.43,4.85-.14,1.42-1.27,2.54-2.69,2.69l-2.75.28c-2.94.22-5.45,2.34-5.67,4.73-.11,1.25-.99,2.3-2.2,2.63-.8.22-1.59.33-2.28.43-1.66.23-2.2.38-2.58.89-.22.3-.49.56-.81.76-1.04.66-2.16.92-3.15,1.15-.27.06-.62.14-.89.22.02.11.05.24.09.4.22.83.07,1.71-.41,2.42-.48.71-1.24,1.19-2.09,1.3l-3.54.48c-.14.02-.27.03-.41.03-.31,0-.62-.05-.91-.14-.18-.06-.34-.1-.48-.14.02.11.04.24.06.38.25,1.31-.4,2.63-1.59,3.24-.42.21-.92.34-1.39.34h0c-.25,0-.51-.03-.76-.1-.23-.06-.43-.1-.59-.13.01.12.03.27.06.43.22,1.32-.47,2.62-1.67,3.19-.15.07-.33.14-.49.19-.58.16-1.21.24-1.91.24-.81,0-1.6-.11-2.31-.2-.54-.07-1.06-.14-1.45-.15-.04.24-.08.62-.07,1.22.04,1.62-1.22,2.98-2.84,3.07l-2.82.15c-.05,0-.11,0-.16,0-.21,0-.41-.02-.61-.06-.32-.07-.57-.1-.77-.12.01.1.03.22.05.35.14.82-.07,1.67-.58,2.33-.51.66-1.27,1.09-2.1,1.16l-3.69.34c-.09,0-.19.01-.28.01-.23,0-.47-.03-.69-.08-.27-.06-.5-.1-.67-.13,0,.13.02.29.05.48.12.82-.11,1.65-.62,2.3-.51.65-1.27,1.05-2.1,1.12l-3.7.31c-.08,0-.17.01-.25.01-.24,0-.48-.03-.72-.09-.27-.07-.5-.11-.67-.13,0,.13.02.29.04.48.1.8-.13,1.61-.63,2.24-.5.63-1.24,1.03-2.05,1.11l-3.67.36c-.1,0-.2.01-.3.01-.26,0-.51-.03-.76-.1-.25-.07-.46-.11-.61-.13,0,.15,0,.34.02.57.13,1.64-1.1,3.08-2.74,3.22l-3.77.32c-.08,0-.17.01-.25.01-.09,0-.19,0-.28-.01l-.62-.06c-.63-.06-1.22-.12-1.71-.12-.26,0-.43.02-.53.04-.04.14-.1.41-.12.88-.06,1.43-1.12,2.61-2.54,2.83l-3.56.55c-.28.05-.61.08-.97.08-.7,0-1.39-.11-2-.21,0,0,0,.02,0,.03.16.8-.02,1.63-.48,2.3-.47.67-1.19,1.12-1.99,1.25l-4.79.76c-.16.03-.31.04-.47.04-.05,0-.1,0-.15,0-.26.65-.61,1.12-.94,1.45-.62.63-1.73,1.38-3.56,1.38-.09,0-.18,0-.27,0-.05,0-.1,0-.16,0-1.35-.12-2.93-.25-4.48-.25-1.65,0-3.09.14-4.39.43-.4.09-.68.17-.87.23.37,1.47-.42,2.99-1.85,3.53-.56.21-1.15.32-1.75.32-.14,0-.29,0-.43-.02-.29-.03-.57-.09-.84-.2-.2-.08-.39-.14-.57-.18.14.53.13,1.09-.02,1.62-.23.77-.75,1.41-1.45,1.79-.11.06-.21.13-.32.21-.62.42-1.66,1.12-3.11,1.12-.82,0-1.62-.23-2.38-.68-.4-.23-.91-.34-1.66-.34-.53,0-1.12.05-1.74.11-.73.07-1.49.14-2.3.14-.45,0-.86-.02-1.26-.07-.2-.02-.39-.03-.56-.03-.04,0-.08,0-.12,0,0,.19.03.48.11.86.18.91-.07,1.86-.68,2.56-.57.65-1.4,1.03-2.26,1.03-.06,0-.13,0-.19,0l-3.42-.22c-.35.06-.72.09-1.11.09-1,0-1.98-.2-2.84-.37-.51-.1-1.04-.21-1.43-.24-.06.24-.12.64-.14,1.25-.04,1.57-1.29,2.84-2.85,2.91l-7.55.37c-.29.04-.6.05-.91.05-.95,0-1.87-.16-2.69-.29-.64-.11-1.25-.21-1.69-.21-.03,0-.07,0-.09,0-.07.19-.19.57-.25,1.28-.13,1.51-1.36,2.69-2.88,2.74l-6.85.25c-1.33,0-2.56.03-3.8.05-1.49.02-2.98.05-4.46.05-1.66,0-3.11-.03-4.45-.09-.09,0-.17,0-.25,0-.1,0-.19,0-.27,0,0,.15,0,.35.02.63.06.82-.21,1.62-.76,2.24-.55.61-1.32.97-2.14,1l-3.91.12h-2.49s-6.15,0-6.15,0c-3.03,0-6.61,0-10.14.08h-.29c-.46,0-.94-.02-1.42-.04-.39-.02-.79-.04-1.18-.04-.97,0-1.2.13-1.22.15h0s-.19.23-.29,1.06c-.17,1.49-1.42,2.62-2.92,2.65,0,0-5,.09-5.02.09-.7,0-1.37-.24-1.91-.69-.18-.15-.42-.3-1.14-.3-.43,0-.93.05-1.46.11-.34.04-.68.07-1,.1-10.02.77-20.11.87-28.65.87-2.89,0-5.77-.01-8.66-.03-2.88-.01-5.75-.03-8.63-.03-1.98,0-3.95,0-5.92.02-6.64.05-13.27.08-19.91.1l-8.66.03c-.17.02-.34.03-.51.03Zm-12.51-193.85c.21-.03.43-.06.65-.1.63-.1,1.28-.21,1.96-.21,52.95.07,106.03.08,155.51.08h63.08c.3,0,.61-.02.91-.03.38-.02.77-.03,1.15-.03.46,0,.87.02,1.25.06.17.02.33.03.47.03,0-.14-.02-.32-.05-.54-.16-.71-.06-1.46.3-2.1.53-.97,1.55-1.55,2.63-1.55.07,0,.13,0,.2,0-.09-5.91-.1-11.4-.03-16.8,0-.04,0-.07,0-.11-.05,0-.09,0-.14,0-.71,0-1.4-.25-1.94-.72-.64-.54-1.02-1.33-1.05-2.16l-.3-7.48c-.19-1.36.07-2.69.3-3.87.09-.47.22-1.12.25-1.55-.23-.06-.62-.12-1.23-.13-.03,0-.07,0-.1,0-1.22,0-2.33-.74-2.79-1.9h0c-.18-.46-.24-.94-.19-1.4.43-6.85-2.1-7.68-4.96-7.97-.95-.1-1.8-.64-2.28-1.47l-.07-.12c-.35-.59-.48-1.29-.38-1.97.04-.23.05-.42.06-.58-.11.01-.25.03-.41.07-.19.04-.39.06-.58.06-.69,0-1.37-.24-1.91-.69l-.12-.1c-.81-.67-1.21-1.71-1.06-2.74.03-.2.04-.37.05-.51-.18.01-.38.04-.6.08-.18.03-.36.05-.55.05-.5,0-.99-.12-1.43-.36-1.07-.58-1.71-1.76-1.59-2.96.03-.32.04-.55.03-.71-.09,0-.19-.01-.32-.01h-.11c-.14,0-.29.01-.45.02-.33.02-.67.04-1,.04-3.81,0-4.88-2.65-5.17-3.84-.06,0-2.1,0-2.1,0-1.8,0-3.6.01-5.4.03l-2.72.02-41.82-.2c-1.65,0-2.98-1.34-2.99-2.99,0-3.91,0-7.82,0-11.73.02-9.72.04-19.77-.22-29.63-.06-2.11.11-4.77,1.94-6.65,1.81-1.86,4.4-2.11,6.94-2.11,32.04.06,66.33.08,111.24.08,18.18,0,89-.01,89-.01,1.02,0,2.05-.02,3.07-.03,1.05-.02,2.11-.03,3.16-.03.92,0,1.84.01,2.76.05.04-1.55,1.27-2.82,2.83-2.91,1.04-.06,1.91-.75,3.25-1.86,1.18-.98,2.51-2.1,4.29-2.75.33-.12.68-.18,1.02-.18.42,0,.83.09,1.22.26.25.11.38.12.43.12.18,0,.7-.21,1.73-2.19l.06-.11c.89-1.7,2.37-2.73,3.57-3.56,1.77-1.22,1.75-1.27,1.49-2.06-.12-.37-.18-.76-.15-1.14l.46-7.58c.05-.81.43-1.57,1.05-2.1.54-.46,1.24-.72,1.95-.72.1,0,.2,0,.29.01.21.02.41.03.6.03.03,0,.06,0,.09,0,0-.4-.06-.94-.1-1.31-.06-.59-.12-1.2-.12-1.82.05-111.9.05-225.67.04-335.69v-29.22c0-.91-.02-1.82-.04-2.73-.04-1.94-.08-3.94.05-5.97.01-.17.01-.31.01-.42-.04,0-.07,0-.12,0-.16,0-.34,0-.52.03-.09,0-.18.01-.27.01-.72,0-1.42-.26-1.97-.74-.62-.54-.99-1.3-1.02-2.12l-.17-3.62c-.24-1.31-.05-2.6.11-3.75.06-.45.15-1.07.17-1.48-.2-.03-.5-.07-.93-.07-.12,0-.43,0-.46,0-.86,0-1.68-.37-2.25-1.02-.64-.73-.9-1.73-.67-2.67.04-.15.06-.29.08-.41-.19.02-.4.05-.63.09-.18.03-.37.05-.55.05-.62,0-1.23-.19-1.73-.55-1.01-.7-1.51-1.97-1.2-3.2.04-.18.07-.33.09-.45-.19-.03-.44-.05-.79-.05-.12,0-.27.03-.43.06-.4.06-.89.13-1.43.13-2.08,0-3.69-1.1-4.41-3.03-.48-1.29-.8-1.29-.94-1.29-.57,0-1.48.29-2.35.56-.62.2-1.26.4-1.94.56-.22.05-.46.08-.69.08,0,0-173.58.02-217.91.02h-58.29c-50.36,0-100.71-.03-151.07-.05l-67.68-.03c-.5,0-.98-.12-1.42-.36-.64-.35-1.3-.5-2.14-.5-.94,0-1.98.2-3.09.41-.15.03-.31.06-.46.09-.01.35-.08.72-.23,1.1-.29.74-1.12,2.02-3.37,2.22-1.83.17-3.12,1.3-5.08,3.14-1.01.95-2.06,1.93-3.32,2.78-2.06,1.38-1.99,1.64-1.76,2.59.18.72.08,1.47-.27,2.13-.53.99-1.56,1.6-2.65,1.6-.17,0-.34-.01-.51-.04-.25-.04-.45-.06-.6-.07-.04.46-.03,1.12-.02,1.57,0,.27,0,.55,0,.81-.02,18-.03,36-.04,54-.03,37.98-.05,75.95-.12,113.93,0,.98.03,1.8.05,2.5.08,2.27.14,4.06-1.27,5.52-1.53,1.58-3.66,1.58-7.19,1.58h-1.34c-15.9.02-31.81.02-47.71.02h-38.25c-.32,0-.64-.01-.96-.02-.27,0-.54-.01-.81-.01-.23,0-.4,0-.54.01,0,.12,0,.26.02.44.07.8-.18,1.61-.7,2.22-.52.62-1.27.99-2.08,1.05,0,0-3.05.21-3.09.21-3.39.11-4.86,1.6-5.05,5.13-.03.47-.16.92-.39,1.33-.99,1.72-.71,3.5-.17,6.27.29,1.52.6,3.09.6,4.78-.08,126.11-.05,222.78.11,313.43,0,1.2-.39,2.22-.7,3.04-.08.21-.19.49-.25.71.56.53.91,1.26.95,2.03.17,3.11,1.9,4.9,4.74,4.9.28,0,.58-.02.88-.05.12-.01.24-.02.36-.02,0,0,1.74.02,1.74.02,1.42.01,2.64,1.03,2.91,2.42.08.39.11.77.09,1.13h190.95c.29,0,.57,0,.86-.02.36-.01.72-.02,1.07-.02.53,0,1,.03,1.44.08.02,0,.04,0,.06,0,.01-.15.02-.34.02-.58,0-1.52,1.14-2.81,2.66-2.98l2.83-.32c.11-.01.23-.02.34-.02.17,0,.35.01.52.04.29.05.57.08.84.08,1.56,0,2.52-.83,3.05-1.52,1.13-1.47,1.44-3.71.83-6.01-.07-.25-.1-.52-.1-.78l.07-18.85c.05-14.82.1-29.65.17-44.47.04-8.8.11-17.6.18-26.39l.09-12.01c0-1.02.53-1.97,1.39-2.51.49-.31,1.05-.47,1.61-.47.43,0,.86.09,1.26.28.45.21.83.44,1.17.69,1.21-.99,2.87-1.47,5.06-1.47,18.91.07,38.51.11,59.97.11,18.8,0,37.6-.03,56.4-.07,1.67,0,4.03.19,5.67,1.86,1.64,1.66,1.82,3.96,1.8,5.77-.14,10.31-.13,20.8-.12,30.95,0,3.82,0,7.63,0,11.45,0,1.65-1.33,2.99-2.98,3l-38.77.24h-.54c-.99,0-1.99,0-2.98.01-1.01,0-2.02.02-3.03.02-2.13,0-3.78-.04-5.35-.12-.08,0-.26,0-.27,0-.01.17-.02.4,0,.73.09,1.14-.48,2.26-1.52,2.85-.26.15-.53.25-.81.31-.52.12-1.07.18-1.68.18-.83,0-1.64-.11-2.36-.21-.58-.08-1.12-.16-1.53-.16h-.02c-.05.22-.11.6-.12,1.22-.01,1.11-.63,2.12-1.61,2.63-.2.1-.43.2-.64.25-.58.15-1.2.23-1.9.23-.74,0-1.47-.08-2.12-.16-.54-.06-1.04-.12-1.44-.12h-.04c-.04.24-.07.62-.04,1.22.02.45-.06.89-.23,1.29.12.53.1,1.08-.07,1.61-.68,2.08-2.38,3.08-3.51,3.74-.24.14-.58.34-.79.49.2.9-.01,1.84-.59,2.55-.57.71-1.43,1.11-2.33,1.11h-.04c-2.59,0-3.18.96-4.45,4.75-.88,2.63-1.95,5.85-5,7.66.02.06.04.12.07.18.98,2.15.91,4.25.85,5.94-.01.4-.03.79-.02,1.19.03,6.44.03,13.14-.01,20.48,0,.5.02.85.05,1.08.06,0,.12-.02.2-.03.24-.06.49-.09.74-.09.58,0,1.15.17,1.65.49.94.62,1.45,1.7,1.34,2.8,0,.02,0,.04,0,.06Z"/>
      <path class="cls-4" d="m860.85,720.77c-1.46,1.22-1.03,3.11-1.63,4.64-4.07-1.27-5.04.68-4.45,4.26.66,2.49-1.21,3.22-2.86,4.11-2.47-.31-4.23.2-4.17,3.25.04,2.08-.47,3.39-3.09,4.07-3.68.95-5.76,3.73-4.54,7.94-.15,1.19-.3,2.37-.45,3.56-3.36-.58-4.46.97-3.85,4.11h0c-3.45-.64-4.53.92-3.84,4.13,0,0-.01.02-.01.02-3.46-.7-4.63.77-3.84,4.08,0,0-.06.07-.06.07-2.41-.52-4.26-.36-4.21,2.87.03,2.18-1.42,3.34-2.82,4.97-1.92,2.23-6.59,3.38-5.17,7.91-.32,1.29-2.8.82-2.26,2.79-2.81.02-5.78-.13-4.7,4.22,0,0,0,0,0,0-3.18-.51-4.75.59-3.99,4.01,0,0,0,0,0,0-3.2-.57-4.72.58-4.04,3.96,0,0,0,0,0,0-3.31-.63-4.59.75-4,4.01,0,0,0,0,0,0-3.35-.66-4.56.8-3.98,4.02,0,0,0,0,0,0-3.42-.74-4.51.83-3.99,4.01,0,0,0,0,0,0-1.29-.07-3-.74-3.66.67-1.58,3.4-5.97,4.41-7.13,7.29-1.18,2.93-6.55,2.78-4.81,7.22-.33.13-.66.27-.99.4-.34.07-.68.13-1.02.2-1.58-.08-1.46,1.08-1.53,2.1-.21.22-.25.47-.13.75-1.03.89-2.28.58-3.47.62-3.28-.76-4.93.23-4.15,3.85,0,0-.03.03-.03.03-3.26-.74-4.73.44-4.13,3.84,0,0,0,0,0,0-3.17-.63-4.68.52-4.12,3.87h0c-3.23-.67-4.58.62-4.05,3.88-1.19.15-2.38.31-3.57.46-3.63-.01-8.06,3.96-8.42,7.55-.92.09-1.84.18-2.76.28-4.35.33-8.01,3.59-8.35,7.45-2.24.61-4.87.21-6.5,2.44-2.09,1.33-6.49.27-5.24,5.06-1.18.16-2.36.32-3.54.48-3.4-1.08-4.99-.05-4.28,3.66,0,0-.04.02-.04.02-3.21-.84-4.83.17-4.25,3.69,0,0-.02,0-.02,0-2.92.82-8.09-2.76-7.92,4.07-.94.05-1.88.1-2.81.15-3.02-.63-4.91.06-4.28,3.67-1.23.11-2.46.23-3.69.34-3.14-.74-4.78.24-4.28,3.71-1.23.1-2.47.2-3.7.31-3.1-.77-4.76.18-4.33,3.63-1.22.12-2.45.24-3.67.36-3.1-.81-4.6.32-4.35,3.58-1.26.11-2.51.21-3.77.32-2.93-.27-6.07-.92-6.27,3.58-1.19.18-2.37.37-3.56.55-2.29.4-6.61-2.42-5.45,3.44-1.6.25-3.19.51-4.79.76-1.6-1.83-2.57-1.68-2.79.87.04,1.38-.66,2.01-2.01,1.96-3.27-.3-6.56-.47-9.79.25-1.97.44-3.91,1.12-3.13,3.88-.27.1-.56.14-.85.12-1.43-.56-2.91-.7-4.3-.05-.97.45-2.67.06-2.77,1.53-.1,1.46,1.94.86,2.51,1.9-.89.48-1.65,1.43-2.84.72-2.63-1.51-5.46-.26-8.18-.56-3.38-.37-4.47,1.27-3.84,4.4-1.27-.08-2.55-.16-3.82-.24-2.95.8-8.1-3.39-8.3,3.66-2.56.12-5.11.25-7.67.37-3.1.45-7.8-2.86-8.36,3.56-2.28.08-4.56.17-6.85.25-4.16.02-8.32.19-12.46,0-2.98-.14-3.84,1.25-3.63,3.86-1.3.04-2.61.08-3.91.12-6.25.01-12.5-.04-18.74.08-2.98.06-6.75-1.07-7.32,3.79l-4.97.09c-1.75-1.44-3.85-.91-5.75-.77-17.21,1.31-34.44.69-51.66.83-9.6.08-19.2.09-28.8.13-.19.05-.39.04-.58-.02-1.1-.02-2.21-.04-3.31-.06-6.24-.13-12.49-.27-18.73-.4.32-2.65-.67-3.89-3.52-3.76-4.22.18-8.44.09-12.66.11,0,0,0,0,0,0,.11-2.49-.47-4.05-3.57-3.95-5.48.19-10.97,0-16.46-.04-.98-.02-1.95-.04-2.93-.07.21-2.85-.89-4.23-3.97-3.95-2.75.25-5.54.16-8.31.22-2.55-.12-5.1-.24-7.65-.37.43-2.72-.53-4.08-3.47-3.89-1.3.08-3.19.25-3.83-.48-3.72-4.2-8.41-3.57-13.12-3.16l-6.54.47c.26-3.35-.43-5.68-4.59-4.26-1.18-.05-2.37-.1-3.55-.15-.03-1.61,2.29-1.14,2.47-3.09-3.91-.6-7.73-3.27-11.47.57-1.31.48-1.99-.57-2.86-1.18-1.82-2.99-4.45-4.27-7.93-3.79-.39-.15-.78-.29-1.16-.44-1.08-3.63-3.98-3.63-6.95-3.51-.3-.09-.6-.18-.91-.26-.98-3.23-3.14-4.33-6.36-3.52-1.22-.13-2.45-.26-3.67-.39-.18-6.4-5.04-3.17-7.99-3.89l-.04-.02c-.06-6.64-5.07-3.18-8.02-3.94h-.02c.1-6.76-5.05-3.17-7.94-4.03h-.03c.54-3.56-1.21-4.42-4.31-3.7-.94-.04-1.88-.08-2.82-.12.36-3.35-.88-4.83-4.34-3.7-1.19-.15-2.38-.29-3.56-.44-.85-5.15-5.47-8.13-12.15-7.82,0,0,0,0,0,0,.78-3.86-1.13-4.52-4.33-3.64-.87-.01-1.74-.03-2.61-.04.04-1.58,2.36-1.11,2.5-2.8-2.31-.76-6-.9-6.63-2.36-2.65-6.22-10.54-4.96-13.6-10.24-.18-.31-1.56.09-2.38.15l.14-.21s-.16.2-.16.2c.52-3.35-.74-4.77-4.17-3.85-1.18-.15-2.37-.3-3.55-.46.48-3.25-.87-4.55-4.1-3.86h0c.56-3.34-.88-4.55-4.11-3.88,0,0,0,0,0,0,.65-3.49-.92-4.58-4.17-3.86-1.18-.17-2.36-.35-3.54-.52.4-2.14.27-4-2.6-3.85-1.84.1-2.75-1.49-4.22-2.02-.21-.21-.36-.45-.45-.73,1.16-5.12-4.4-5.48-6.07-8.58-.28.56-.55,1.12-.83,1.68-1.63-1.45-3.26-2.91-4.89-4.36-.07-2.79.12-5.81-4.25-4.69l.18-.18s-.19.17-.19.17c.59-3.24-.59-4.72-3.98-3.99l.18-.18s-.19.17-.19.17c.62-3.25-.59-4.7-3.96-4.02,0,0,0,0,0,0,.63-3.29-.7-4.63-4-3.99,0,0,0,0,0,0,.68-3.38-.76-4.59-4.03-3.94l.17-.19s-.19.18-.19.18c.76-3.39-.71-4.58-3.96-4.01,0,0,0,0,0,0,1.03-4.62-2.02-4.26-4.94-4.06-1.8-2.84-5.4-3.97-6.85-7.15,0-1.45.68-3.16-.49-4.25-3.15-2.93-7.08-5.08-7.03-10.4.02-1.88-2.38-.97-3.75-1.03,0,0-.03-.04-.03-.05.78-3.29-.41-4.75-3.84-4.12,0,0,0,0,0,0,.66-3.2-.54-4.66-3.87-4.13h0c.62-3.14-.51-4.64-3.82-4.09-.16-1.18-.33-2.37-.49-3.55.9-3.42-.53-4.67-3.86-4.17,0,0,0,0,0,0,.99-3.37-.68-4.4-3.72-4.22-.07-.94-.14-1.87-.2-2.81-.42-4.42-3.62-8-7.45-8.34-.57-1.73-.24-3.91-2.42-4.84-.41-1.92-.25-4.29-1.34-5.65-2.27-2.84-3.17-6.6-5.59-8.98-1.31-1.29-2.25-2.21-2.07-3.81.44-4.09-1.87-4.74-5.11-4.44-.31-.35-.62-.7-.94-1.04,1.28-1.29,2.49-2.61,1.71-4.65-.76-1.97-2.51-.95-3.82-1.24,0,0,0,0,0,0,.6-2.98-.07-4.86-3.65-4.24-.11-1.24-.23-2.49-.34-3.73.69-3.09-.22-4.79-3.71-4.25-.1-1.24-.21-2.49-.31-3.73.7-3.04-.14-4.78-3.62-4.3-.11-1.25-.23-2.49-.34-3.74.79-3.1-.28-4.63-3.6-4.29-.12-1.26-.23-2.52-.35-3.78.74-3.12-.27-5.23-3.49-6.08-.12-.39-.24-.78-.36-1.18.25-3.79,1.4-7.67-.99-11.29-1.22.56-.98,2.69-2.8,2.32,0-.6-.02-1.21-.03-1.81,1.52-6.99,1.16-7.8-3.6-8.28-.71-1.26-.65-2.63-.53-4,.8-3.07-.72-4.82-3.38-5.91,0-.51-.01-1.03-.02-1.54.04-3.09.02-6.18.13-9.26.11-3.03-1.33-4.15-4.21-3.72-.04-.95-.07-1.91-.11-2.86.82-2.87.06-5.8.31-8.68.28-3.25-1.38-3.92-4.1-3.49,0,0-.01-.05-.01-.05.05-2.78-.06-5.57.18-8.33.27-3.16-1.18-4.14-4.04-3.77,0,0,0,0,0,0,.01-4.06-.14-8.13.09-12.18.18-3.07-1.14-4.13-3.96-3.93-.02-.98-.04-1.95-.06-2.93-.01-4.22-.17-8.44.02-12.65.13-2.99-1.41-3.62-3.86-3.47-.04-1.31-.08-2.61-.12-3.92-.03-7.96-.17-15.92-.04-23.87.05-2.97-1.68-3.15-3.79-3.23-.07-5.28-.14-10.56-.21-15.84-.01-19.4-.03-38.8-.04-58.2.11-6.59.22-13.17.33-19.76,2.15.06,3.83-.21,3.75-3.11-.16-5.71-.08-11.43-.09-17.14.1-3.59.2-7.18.3-10.77,2.23.14,3.9-.19,3.81-3.12-.14-4.31,0-8.64.02-12.96h0c2.4.08,4.1-.4,3.93-3.46-.21-3.9-.11-7.81-.14-11.72,0,0,0-.02,0-.02,2.81.38,4.28-.47,4.11-3.68-.22-4.08-.04-8.18-.03-12.27.07-1.27.14-2.54.21-3.81,3.39.29,5.09-.91,4.2-4.59-.31-1.27-.61-2.61.93-3.49,2.52-1.46,2.44-4.02,2.68-6.47.14-1.44-.54-3.37.85-4.21,3.35-2.02,2.61-5.35,3.14-8.29.23-1.26-.48-3.02.85-3.69,3.42-1.73,2.53-5,3.14-7.74.32-1.41-.27-2.95.84-4.27,3.98-4.69,4.55-10.72,6.26-16.3.06-.97.11-1.94.17-2.9,6.48-.15,3.22-5.04,3.9-8.02,0,0,0-.02,0-.02,6.65-.02,3.22-5.05,3.97-8,0,0,0-.01,0-.01,6.71.03,3.23-5.04,4-7.98,0,0,0-.02,0-.02,2.56.29,4.15-.38,4.03-3.42-.04-1.17-.52-3.1,1.17-3.43,3.56-.7,2.64-3.15,2.5-5.38,0,0,.01-.03.01-.03,5.17-.25,3.97-3.95,3.82-7.07,0,0,.07-.1.07-.1,7.39.53,3.27-4.92,4.07-7.82,0,0,.03-.04.03-.04,2.97.36,5.55.4,3.14-3.75.23-1.24.46-2.48.68-3.72,3.75-.42,7-4.09,7.37-8.32.18-1.23.36-2.47.54-3.7,3.91-.57,7.35-4.37,7.49-8.26.08-.95.15-1.9.23-2.85,3.56-.41,7.56-4.73,7.64-8.26,0,0,0,0,0,0,3.37.55,4.7-.79,3.89-4.15.16-1.19.31-2.38.47-3.57,1.3.08,2.96.63,3.59-.85,1.44-3.37,5.04-4.76,6.81-7.49,2.24-3.45,6.67-5.71,6.47-10.65,3.1.19,2.27-3.05,3.75-4.28q6.44.01,6.29-7.68s.04-.06.04-.06c3.01.36,4.72-.57,3.95-3.97,0,0,.03-.04.03-.04,3.13.5,4.64-.62,3.97-3.94,0,0,.05-.05.05-.05,3.21.58,4.56-.69,3.96-3.94,0,0,.05-.05.05-.05,3.34.69,4.4-.88,3.93-3.97,0,0,.05-.04.05-.04,3.34.74,4.4-.84,3.98-3.91,0,0,.07-.05.07-.05q7.64.11,7.66-6.3c3.07-.59,4.4-3.71,7.08-4.87,4.41.73,5.45-3.8,7.76-5.8,1.4-1.22,6.23-1.92,4.34-6.08,0,0,.02-.02.02-.02,2.83-.93,8.22,2.7,7.66-4.29,0,0,.04-.03.04-.03,3.36.84,4.62-.56,4.12-3.84,0,0,0,0,0,0,3.33.81,4.54-.66,4.13-3.85,0,0,.01,0,.01,0,3.24.76,4.51-.61,4.08-3.8.97-.07,1.94-.14,2.91-.21,1.57-.15,4.02.79,4.44-1.03.7-3.04,2.84-2.69,4.84-3.09,2.75-.55,4.7-2.71,6.38-4.44,2.83-2.91,5.71-5.62,9.6-6.4,2.96-.59,2.9-2.08,2.6-4.19.17-.2.38-.33.64-.39,6.19,1.04,10.86-2.08,11.36-7.6.36-.3.73-.59,1.09-.89,1.5,1.29,3.08,2.87,5.19,1.72,1.75-.96.99-2.89.94-4.47,1.23-.13,2.47-.26,3.7-.38,3.04.63,4.88-.12,4.25-3.71,1.23-.11,2.47-.22,3.7-.33,3.08.72,4.84-.13,4.3-3.66,1.25-.1,2.49-.2,3.74-.3,3-.69,8.1,2.88,8.06-3.97,0,0,0,0,0,0,7.62.49,11.8-2.02,12.32-7.4,4.05.29,7.39-1.42,10.53-3.71,5.31.28,10.63.72,15.67-1.62-.51-1.44-2.2-.42-2.45-2,1.5-.07,2.95-.15,4.39-.21,1.49-.06,3.03.12,4.47-.18,2.25-.47,5.31-.19,4.99-3.98.7-.33,1.41-.66,2.11-.99,5,2.21,8.9.98,9.76-3.08,0,0,.07-.02.07-.02,2.14.08,4.3.33,6.42.17,1.85-.14,4.65.98,5.34-1.24.95-3.07,3.04-2.47,5.04-2.57,2.48-.13,4.98-.32,7.45-.13,3.14.25,4.2-1.16,3.9-4.05,1.24-.07,2.48-.14,3.72-.22,2.91-.24,7.41,2.99,7.47-3.44,1.32-.05,2.65-.11,3.97-.16,5.64-.03,11.29-.15,16.92-.04,2.91.06,3.3-1.53,3.1-3.79,4.91-.12,9.83-.23,14.74-.35,7.03,0,14.05-.09,21.08.06,2.9.06,3.16-1.6,3.16-3.73,20.59,0,41.19,0,61.78,0-.03,2.22.37,3.8,3.27,3.73,6.98-.16,13.97-.06,20.96-.06,2.61.06,5.22.12,7.82.18-.09,2.49.63,4.03,3.6,3.85,3.91-.23,7.84-.16,11.76-.22,5.19.18,10.37.35,15.56.53.28,6.94,5.37,2.8,8.31,3.6,2.25.08,4.51.16,6.76.25-.27,2.52.37,4.12,3.4,3.91,2.93-.2,5.87-.11,8.81-.14,1.26.07,2.53.14,3.79.21-.13,6.8,4.61,3.11,7.47,3.46.28,0,.55.05.8.18.9,4.06,6.42,5.84,12.05,3.89,0,0,.13.03.13.03-.46,1.86-.01,2.94,2.07,3.57,2.9.88,5.77.71,8.68.56,0,0,.05.03.05.03-.04,4.77,4.02,3.09,6.39,3.99,1.71.65,3.8-.65,5.39,1.34,2.38,2.97,5.6,3.25,9.05,2.03.62.01,1.23.02,1.85.03.72,1.98-2.43,1.48-2.16,3.35,3.31.54,7.6-.25,9.49,2.02,2.8,3.35,5.75,2.27,8.86,2.35,0,0,0,0,0,0,0,6.76,5.07,3.24,8.05,3.96,0,0,0,0,0,0-.09,6.91,5.07,3.24,8.04,3.99,1.24.11,2.48.23,3.73.34-.67,3.59,1.23,4.26,4.21,3.69,0,0,0,0,0,0-.46,2.87.61,4.28,3.66,4.11,1.05-.06,2.6-.35,3.06.91,1.51,4.17,4.61,3.18,7.63,2.58.24.09.45.22.62.41-.13,6.34,4.21,3.78,7.32,3.67.27.02.49.14.67.34-1.29,5.18,4.38,3.63,5.9,6.09,1.35,1.7,3.33.64,4.95,1.13.39,3.81,4.69,7.38,9.27,7.7.93.07,1.86.13,2.79.2.57,3.7,4.99,7.65,8.44,7.56,1.17.17,2.35.33,3.52.5-.42,2.73.47,4.36,3.51,4.21,0,0,.33.06.33.06-.12,3.18,1.49,4.13,4.4,3.43,0,0,.01.01.01.01-.68,3.5.84,4.64,4.15,3.87,1.19.16,2.38.31,3.57.47-1.06,4.34,1.42,6.03,5.1,6.84.92.17,1.85.35,2.77.52-.19,3.02.33,5.35,4.24,4.47,1.85,2.38,4.43,3.69,7.1,4.87.16,2.82-2.12,7.36,4.15,5.84,0,0,.05.05.05.05-.66,3.34.5,4.8,3.99,3.9,0,0,.07.07.07.07-.83,3.45.55,4.73,3.95,4.01,4.11-1.52,3.15,4.92,6.71,4.27.52,3.41,5.75,3.56,5.3,7.64-.78,3.38.49,4.77,3.93,4.06,0,0,.04.05.04.05-1.22,5.83,3.17,3.78,5.83,4.15.67,3.02,5.29,3.32,4.88,7.09-.83,4.69,4.27,5.41,6.09,8.4.6.99,1.95,5.68,5.78,3.69.16,1.18.31,2.37.47,3.55-.78,3.3.32,4.86,3.86,4.14,0,0,.02.03.02.03-.79,3.33.57,4.64,3.87,4.11,0,0,0,0,0,0-.79,3.3.61,4.57,3.84,4.15,0,0,0,.02,0,.02.19,3.18-.93,6.23,3.17,8.78,1.84,1.14,5.82,3.77,5.13,8.2-.37,2.41,2.26,1.66,3.72,1.97,0,0,0,0,0,0,.01,1.3-.44,2.73.76,3.74,3.04,2.55,4.73,6.13,6.07,9.57,1.03,2.64,2.23,2.85,4.36,2.53.21.18.34.4.41.66-1.1,6.08,2,10.92,7.36,11.5.07.93.14,1.86.21,2.78-.49,2.88-.11,5.02,3.65,4.29.13,1.23.25,2.45.38,3.68-.69,3.07.13,4.84,3.67,4.29.1,1.24.21,2.48.31,3.72-.73,3.11.18,4.81,3.68,4.28.11,1.24.22,2.47.32,3.71-.77,3.12.25,4.72,3.65,4.31.12,1.23.23,2.46.35,3.69-.84,3.1.21,4.66,3.56,4.34.13,1.24.26,2.48.39,3.71-1.87,7.23,3.14,11.11,7.45,15.34.13,1.27.27,2.54.4,3.82-1.08,3.45-1.6,6.7,3.03,7.99.35,1.68.02,3.45,1.48,4.95,2.72,2.77,3.18,6.45,3.46,10.13.5,1.69-2.15,5.66,2.92,4.02.18,2.5.36,4.99.54,7.49-.84,2.98-.52,5.08,3.38,4.52.16,2.53.32,5.06.48,7.6-.06,2.79.02,5.59-.21,8.36-.27,3.1,1.1,4.21,4.01,3.89.06,1.25.13,2.51.19,3.76.35,2.85-2.89,7.4,3.49,7.4.11,2.6.21,5.2.32,7.8.04,6.98.19,13.96.07,20.94-.06,3.09,1.89,2.97,3.91,3.1h0c.03,7.96.16,15.92.03,23.88-.05,2.95,1.61,3.21,3.77,3.23.05,3.98.1,7.95.15,11.93-.36,13.05-.34,26.11.16,39.16.04.23.03.45-.03.67-.58,4.74-.52,9.47-.06,14.21-.06,3.95-.12,7.91-.18,11.86-2.13.04-3.85.23-3.8,3.21.13,8.3,0,16.61-.03,24.91-.05,2.29-.1,4.59-.15,6.88-2.47-.14-4.04.47-3.88,3.49.22,4.23.1,8.49.13,12.73-.16,3.89-.32,7.78-.48,11.66-6.35-.03-3.03,4.56-3.51,7.34-.06,1.27-.12,2.54-.18,3.81-7.01.35-3.06,5.33-3.56,8.43-.07,1.24-.15,2.48-.22,3.71-2.98-.45-4.09.72-4.13,3.83-.04,3.58,1.54,8.43-1.13,10.48-3.85,2.96-2.84,5.79-2.22,9.13-.13,1.22-.26,2.45-.4,3.67-2.87-.61-4.48.24-4.18,3.49.13,1.47.08,2.96.1,4.45,0,0-.02.03-.02.03-1.96-.23-2.77.48-3.28,2.57-.93,3.81-.57,7.93-3.65,11.32-1.26,1.39-2.22,4.49-.44,6.92-.01.62-.03,1.24-.04,1.85-1.96.71-1.49-2.42-3.55-2.14.04,3.2.34,7.18-1.57,9.07-2.96,2.93-2.87,5.85-2.62,9.24h0c-6.75,0-3.28,5.04-3.97,8.03,0,0,0,0,0,0-6.81-.08-3.26,5.04-4.01,7.99,0,0,0,0,0,0-6.74-.05-3.28,5.02-4.01,7.99,0,0,0,0,0,0-2.36-1.07-3.85-.71-3.96,2.25-.09,2.28.17,4.79-3.18,5.23-.36.05-.84,1.44-.77,2.16.51,4.9-5.85,7.2-4.64,12.34.03.13-.44.49-.73.55-4.09.93-3.49,4.78-4.7,7.5Zm-231.89-34.37c.46-3.21-.99-4.37-4.07-3.8l-.03-.02c.26-2.54-.45-4.09-3.44-4.02-1.3.03-3.3.49-3.67-1.6-.42-2.37-2.11-2.17-3.75-2.18-3.13-.01-6.26.03-9.38.05-13.93-.07-27.86-.13-41.79-.2-.03-13.81.16-27.63-.21-41.43-.13-4.81,1.55-5.69,5.94-5.69,66.73.12,133.45.08,200.18.07,3,0,5.99-.13,8.98-.02,2.18.08,3.03-.89,3.01-2.92,3.59-.2,5.33-3.67,8.4-4.78,3.56,1.58,5.4-2.2,6.1-3.53,1.5-2.88,6.82-3.3,5.24-7.96.15-2.53.31-5.06.46-7.58,5.35.53,3.76-3.51,3.76-6.08.06-121.64.05-243.28.04-364.91,0-2.83-.19-5.68,0-8.49.21-3.01-1.27-3.82-3.88-3.59-.06-1.28-.12-2.57-.18-3.85-.71-2.98,2.84-8.16-4.1-7.91h0c.82-3.52-.79-4.56-4.02-3.96l.14-.21-.16.2c.78-3.08-.56-4.21-3.58-4.23-1.14-.01-2.86.81-3.49-.89-1.92-5.15-5.49-2.8-8.73-2.04-92.06,0-184.13.02-276.19.01-72.92,0-145.84-.05-218.76-.07-3.37-1.81-6.67-.23-10.05.03-3.64.28,1.97,2.67-.94,2.94-4.36.4-6.56,4.24-9.8,6.42-2.43,1.63-3.69,2.96-3,5.79h0c-4.64-.8-4.13,2.49-4.13,5.27-.05,55.98-.06,111.95-.16,167.92-.01,6.88,1.4,6.6-6.76,6.61-28.65.03-57.31.02-85.96.02-2.63,0-5.68-.62-5.28,3.7l-2.98.21c-4.96.16-7.67,2.87-7.95,7.96-2.39,4.18.04,8.36.03,12.54-.07,104.48-.07,208.96.11,313.44,0,1.95-2.28,4.02,0,5.94.28,5.17,3.91,8.26,8.97,7.66.57,0,1.14.01,1.71.02.34,1.75-2.35,1.11-2.1,3.55,2.85,0,5.78,0,8.71,0,62.46,0,124.91,0,187.37,0,1,0,2.01-.11,3,.01,2.78.35,3.46-1.25,3.46-3.55l2.83-.32c5.81,1.02,9.88-4.57,8.14-11.18.08-21.1.14-42.21.24-63.31.06-12.8.18-25.6.27-38.4,2.37,1.1,1.22,3.24,1.23,4.84.08,28.62.05,57.25.05,85.88,0,2.33,0,4.66,0,7.94,2.74-2.72,1.92-5.01,1.93-7.02.06-28.96.07-57.92.01-86.87,0-3.11-.01-5.29,4.31-5.28,38.78.15,77.55.13,116.33.04,3.5,0,4.51,1.14,4.46,4.6-.19,14.14-.1,28.29-.12,42.44-12.92.08-25.85.16-38.77.24-3.91-.01-7.83.12-11.72-.08-3.08-.16-3.53,1.56-3.43,3.95h0c-2.96.75-7.99-2.74-8.05,3.93h-.02c-2.93.79-8.08-2.53-7.77,4.22h0c-1.13.15-2.43-.66-3.41.56.68,1.64,2.08,1.18,3.26,1.27-.79,2.44-5.2,2.16-4.37,5.82-8.89-.11-5.66,10.59-11.69,13.16-1.23.53-1.02,2.41-.46,3.66.88,1.93.55,3.93.56,5.9.03,6.82.02,13.63-.01,20.45-.02,2.74.64,4.69,4,3.97h0c-.32,4.96,3.52,3.04,5.6,3.04,72.86.1,145.72.08,218.58.08,1,0,2.01-.12,2.99-.01,3.23.35,4.17-1.26,3.67-4.16,0,0,0,0,0,0,2.39.4,3.24-.68,3.2-3.01-.09-5.58-.11-11.17-.03-16.75.03-2.28-.75-3.43-3.14-3.15-.1-2.55-.21-5.11-.31-7.66-.56-3.07,3.32-8.17-3.77-8.25h0c.48-7.18-1.89-10.67-7.64-11.25l-.07-.12c.47-3.06-.65-4.54-3.89-3.91l-.12-.1Z"/>
      <path class="cls-3" d="m425.72,932.71c1.1.02,2.21.04,3.31.06,0,0,.28.31.28.31l.3-.28c9.6-.04,19.2-.06,28.8-.13,17.22-.14,34.45.48,51.66-.83,1.89-.14,4-.68,5.75.77.11,2.62-.91,3.69-3.76,3.7-27.51.08-55.03,1.08-82.53-.5-2.15-.12-4.11-.12-3.8-3.09Z"/>
      <path class="cls-3" d="m42.9,279.73c-1.71,5.58-2.28,11.61-6.26,16.3-1.12,1.32-.53,2.85-.84,4.27-.61,2.74.28,6.01-3.14,7.74-1.33.67-.62,2.43-.85,3.69-.53,2.94.2,6.27-3.14,8.29-1.39.84-.7,2.77-.85,4.21-.25,2.44-.16,5.01-2.68,6.47-1.53.88-1.23,2.22-.93,3.49.89,3.67-.82,4.88-4.2,4.59-2.05-4.46-1.38-8.42,2.19-11.85.34-.33.94-.79.88-1.08-1.21-6.24,3.65-10.78,4.63-16.52.94-5.49,4.84-10.34,4.66-16.36,1.7.2.31,2.44,2.28,2.37.46-4.92,5.02-8.45,4.7-13.91-.12-1.94,2.1-1.65,3.56-1.69Zm-14.1,36.93c-.08-.13-.17-.26-.25-.39-.11.11-.32.28-.3.32.1.18.26.33.4.49.05-.14.1-.28.15-.42Z"/>
      <path class="cls-3" d="m3.81,440.59c.01,19.4.03,38.8.04,58.2-2.01.13-2.89-.66-3.05-2.83-1.03-13.38-.92-26.77-.47-40.17.13-3.96.36-7.92.4-11.89.02-2.18.59-3.56,3.08-3.31Z"/>
      <path class="cls-3" d="m933.88,479.89c-.5-13.05-.52-26.1-.16-39.16,2.48-.13,2.86,1.3,2.99,3.44,1,15.74.8,31.48.09,47.22-.1,2.18-.51,3.58-3.01,3.37-.46-4.74-.52-9.48.06-14.21.1-.06.29-.16.28-.19-.06-.17-.16-.32-.25-.48Z"/>
      <path class="cls-3" d="m860.85,720.77c1.22-2.72.62-6.57,4.7-7.5.28-.06.76-.42.73-.55-1.21-5.14,5.15-7.44,4.64-12.34-.08-.72.41-2.11.77-2.16,3.35-.44,3.09-2.95,3.18-5.23.12-2.96,1.61-3.32,3.96-2.25-.04,3.11-1.28,5.66-2.45,8.51-2.16,5.28-6.85,8.89-8.14,14.28-.82,3.43-4.66,4.23-5.51,7.43-.03.1-1.22-.12-1.88-.19Z"/>
      <path class="cls-3" d="m226.77,69.65c.3,2.11.36,3.6-2.6,4.19-3.89.78-6.77,3.49-9.6,6.4-1.68,1.73-3.63,3.89-6.38,4.44-2,.4-4.14.05-4.84,3.09-.42,1.82-2.87.88-4.44,1.03-.36-4.51,4.25-6.64,6.32-7.26,4.65-1.39,6.84-5.39,10.33-7.16,3.45-1.75,6.95-4.48,11.21-4.73Z"/>
      <path class="cls-3" d="m929.79,534.75c.03-8.3.15-16.61.03-24.91-.05-2.98,1.68-3.16,3.8-3.21-.05,8.21-.16,16.42-.1,24.63.02,2.74-1.6,3.28-3.73,3.49Z"/>
      <path class="cls-3" d="m363.76,14.67c.3,2.89-.76,4.29-3.9,4.05-2.46-.19-4.97,0-7.45.13-2.01.1-4.09-.51-5.04,2.57-.69,2.22-3.48,1.1-5.34,1.24-2.12.16-4.28-.1-6.42-.17,1.54-3.95,4.72-4.21,8.25-3.67.46.88.79.58,1.08-.12,5.16-6.53,12.44-3.17,18.82-4.02Z"/>
      <path class="cls-3" d="m4.06,514.62c2.11.07,3.84.26,3.79,3.23-.13,7.95.01,15.91.04,23.87-2.12-.07-3.75-.31-3.71-3.26.12-7.94-.06-15.89-.13-23.84Z"/>
      <path class="cls-3" d="m933.58,428.8c-2.16-.02-3.82-.28-3.77-3.23.13-7.96,0-15.92-.03-23.89,2.13.1,3.73.44,3.69,3.32-.12,7.93.06,15.86.11,23.79Z"/>
      <path class="cls-3" d="m520.78,932.51c.57-4.86,4.34-3.73,7.32-3.79,6.25-.12,12.49-.06,18.74-.08,0,2.15-.24,3.77-3.2,3.73-7.62-.12-15.24.07-22.86.14Z"/>
      <path class="cls-3" d="m61.81,697.74c3.24-.3,5.55.35,5.11,4.44-.17,1.6.76,2.52,2.07,3.81,2.42,2.38,3.32,6.14,5.59,8.98,1.09,1.37.93,3.74,1.34,5.65-1.96-1.32-5.14-2.29-5.66-4.03-1.97-6.72-8.44-11.35-8.46-18.84Z"/>
      <path class="cls-3" d="m323.68,26.57c.32,3.79-2.74,3.51-4.99,3.98-1.44.3-2.98.12-4.47.18-1.45.05-2.89.13-4.39.21.25,1.57,1.94.56,2.45,2-5.04,2.34-10.37,1.91-15.67,1.62.61-3.54,3.65-2.72,5.86-3.09,6.41-1.1,11.85-5.83,18.76-5,.81.1,1.64.07,2.45.1Z"/>
      <path class="cls-3" d="m195.69,846.84c.82-.07,2.2-.46,2.38-.15,3.07,5.28,10.95,4.02,13.6,10.24.62,1.46,4.31,1.6,6.63,2.36-.14,1.69-2.46,1.22-2.5,2.8-4.74,1.52-6.15-3.34-8.55-5.33-1.56-1.3-2.99-1.72-4.59-2.33-3.62-1.36-6.37-3.47-6.97-7.59Z"/>
      <path class="cls-3" d="m929.78,401.69c-2.01-.13-3.96-.01-3.91-3.1.13-6.98-.03-13.96-.07-20.94,2.06.11,3.8.21,3.75,3.21-.11,6.94.12,13.89.22,20.83Z"/>
      <path class="cls-3" d="m437.94,3c0,2.13-.26,3.79-3.16,3.73-7.02-.15-14.05-.05-21.08-.06-.09-2.17.19-3.79,3.11-3.73,7.04.15,14.09.05,21.13.05Z"/>
      <path class="cls-3" d="m523.95,6.68c-6.99,0-13.98-.1-20.96.06-2.91.07-3.3-1.51-3.27-3.73,6.94,0,13.88.05,20.82-.02,2.67-.03,3.49,1.34,3.42,3.7Z"/>
      <path class="cls-3" d="m327.49,912.98c4.71-.41,9.4-1.04,13.12,3.16.65.73,2.54.56,3.83.48,2.94-.19,3.91,1.18,3.47,3.89-3.74.16-7.51.81-10.76-2-1.3-1.12-3.14-.98-4.75-.79-3.66.42-5.09-1.28-4.91-4.74Z"/>
      <path class="cls-3" d="m118.96,159.89c.21,4.93-4.22,7.19-6.47,10.65-1.77,2.72-5.37,4.12-6.81,7.49-.64,1.48-2.3.93-3.59.85-1.04-3.74,2.81-6.47,4.12-7.21,4.43-2.48,4.49-7.91,8.56-10.5,1.54-.98,2.57-1.49,4.19-1.27Z"/>
      <path class="cls-3" d="m910.45,616.26c-.62-3.35-1.63-6.17,2.22-9.13,2.67-2.05,1.09-6.9,1.13-10.48.04-3.11,1.14-4.28,4.13-3.83.33,5.54.65,11.11-3.28,15.72-1.25,1.46-.88,3.15-.83,4.66.09,2.64-1.46,2.91-3.37,3.06Z"/>
      <path class="cls-3" d="m855.73,209.77c-1.46-.31-4.1.44-3.72-1.97.69-4.43-3.29-7.06-5.13-8.2-4.1-2.55-2.98-5.6-3.17-8.78.98.13,2.78.13,2.83.42.93,5.68,5.52,8.68,8.76,12.71,1.01,1.25.34,3.84.44,5.82Z"/>
      <path class="cls-3" d="m398.96,7.02c.2,2.27-.19,3.85-3.1,3.79-5.64-.11-11.28.01-16.92.04.18-2.34.85-3.85,3.79-3.75,5.4.19,10.82-.04,16.24-.09Z"/>
      <path class="cls-3" d="m370.78,924.68c5.49.03,10.98.22,16.46.04,3.1-.11,3.68,1.46,3.57,3.95-5.43-.08-10.87-.32-16.3-.16-2.97.09-3.63-1.43-3.73-3.82Z"/>
      <path class="cls-3" d="m7.8,400.58c.02,5.71-.07,11.43.09,17.14.08,2.9-1.6,3.16-3.75,3.11,0-5.59.07-11.17-.02-16.76-.04-2.65,1.37-3.46,3.67-3.49Z"/>
      <path class="cls-3" d="m890.81,666.73c-.26-3.38-.34-6.3,2.62-9.24,1.9-1.89,1.6-5.87,1.57-9.07,2.06-.29,1.59,2.84,3.55,2.14-.45,3.34,2.02,7.65-3.3,9.46-.58.2-.69,2.44-.63,3.72.13,2.92-1.6,3.19-3.81,2.98Z"/>
      <path class="cls-3" d="m773.3,822.96c-1.73-4.44,3.63-4.29,4.81-7.22,1.16-2.87,5.54-3.88,7.13-7.29.66-1.41,2.37-.74,3.66-.67,1.84,3.7-2.43,3.83-3.62,5.7-2.33,3.67-6.53,5.87-9.13,9.53-.31.44-1.87-.01-2.85-.05Z"/>
      <path class="cls-3" d="m39.35,652.68c3.22.85,4.23,2.96,3.49,6.08-4.64-1.4-6.56-5.11-7.46-9.37-.46-2.2-.14-4.57-.18-6.86,1.81.37,1.58-1.76,2.8-2.32,2.4,3.62,1.24,7.5.99,11.29-.31.29-.61.58-.92.87.43.1.85.2,1.28.3Z"/>
      <path class="cls-3" d="m840.11,749.03c-1.22-4.21.86-6.98,4.54-7.94,2.62-.68,3.13-1.98,3.09-4.07-.06-3.04,1.7-3.56,4.17-3.25.92,5.6-2.49,8.69-6.66,11.25-1.88,1.15-1.24,5.52-5.15,4Z"/>
      <path class="cls-3" d="m105.65,760.94c1.38.06,3.77-.85,3.75,1.03-.05,5.31,3.88,7.46,7.03,10.4,1.17,1.09.49,2.8.49,4.25-4.17,1.36-4.09-3.33-6.12-4.87-2.98-2.25-6.53-5.77-5.16-10.81Z"/>
      <path class="cls-3" d="m663.87,45.71c-3.1-.08-6.06,1-8.86-2.35-1.9-2.27-6.19-1.47-9.49-2.02-.26-1.86,2.89-1.37,2.16-3.35,3.16.07,6.54-.96,8.56,2.97.81,1.57,3.08.89,4.63.91,2.87.04,3.29,1.55,2.99,3.84Z"/>
      <path class="cls-3" d="m23.56,607.98c2.88-.43,4.32.69,4.21,3.72-.11,3.08-.09,6.17-.13,9.26-1.85-.94-1.92.98-2.86,1.93-1.37-5.03-3.01-9.82-1.22-14.92Z"/>
      <path class="cls-3" d="m815.85,780.75c-1.42-4.54,3.25-5.68,5.17-7.91,1.4-1.63,2.85-2.79,2.82-4.97-.04-3.24,1.8-3.4,4.21-2.87-.22,5.65-7.38,14.89-12.21,15.76Z"/>
      <path class="cls-3" d="m925.89,557.86c-.03-4.24.09-8.5-.13-12.73-.16-3.03,1.42-3.64,3.88-3.49-.02,4.23-.19,8.46,0,12.67.13,2.92-1.23,3.71-3.75,3.55Z"/>
      <path class="cls-3" d="m8.01,545.64c2.46-.15,4,.48,3.86,3.47-.19,4.21-.03,8.43-.02,12.65-2.46-.03-3.93-.82-3.8-3.75.18-4.11-.01-8.25-.05-12.37Z"/>
      <path class="cls-3" d="m11.92,564.68c2.82-.2,4.14.87,3.96,3.93-.23,4.05-.08,8.12-.09,12.18-2.1-.11-3.8-.4-3.7-3.29.15-4.27-.09-8.55-.17-12.82Z"/>
      <path class="cls-3" d="m286.07,38.26c-.52,5.38-4.7,7.89-12.32,7.4.51-4.29,6.09-7.64,12.32-7.4Zm-5.41,2.86c-.12-.1-.23-.28-.35-.28-.11,0-.23.19-.34.29.12.1.23.28.35.28.12,0,.23-.19.34-.29Z"/>
      <path class="cls-3" d="m550.76,928.52c-.2-2.62.65-4,3.63-3.86,4.15.19,8.31.02,12.46,0-.13,2.36-.76,3.97-3.75,3.82-4.1-.21-8.23.01-12.35.05Z"/>
      <path class="cls-3" d="m390.8,928.66c4.22-.02,8.45.07,12.66-.11,2.85-.12,3.84,1.11,3.52,3.76-4.21.01-8.43-.13-12.63.09-2.92.15-3.71-1.22-3.55-3.74Z"/>
      <path class="cls-3" d="m19.79,342.59c0,4.09-.18,8.19.03,12.27.17,3.21-1.3,4.06-4.11,3.68.12-4.06.41-8.12.31-12.17-.07-2.83,1.41-3.62,3.76-3.78Z"/>
      <path class="cls-3" d="m11.93,373.74c-.02,4.32-.16,8.64-.02,12.96.09,2.94-1.58,3.26-3.81,3.12.04-4.1.26-8.2.07-12.28-.13-2.9,1.4-3.63,3.76-3.8Z"/>
      <path class="cls-3" d="m898.59,648.71c-1.78-2.43-.83-5.53.44-6.92,3.08-3.39,2.72-7.51,3.65-11.32.51-2.09,1.32-2.8,3.28-2.57-.06.92-.12,1.84-.17,2.75-.79.24-.99.55-.1.97-.33,6.54-3.63,11.84-7.09,17.08Z"/>
      <path class="cls-3" d="m866.93,225.61c-2.13.32-3.34.12-4.36-2.53-1.34-3.44-3.03-7.02-6.07-9.57-1.2-1.01-.75-2.44-.76-3.74,4.56-1.88,3.3,5.2,7.04,4.58-.54,4.46,3.9,7.09,4.15,11.26Z"/>
      <path class="cls-3" d="m902.32,295.93c-4.3-4.23-9.32-8.12-7.45-15.34.8.07,2.28.06,2.3.21.55,5.45,7.22,8.84,5.15,15.14Z"/>
      <path class="cls-3" d="m645.84,37.96c-3.44,1.22-6.67.93-9.05-2.03-1.6-1.99-3.68-.69-5.39-1.34-2.37-.9-6.43.78-6.39-3.99.93.07,1.86.14,2.79.2.24.78.54.88.93.09,6.6.19,11.79,3.77,17.1,7.07Z"/>
      <path class="cls-3" d="m702.23,65.28c-3.03.59-6.12,1.59-7.63-2.58-.46-1.26-2.01-.97-3.06-.91-3.05.17-4.12-1.24-3.66-4.11,6.68-1.05,10.55,3.2,14.35,7.6Z"/>
      <path class="cls-3" d="m547.13,10.5c-3.92.06-7.85,0-11.76.22-2.97.17-3.69-1.37-3.6-3.85,4.1,0,8.21.11,12.31-.05,2.86-.11,3.33,1.38,3.05,3.69Z"/>
      <path class="cls-3" d="m15.72,358.56c.03,3.91-.07,7.82.14,11.72.17,3.06-1.54,3.54-3.93,3.46.05-3.97.25-7.94.11-11.9-.1-2.83,1.43-3.33,3.68-3.27Z"/>
      <path class="cls-3" d="m831.65,174.83c-3.82,1.99-5.18-2.7-5.78-3.69-1.81-2.99-6.92-3.71-6.09-8.4,4.61-.98,6.06,3.53,8.03,5.74,1.31,1.48,5.54,2.63,3.84,6.35Z"/>
      <path class="cls-3" d="m284.91,897.6c2.97-.12,5.88-.12,6.95,3.51.08.45.16.89.24,1.34.31-.3.61-.6.92-.9,3.47-.48,6.11.8,7.93,3.79-5.97,1.5-10.2-2.8-15.17-4.6-1.27-.46-.66-2.05-.88-3.14Z"/>
      <path class="cls-3" d="m175.94,104.84c1.89,4.17-2.93,4.87-4.34,6.08-2.31,2-3.36,6.53-7.76,5.8-1.04-4.77,3.86-5.71,5.95-8.2,1.08-1.29,2.51-5.35,6.15-3.69Z"/>
      <path class="cls-3" d="m19.66,592.95c2.72-.43,4.38.25,4.1,3.49-.25,2.88.51,5.81-.31,8.68-5.21-.66-6.02-2.58-3.56-8.43,1.12-.56.49-.89-.16-1.21l-.08-2.54Z"/>
      <path class="cls-3" d="m62.66,240.54c.14,2.23,1.05,4.69-2.5,5.38-1.69.33-1.21,2.26-1.17,3.43.11,3.04-1.48,3.71-4.03,3.42-.15-6.53,2.92-11.42,7.71-12.24Z"/>
      <path class="cls-3" d="m222.74,865.77c6.68-.31,11.31,2.67,12.15,7.82-3.97-.02-10.23-4.05-12.15-7.82Z"/>
      <path class="cls-3" d="m355.57,920.88c2.77-.06,5.56.03,8.31-.22,3.08-.28,4.18,1.1,3.97,3.95-3.06-.04-6.13-.22-9.18-.07-2.85.14-3.14-1.55-3.1-3.67Z"/>
      <path class="cls-3" d="m15.79,580.79c2.86-.36,4.31.62,4.04,3.77-.24,2.76-.14,5.55-.18,8.33-2.13,0-3.91-.21-3.74-3.18.17-2.96-.06-5.95-.12-8.93Z"/>
      <path class="cls-3" d="m921.81,358.69c-2.9.32-4.27-.79-4.01-3.89.24-2.77.16-5.57.21-8.36,2.14.09,3.87.4,3.69,3.31-.18,2.97.05,5.96.1,8.94Z"/>
      <path class="cls-3" d="m589.97,18.65c-2.94.04-5.89-.05-8.81.14-3.03.2-3.67-1.4-3.4-3.91,2.79.03,5.59.25,8.37.05,2.88-.21,3.69,1.33,3.85,3.72Z"/>
      <path class="cls-3" d="m601.84,917.06c-.63-3.13.46-4.77,3.84-4.4,2.72.3,5.54-.95,8.18.56-3.77,2.02-6.77,6.45-12.01,3.84Z"/>
      <path class="cls-3" d="m238.77,61.66c-.5,5.51-5.17,8.64-11.36,7.6.58-2.18,1.57-3.42,4.22-3.79,2.59-.37,3.39-4.95,7.14-3.8Z"/>
      <path class="cls-3" d="m874.7,237.78c-5.36-.58-8.47-5.43-7.36-11.5,2.4,1.41,7.18,8.88,7.36,11.5Z"/>
      <path class="cls-3" d="m614.07,26.39c-5.63,1.95-11.15.16-12.05-3.89.49.03.99.05,1.49.08.69,1.3,1.45,1.54,2.33.17,3.13.33,7.52-2.17,8.23,3.64Z"/>
      <path class="cls-3" d="m622.12,909c-.78-2.76,1.16-3.44,3.13-3.88,3.23-.72,6.52-.54,9.79-.25-1.99,4.55-6.11,3.81-9.86,3.97-.62-.82-1.23-.86-1.84,0-.41.05-.81.11-1.22.16Z"/>
      <path class="cls-3" d="m303.81,906.52c3.73-3.84,7.55-1.17,11.47-.57-.18,1.95-2.51,1.48-2.47,3.09-3.74,1.83-6.29-.62-8.99-2.52Z"/>
      <path class="cls-3" d="m129,147.93q.14,7.7-6.29,7.68c.74-3.68,1.42-7.4,6.29-7.68Z"/>
      <path class="cls-3" d="m730.97,84.63c-4.58-.32-8.88-3.9-9.27-7.7,4.48.2,8.94,3.91,9.27,7.7Z"/>
      <path class="cls-3" d="m624.96,30.56c-2.91.14-5.78.32-8.68-.56-2.09-.63-2.53-1.71-2.07-3.57.44-.24.82-.26,1.05.28.32.11.64.23.96.35-.2-.21-.39-.41-.59-.62,4.32-1.36,7.03.92,9.33,4.13Z"/>
      <path class="cls-3" d="m156.75,121.61q-.02,6.41-7.66,6.3c-.09-5.32,4.83-4.55,7.66-6.3Z"/>
      <path class="cls-3" d="m726.58,858.21c.35-3.86,4.01-7.12,8.35-7.45-.37,3.46-4.78,7.39-8.35,7.45Z"/>
      <path class="cls-3" d="m737.7,850.49c.36-3.59,4.79-7.56,8.42-7.55-.34,3.81-4.39,7.43-8.42,7.55Z"/>
      <path class="cls-3" d="m81.84,209.68c-.37,4.23-3.62,7.9-7.37,8.32-.02-3.58,3.93-8.04,7.37-8.32Z"/>
      <path class="cls-3" d="m89.87,197.72c-.14,3.9-3.58,7.69-7.49,8.26.01-3.46,3.99-7.85,7.49-8.26Z"/>
      <path class="cls-3" d="m78.34,725.45c3.83.34,7.02,3.92,7.45,8.34-3.64-.46-7.43-4.71-7.45-8.34Z"/>
      <path class="cls-3" d="m742.19,92.38c-3.45.09-7.87-3.86-8.44-7.56,4.12.26,8.13,3.84,8.44,7.56Z"/>
      <path class="cls-3" d="m157.84,816.9c.28-.56.55-1.12.83-1.68,1.68,3.11,7.24,3.47,6.07,8.58-4.99.38-5.34-3.87-6.9-6.91Z"/>
      <path class="cls-3" d="m97.73,186.6c-.08,3.53-4.08,7.85-7.64,8.26.38-3.68,4.3-7.91,7.64-8.26Z"/>
      <path class="cls-3" d="m335.55,22.5c-.86,4.05-4.75,5.28-9.76,3.08.53-3.98,3.41-3.1,5.97-2.88.89,1.48,1.68,1.2,2.42-.13.46-.02.91-.05,1.37-.07Z"/>
      <path class="cls-3" d="m257.92,885.59c2.95.75,7.96-2.71,8.02,3.94-2.96-.72-7.83,2.43-8.02-3.94Z"/>
      <path class="cls-3" d="m882.83,682.75c.75-2.96-2.8-8.08,4.01-7.99-.69,2.99,2.5,7.93-4.01,7.99Z"/>
      <path class="cls-3" d="m671.91,49.66c-2.98-.71-8.04,2.81-8.05-3.96,2.88.91,7.98-2.68,8.05,3.96Z"/>
      <path class="cls-3" d="m886.84,674.76c.69-2.99-2.78-8.04,3.97-8.04-.87,2.9,2.6,7.95-3.97,8.04Z"/>
      <path class="cls-3" d="m183.61,100.53c.56,6.99-4.82,3.36-7.66,4.29.09-5.83,4.56-3.83,7.66-4.29Z"/>
      <path class="cls-3" d="m273.75,45.66c.04,6.85-5.06,3.28-8.06,3.97.12-6.54,5.15-3.11,8.06-3.97Z"/>
      <path class="cls-3" d="m878.82,690.73c.73-2.97-2.73-8.04,4.01-7.99-.52,3.07,2.05,7.7-4.01,7.99Z"/>
      <path class="cls-3" d="m46.96,268.81c-.68,2.97,2.59,7.86-3.9,8.02.72-2.96-2.44-7.79,3.9-8.02Z"/>
      <path class="cls-3" d="m50.94,260.79c-.75,2.95,2.68,7.98-3.97,8,.72-2.97-2.33-7.81,3.97-8Z"/>
      <path class="cls-3" d="m589.72,920.47c.2-7.05,5.35-2.86,8.3-3.66-.66,5.99-5.18,3.23-8.3,3.66Z"/>
      <path class="cls-3" d="m54.94,252.79c-.77,2.94,2.71,8.01-4,7.98.55-3.05-2.14-7.73,4-7.98Z"/>
      <path class="cls-3" d="m571,14.63c-2.94-.8-8.02,3.34-8.31-3.6,3.04.58,7.76-2.73,8.31,3.6Z"/>
      <path class="cls-3" d="m694.8,877.65c-.17-6.83,5.01-3.25,7.92-4.07-.56,5.4-4.78,3.7-7.92,4.07Z"/>
      <path class="cls-3" d="m265.98,889.54c2.95.71,7.81-2.51,7.99,3.89-3.02-.56-7.72,2.33-7.99-3.89Z"/>
      <path class="cls-3" d="m249.96,881.56c2.89.86,8.03-2.72,7.94,4.03-3.04-.56-7.73,2.12-7.94-4.03Z"/>
      <path class="cls-3" d="m918.15,589.1c.5-3.1-3.44-8.08,3.56-8.43-.81,2.97,3.02,7.9-3.56,8.43Z"/>
      <path class="cls-3" d="m679.95,53.65c-2.97-.75-8.13,2.92-8.04-3.99,2.94.82,7.97-2.6,8.04,3.99Z"/>
      <path class="cls-3" d="m573.7,924.4c.55-6.43,5.25-3.12,8.36-3.56-.51,6.53-5.36,2.86-8.36,3.56Z"/>
      <path class="cls-3" d="m905.75,307.73c-4.63-1.29-4.11-4.53-3.03-7.99,2.17-.41,3.44.24,3.27,2.7-.12,1.76-.16,3.53-.24,5.29Z"/>
      <path class="cls-3" d="m921.9,576.86c.48-2.78-2.84-7.37,3.51-7.34-.05,2.98,2.09,7.01-3.51,7.34Z"/>
      <path class="cls-3" d="m925.49,369.85c-6.38,0-3.14-4.55-3.49-7.4,6.02.18,3.18,4.53,3.49,7.4Z"/>
      <path class="cls-3" d="m374.96,11.01c-.06,6.43-4.56,3.2-7.47,3.44.17-6.19,4.67-2.98,7.47-3.44Z"/>
      <path class="cls-3" d="m31.57,632.43c4.76.48,5.12,1.3,3.6,8.28-2.28-2.29-4.4-4.65-3.6-8.28Z"/>
      <path class="cls-3" d="m70.62,225.52c-.8,2.9,3.32,8.35-4.07,7.82.35-3.13-.46-6.86,4.07-7.82Z"/>
      <path class="cls-3" d="m766.78,111.77c-3.68-.81-6.16-2.5-5.1-6.84,5.68-.68,3.65,4.37,5.1,6.84Z"/>
      <path class="cls-3" d="m246,58.03c.05,1.58.81,3.52-.94,4.47-2.11,1.15-3.69-.43-5.19-1.72.84-3.61,3.54-3.06,6.13-2.75Z"/>
      <path class="cls-3" d="m27.66,622.51c2.66,1.09,4.18,2.84,3.38,5.91-1.26.49-.64,2.56-2.64,2.84-.36-2.94-2.03-5.66-.74-8.75Z"/>
      <path class="cls-3" d="m716.75,75.79c-1.53-2.46-7.19-.91-5.9-6.09,3.85-1.13,4.49,3.83,7.67,4.16.22.02-1.19,1.22-1.76,1.93Z"/>
      <path class="cls-3" d="m905.97,627.87c-.03-1.48.03-2.97-.1-4.45-.3-3.25,1.31-4.1,4.18-3.49.58,3.64-1.37,5.98-4.08,7.94Z"/>
      <path class="cls-3" d="m714.84,865.72c-1.25-4.79,3.15-3.73,5.24-5.06.93-.06,2.02-.54,2.33.94-3.12.28-3.6,5.41-7.57,4.12Z"/>
      <path class="cls-3" d="m601.23,22.32c-2.86-.35-7.6,3.34-7.47-3.46,3.31-.62,5.86.4,7.47,3.46Z"/>
      <path class="cls-3" d="m710.17,69.36c-3.11.11-7.45,2.67-7.32-3.67,3.12-.13,5.86.5,7.32,3.67Z"/>
      <path class="cls-3" d="m66.49,233.44c.15,3.13,1.35,6.82-3.82,7.07.02-.51.03-1.02.05-1.53.67-.36,1.17-.74.14-1.27-.37-2.77.16-4.77,3.63-4.27Z"/>
      <path class="cls-3" d="m653.64,897.3c.2-4.5,3.34-3.85,6.27-3.58.58,5.87-3.67,3.27-6.27,3.58Z"/>
      <path class="cls-3" d="m785.04,127.45c-6.27,1.53-3.99-3.02-4.15-5.84,3.63.35,4.68,2.53,4.15,5.84Z"/>
      <path class="cls-3" d="m644.63,901.28c-1.15-5.86,3.16-3.04,5.45-3.44.09,4.17-2.6,3.94-5.45,3.44Z"/>
      <path class="cls-3" d="m854.77,729.67c-.59-3.58.38-5.54,4.45-4.26,1.34,4.36-1.79,4.07-4.45,4.26Z"/>
      <path class="cls-3" d="m165.2,824.54c1.47.53,2.37,2.13,4.22,2.02,2.87-.16,3,1.7,2.6,3.85-4.19.27-5.26-3.08-6.82-5.87Z"/>
      <path class="cls-3" d="m616.69,912.5c-.57-1.03-2.61-.43-2.51-1.9.1-1.47,1.81-1.08,2.77-1.53,1.39-.65,2.87-.51,4.3.05.06,3.27-1.66,4.13-4.57,3.38Z"/>
      <path class="cls-3" d="m814.91,155.65c-2.66-.37-7.05,1.68-5.83-4.15,3.51-.81,4.92,1.32,5.83,4.15Z"/>
      <path class="cls-3" d="m277.64,893.81c3.22-.8,5.38.3,6.36,3.52-2.53-.43-6.93,2.51-6.36-3.52Z"/>
      <path class="cls-3" d="m58.75,690.81c1.32.29,3.06-.73,3.82,1.24.78,2.04-.42,3.36-1.71,4.65-2.92-1.17-2.37-3.58-2.12-5.89Z"/>
      <path class="cls-3" d="m773.79,116.75c-3.92.89-4.44-1.45-4.24-4.47,4.29-1.24,4.16,1.72,4.24,4.47Z"/>
      <path class="cls-3" d="m316.35,909.19c4.16-1.42,4.85.91,4.59,4.26-3.76.99-4.7-1.07-4.59-4.26Z"/>
      <path class="cls-3" d="m148.7,807.84c4.38-1.12,4.19,1.9,4.25,4.69-2.12-.92-5.46-.74-4.25-4.69Z"/>
      <path class="cls-3" d="m123.77,783.77c2.93-.21,5.98-.57,4.94,4.06-3.89,1.38-3.61-2.32-4.94-4.06Z"/>
      <path class="cls-3" d="m808.89,787.77c-1.08-4.36,1.89-4.2,4.7-4.22-.88,2.17-.85,5.36-4.7,4.22Z"/>
      <path class="cls-3" d="m43.19,662.53c3.32-.35,4.39,1.19,3.6,4.29-3.68.65-4.12-1.41-3.6-4.29Z"/>
      <path class="cls-3" d="m878.56,244.85c-3.76.73-4.13-1.41-3.65-4.29,2.76.11,4.68.94,3.65,4.29Z"/>
      <path class="cls-3" d="m55.11,686.56c3.58-.62,4.25,1.27,3.65,4.24-3.11.21-4.49-1.06-3.65-4.24Z"/>
      <path class="cls-3" d="m749.23,97.09c-3.04.16-3.93-1.48-3.51-4.21,3.11-.21,5.06.54,3.51,4.21Z"/>
      <path class="cls-3" d="m187.77,96.66c.5,3.29-.77,4.69-4.12,3.84-.63-3.43,1.15-4.27,4.12-3.84Z"/>
      <path class="cls-3" d="m51.06,678.58c3.48-.55,4.39,1.16,3.71,4.25-3.39.46-4.35-1.19-3.71-4.25Z"/>
      <path class="cls-3" d="m47.13,670.55c3.48-.49,4.32,1.26,3.62,4.3-3.5.5-4.26-1.31-3.62-4.3Z"/>
      <path class="cls-3" d="m753.95,100.58c-2.91.7-4.52-.25-4.4-3.43,3.32-1.23,4.79-.1,4.4,3.43Z"/>
      <path class="cls-3" d="m191.9,92.81c.4,3.19-.8,4.66-4.13,3.85-.57-3.38,1.28-4.15,4.13-3.85Z"/>
      <path class="cls-3" d="m758.11,104.46c-3.31.77-4.83-.37-4.15-3.87,3.17-.62,4.56.66,4.15,3.87Z"/>
      <path class="cls-3" d="m196,89.01c.42,3.18-.84,4.55-4.08,3.8-.32-3.08,1.17-4.2,4.08-3.8Z"/>
      <path class="cls-3" d="m149.01,127.96c.42,3.08-.64,4.66-3.98,3.91-.58-3.24,1.1-4.19,3.98-3.91Z"/>
      <path class="cls-3" d="m789.08,131.4c-3.48.91-4.65-.56-3.99-3.9,2.72-.12,5.05.15,3.99,3.9Z"/>
      <path class="cls-3" d="m144.99,131.91c.47,3.09-.59,4.66-3.93,3.97-.53-3.14.92-4.33,3.93-3.97Z"/>
      <path class="cls-3" d="m793.1,135.48c-3.4.71-4.78-.56-3.95-4.01,3.08-.4,4.73.61,3.95,4.01Z"/>
      <path class="cls-3" d="m141,135.93c.6,3.25-.75,4.52-3.96,3.94-.4-3.04.93-4.34,3.96-3.94Z"/>
      <path class="cls-3" d="m136.99,139.92c.67,3.32-.84,4.44-3.97,3.94-.33-2.98.81-4.47,3.97-3.94Z"/>
      <path class="cls-3" d="m132.99,143.9c.77,3.4-.93,4.33-3.95,3.97-.24-2.87.7-4.57,3.95-3.97Z"/>
      <path class="cls-3" d="m86,736.6c3.04-.18,4.71.85,3.72,4.22-3.76.82-3.94-1.53-3.72-4.22Z"/>
      <path class="cls-3" d="m89.73,740.83c3.33-.5,4.76.75,3.86,4.17-3.73.87-4.04-1.43-3.86-4.17Z"/>
      <path class="cls-3" d="m809.03,151.45c-3.45.72-4.71-.67-3.93-4.06,3.64-.9,4.15,1.22,3.93,4.06Z"/>
      <path class="cls-3" d="m835.98,182.52c-3.54.72-4.64-.84-3.86-4.14,3.24-.44,4.49.97,3.86,4.14Z"/>
      <path class="cls-3" d="m94.08,748.55c3.32-.55,4.45.95,3.82,4.09-3.14.38-4.31-1.08-3.82-4.09Z"/>
      <path class="cls-3" d="m97.91,752.65c3.33-.53,4.52.93,3.87,4.13-3.27.48-4.39-1.06-3.87-4.13Z"/>
      <path class="cls-3" d="m835.81,756.7c-.6-3.14.5-4.68,3.85-4.11.49,3.04-.72,4.48-3.85,4.11Z"/>
      <path class="cls-3" d="m101.77,756.77c3.43-.63,4.61.83,3.84,4.12-3.21.42-4.5-.94-3.84-4.12Z"/>
      <path class="cls-3" d="m831.96,760.83c-.69-3.21.39-4.77,3.84-4.14.64,3.17-.7,4.49-3.84,4.14Z"/>
      <path class="cls-3" d="m828.11,764.93c-.79-3.31.38-4.77,3.84-4.08.8,3.32-.82,4.35-3.84,4.08Z"/>
      <path class="cls-3" d="m101.62,182.44c.82,3.36-.52,4.71-3.89,4.15-.45-3.02.45-4.77,3.89-4.15Z"/>
      <path class="cls-3" d="m839.87,186.66c-3.3.53-4.66-.78-3.87-4.11,3.38-.6,4.33,1.09,3.87,4.11Z"/>
      <path class="cls-3" d="m843.7,190.8c-3.23.42-4.63-.85-3.84-4.15,3.41-.58,4.17,1.27,3.84,4.15Z"/>
      <path class="cls-3" d="m261.95,49.94c.54,3.54-1.21,4.38-4.3,3.66-.51-3.5,1.28-4.3,4.3-3.66Z"/>
      <path class="cls-3" d="m128.72,787.83c3.25-.56,4.72.62,3.96,4.01-3.53.84-4.24-1.1-3.96-4.01Z"/>
      <path class="cls-3" d="m804.9,791.78c-.76-3.42.81-4.52,3.99-4.01.25,2.91-.54,4.79-3.99,4.01Z"/>
      <path class="cls-3" d="m132.7,791.86c3.26-.65,4.71.56,4.03,3.94-3.31.7-4.44-.84-4.03-3.94Z"/>
      <path class="cls-3" d="m800.86,795.74c-.67-3.38.84-4.53,4.04-3.96.4,3.1-.74,4.63-4.04,3.96Z"/>
      <path class="cls-3" d="m136.73,795.81c3.3-.64,4.62.7,4,3.99-3.23.57-4.57-.75-4-3.99Z"/>
      <path class="cls-3" d="m796.86,799.75c-.6-3.26.69-4.64,4-4.01.52,3.18-.79,4.54-4,4.01Z"/>
      <path class="cls-3" d="m140.73,799.81c3.37-.68,4.57.77,3.96,4.02-3.11.42-4.65-.7-3.96-4.02Z"/>
      <path class="cls-3" d="m792.89,803.76c-.58-3.23.63-4.68,3.98-4.02.67,3.31-.89,4.43-3.98,4.02Z"/>
      <path class="cls-3" d="m144.7,803.84c3.39-.73,4.57.75,3.98,3.99-2.92.26-4.84-.47-3.98-3.99Z"/>
      <path class="cls-3" d="m788.9,807.77c-.53-3.18.57-4.75,3.99-4.01.8,3.46-1.08,4.25-3.99,4.01Z"/>
      <path class="cls-3" d="m917.54,338.84c-3.9.56-4.22-1.54-3.38-4.52,3.44-.22,4.07,1.65,3.38,4.52Z"/>
      <path class="cls-3" d="m663.68,893.4c-.25-3.26,1.25-4.39,4.35-3.58.76,3.88-1.53,4.05-4.35,3.58Z"/>
      <path class="cls-3" d="m73.79,221.72c2.41,4.15-.17,4.11-3.14,3.75-.3-2.38-.47-4.65,3.14-3.75Z"/>
      <path class="cls-3" d="m671.7,889.46c-.43-3.44,1.23-4.39,4.33-3.63.62,3.67-1.44,4.14-4.33,3.63Z"/>
      <path class="cls-3" d="m679.73,885.53c-.5-3.47,1.14-4.45,4.28-3.71.49,3.45-1.21,4.37-4.28,3.71Z"/>
      <path class="cls-3" d="m762.02,830.87c-.79-3.62.87-4.61,4.15-3.85.16,2.95-.77,4.71-4.15,3.85Z"/>
      <path class="cls-3" d="m175.56,830.93c3.25-.72,4.82.37,4.17,3.86-3.24.71-4.56-.65-4.17-3.86Z"/>
      <path class="cls-3" d="m757.87,834.73c-.6-3.41.87-4.59,4.13-3.84.43,3.22-.95,4.5-4.13,3.84Z"/>
      <path class="cls-3" d="m179.73,834.8c3.23-.68,4.67.54,4.11,3.88-3.07.51-4.58-.64-4.11-3.88Z"/>
      <path class="cls-3" d="m753.75,838.6c-.56-3.35.95-4.5,4.12-3.87.39,3.17-1.06,4.38-4.12,3.87Z"/>
      <path class="cls-3" d="m183.85,838.67c3.23-.69,4.58.6,4.1,3.86-2.99.44-4.56-.63-4.1-3.86Z"/>
      <path class="cls-3" d="m749.69,842.48c-.52-3.25.83-4.54,4.05-3.87.35,3.07-1.09,4.27-4.05,3.87Z"/>
      <path class="cls-3" d="m191.5,842.99c3.43-.93,4.69.49,4.17,3.85-2.69.13-5.1-.06-4.17-3.85Z"/>
      <path class="cls-3" d="m253.95,53.94c.63,3.58-1.21,4.34-4.25,3.71-.22-3.12,1.1-4.47,4.25-3.71Z"/>
      <path class="cls-3" d="m894.49,276.87c-3.34.32-4.39-1.24-3.56-4.34,3.82-.71,3.98,1.58,3.56,4.34Z"/>
      <path class="cls-3" d="m890.58,268.84c-3.4.42-4.42-1.19-3.65-4.31,3.6-.58,4.23,1.35,3.65,4.31Z"/>
      <path class="cls-3" d="m886.61,260.83c-3.5.53-4.41-1.17-3.68-4.28,3.53-.55,4.28,1.29,3.68,4.28Z"/>
      <path class="cls-3" d="m218.41,862.13c3.2-.88,5.11-.22,4.33,3.64-3.18.86-4.28-.77-4.33-3.64Z"/>
      <path class="cls-3" d="m882.61,252.82c-3.54.55-4.36-1.23-3.67-4.29,3.27-.32,4.38,1.21,3.67,4.29Z"/>
      <path class="cls-3" d="m707.03,869.86c-.71-3.71.88-4.74,4.28-3.66.27,3.2-1.26,4.3-4.28,3.66Z"/>
      <path class="cls-3" d="m702.74,873.57c-.58-3.52,1.04-4.53,4.25-3.69.26,3.16-1.39,4.12-4.25,3.69Z"/>
      <path class="cls-3" d="m238.46,874.03c3.46-1.13,4.7.35,4.34,3.7-2.76.31-4.92-.09-4.34-3.7Z"/>
      <path class="cls-3" d="m687.88,57.68c-2.98.56-4.88-.1-4.21-3.69,3.16-.78,4.42.62,4.21,3.69Z"/>
      <path class="cls-3" d="m245.62,877.85c3.1-.71,4.85.15,4.31,3.69-3.21.85-4.55-.5-4.31-3.69Z"/>
      <path class="cls-3" d="m687.7,881.48c-.62-3.62,1.27-4.3,4.28-3.67.2,3.12-1.1,4.5-4.28,3.67Z"/>
      <path class="cls-3" d="m913.62,326.83c-5.08,1.64-2.42-2.34-2.92-4.02,4.11-.94,3.2,1.77,2.92,4.02Z"/>
      <path class="cls-3" d="m771.29,823.56c.34-.07.68-.13,1.02-.2.88,2.58-.25,3.38-2.68,3.04-.12-.28-.08-.53.12-.75.51-.7,1.02-1.4,1.53-2.1Z"/>
      <path class="cls-3" d="m637.05,902.92c.22-2.56,1.2-2.7,2.79-.87-.56,1.48-1.78.83-2.79.87Z"/>
      <path class="cls-3" d="m616.36,23.63c-.04.13-.08.26-.12.39-.22-.13-.45-.24-.66-.39-.03-.02.07-.22.1-.33.23.11.45.22.68.33Z"/>
      <path class="cls-4" d="m334.18,22.57c-.74,1.32-1.53,1.61-2.42.13.81-.04,1.61-.09,2.42-.13Z"/>
      <path class="cls-4" d="m605.84,22.75c-.88,1.37-1.64,1.13-2.33-.17.78.06,1.55.11,2.33.17Z"/>
      <path class="cls-4" d="m628.73,30.88c-.39.79-.69.69-.93-.09.32-.07.63-.04.93.09Z"/>
      <path class="cls-4" d="m623.33,908.84c.61-.86,1.23-.82,1.84,0-.61,0-1.23,0-1.84,0Z"/>
      <path class="cls-4" d="m905.68,631.63c-.88-.42-.69-.73.1-.97.07.34.03.66-.1.97Z"/>
      <path class="cls-4" d="m344.95,18.69c-.29.69-.62,1-1.08.12.36-.04.72-.08,1.08-.12Z"/>
      <path class="cls-4" d="m62.85,237.7c1.03.54.53.91-.14,1.27.04-.42.09-.85.14-1.27Z"/>
      <path class="cls-4" d="m19.73,595.49c.65.32,1.28.65.16,1.21-.05-.4-.11-.81-.16-1.21Z"/>
      <path class="cls-1" d="m562.84,674.62c13.93.07,27.86.13,41.79.2-.02,2.67,1.23,3.82,3.98,3.78,2.63-.03,7.07-.43,7.57.7,2.01,4.59,5.53,3.05,8.69,3.27,0,0,.03.02.03.02-.48,3.23.9,4.47,4.07,3.8,0,0,.12.1.12.1-.72,3.31.98,4.21,3.89,3.91,0,0,.07.12.07.12-.08,1.13-.61,3.05.29,3.22,3.54.69,3.53,3.31,3.68,5.85.17,2.66,2.26,1.79,3.67,2.18,0,0,0,0,0,0,.88,2.92-2.69,7.88,3.77,8.25.1,2.55.21,5.11.31,7.66.02,1,.05,2,.07,3-.07.31-.06.62.03.93-.05,6.32-.09,12.65-.14,18.97,0,0,0,0,0,0-3.66.09-7.33.24-10.99.27-73.29.51-146.58-.95-219.86.78,0,0,0,0,0,0,0-10.64,0-21.28.01-31.92.03-.4.07-.8.1-1.2.81-2.36,4.42-2.61,4.15-6.01-.13-1.67.05-3.83,2.71-4.53,1.52-.4.72-2.24.63-3.49-.83-3.66,3.57-3.39,4.37-5.82.05-.61.1-1.22.15-1.83,0,0,0,0,0,0,2.95-.73,7.78,1.99,7.77-4.21h.02c2.95-.77,7.81,2.38,8.05-3.94h0c3.97-.06,7.95-.28,11.91-.14,2.9.1,3.24-1.56,3.24-3.73,12.92-.08,25.85-.16,38.77-.24,2.87.4,4.09-.52,4.05-3.74-.17-12.24-.05-24.49-.04-36.73,0-11.35-.41-11.69-12.09-10.1-35.01-.02-70.02-.04-105.04-.02-1.45,0-3.01-.36-4.33.64-1.64-1.16-3.28-1.18-4.92,0-.51-.18-1.03-.35-1.54-.53-3.28-.73-5.94-.77-4.3,3.91-.09,12.8-.21,25.6-.27,38.4-.1,21.1-.16,42.21-.24,63.31-.64-.14-1.83-.41-1.83-.39-1.13,4.39-4.5,7.56-6.3,11.57-.94.11-1.89.22-2.83.32-1.32-.12-2.63-.34-3.95-.34-64.18-.02-128.36-.02-192.54-.01-1.31,0-2.63.22-3.94.34-.57,0-1.14-.01-1.71-.02-1.72-2.29-4.82-3.36-5.33-6.79-.33-2.26-2.06-2.09-3.65-.86-2.28-1.92,0-3.99,0-5.94-.18-104.48-.18-208.96-.11-313.44,0-4.18-2.43-8.36-.03-12.54,3.09.02,7.59-4.49,7.95-7.96.99-.07,1.99-.14,2.98-.21,32.44.07,64.88.1,97.31.28,4.75.03,4.66-2.79,4.66-6.11.08-59.23.2-118.46.31-177.69,0,0,0,0,0,0,1.74-.06,3.41.47,4.02-2.36.48-2.27,3.31-3.55,5.08-4.88,5.31-3.99,11.86-4.94,18.38-4.94,162.59-.03,325.19-.02,487.78,0,2.64,0,5.42.79,7.86.63,4.51-.3,6.8,5.22,11.4,3.6l.16-.2s-.14.21-.14.21c-.04,2.72.53,4.81,4.02,3.95,0,0,0,0,0,0,.95,2.85-2.21,7.84,4.1,7.92.06,1.28.12,2.57.18,3.85-.07.99-.2,1.99-.2,2.98,0,124.54.03,249.08.06,373.63,0,2.16.14,4.32.22,6.47-.15,2.53-.31,5.06-.46,7.58-3.94-1.79-5.01,2.89-5.7,4.03-1.64,2.74-6.7,2.98-5.64,7.47-3.07,1.11-4.8,4.58-8.4,4.78-2.29-.21-4.42-1.11-6.81-1.1-68.58.09-137.16.09-205.73.11-1.83,0-3.67.15-5.49.04-2.96-.18-4.05.99-4.03,4.04.11,14.48.12,28.96-.04,43.44-.04,3.39,1.38,4.02,4.2,3.44Zm-205.45-281.83c.07.22.22.39.44.5.42.1.84.2,1.25.29,2.18,4.33,3.97,8.91,7.89,12.11.1,8.47.28,16.94.29,25.41.03,45.09,0,90.19.04,135.28,0,2.13-.43,4.32.46,6.4-.17,2.61.77,4.1,3.68,3.87,1.65-.13,3.33.03,5,.03,120.96,0,241.92,0,362.88,0,10.59,0,10.59.04,10.59-10.74,0-103.63,0-207.26,0-310.9,0-2.17-.17-4.34-.02-6.5.21-3.21-1.03-4.33-4.11-3.27-27.15-.08-54.29-.23-81.44-.24-112.1-.03-224.2-.01-336.3,0-4.99,0-9.99.1-14.98.15-3.27-.97-5.07-.25-4.12,3.61-.05,27.81-.14,55.62-.14,83.43,0,19.15.12,38.29.19,57.44-.33,2.08-.71,4.03,2.54,4,14.78-.16,29.56.46,44.34-.33.51-.18,1.02-.35,1.53-.53Zm-9.58,281.8c3.57.9,4.92-.39,3.92-3.99.04-1.66.11-3.33.11-4.99,0-61.29.02-122.58,0-183.88,0-22.98-.07-45.97-.11-68.95.08-1.35,1.43-3.08-1.1-3.64-1.66-.1-3.32-.28-4.98-.28-59.48,0-118.97-.03-178.45.03-8.1,0-7.11-1.04-7.12,7.27-.04,82.31-.03,164.63-.02,246.94,0,2.5.22,5.02-.01,7.49-.31,3.4,1.18,4.11,4.32,4.11,61.15-.1,122.3-.1,183.45-.12Zm-91.71,19.98v-.06c-1,0-2-.06-3,.01-3.45.25-7.23-.88-10.3.85-4.54,2.56-5.69,8.14-7.26,12.28-2.05,5.41-1.94,12.56,3.11,17.13,3.05,2.76,5.42,7.01,9.63,7.88,6.45,1.33,12.81,2.55,19-2.57,5.88-4.86,7.88-11.04,9.57-17.8.87-3.46-3.29-4.29-3.28-7.77.01-6.5-4.09-9.81-10.47-9.95-2.33-.05-4.66,0-7,0Z"/>
      <path class="cls-3" d="m800.94,600.77c-.07-2.16-.22-4.32-.22-6.47-.03-124.54-.05-249.08-.06-373.63,0-.99.13-1.99.2-2.98,2.61-.23,4.09.58,3.88,3.59-.19,2.82,0,5.66,0,8.49,0,121.64.01,243.28-.04,364.91,0,2.58,1.58,6.61-3.76,6.08Z"/>
      <path class="cls-3" d="m792.56,201.96c-4.61,1.62-6.89-3.9-11.4-3.6-2.44.16-5.22-.63-7.86-.63-162.59-.02-325.19-.04-487.78,0-6.52,0-13.07.95-18.38,4.94-1.77,1.33-4.6,2.61-5.08,4.88-.6,2.83-2.27,2.3-4.02,2.36-.7-2.83.57-4.16,3-5.79,3.24-2.18,5.43-6.01,9.8-6.42,2.91-.27-2.7-2.66.94-2.94,3.38-.26,6.67-1.84,10.05-.03,1.33,1.48,3.11.93,4.7.93,161.66.02,323.33.02,484.99-.01,1.76,0,3.69.59,5.25-.85,3.24-.76,6.81-3.11,8.73,2.04.63,1.69,2.35.88,3.49.89,3.02.03,4.36,1.15,3.58,4.23Z"/>
      <path class="cls-3" d="m258.04,209.92c-.11,59.23-.23,118.46-.31,177.69,0,3.31.09,6.13-4.66,6.11-32.44-.18-64.87-.2-97.31-.28-.4-4.31,2.64-3.7,5.28-3.7,28.65,0,57.31.01,85.96-.02,8.16,0,6.75.27,6.76-6.61.09-55.97.11-111.95.16-167.92,0-2.78-.51-6.07,4.13-5.26Z"/>
      <path class="cls-3" d="m562.84,674.62c-2.81.58-4.23-.05-4.2-3.44.17-14.48.16-28.96.04-43.44-.02-3.06,1.07-4.22,4.03-4.04,1.82.11,3.66-.04,5.49-.04,68.58-.02,137.16-.03,205.73-.11,2.39,0,4.52.89,6.81,1.1.02,2.03-.84,3-3.01,2.92-2.99-.12-5.99.02-8.98.02-66.73,0-133.45.05-200.18-.07-4.39,0-6.07.87-5.94,5.69.37,13.8.18,27.62.21,41.43Z"/>
      <path class="cls-3" d="m413.87,741.62c73.28-1.73,146.58-.27,219.86-.78,3.66-.03,7.33-.17,10.99-.27.49,2.9-.44,4.5-3.67,4.16-.99-.11-1.99.01-2.99.01-72.86,0-145.72.02-218.58-.08-2.08,0-5.92,1.91-5.6-3.05Z"/>
      <path class="cls-3" d="m155.65,741.19c1.31-.12,2.63-.34,3.94-.34,64.18-.01,128.36,0,192.54.01,1.32,0,2.63.22,3.95.34,0,2.31-.68,3.91-3.46,3.55-.98-.12-2-.01-3-.01-62.46,0-124.91,0-187.37,0-2.93,0-5.86,0-8.71,0-.25-2.45,2.45-1.81,2.1-3.55Z"/>
      <path class="cls-3" d="m367.55,628c-1.64-4.68,1.01-4.64,4.3-3.91.24.96.79,1.05,1.54.53,1.64-1.18,3.28-1.16,4.92,0,1.38,1.21,3.07,1.06,4.73,1.06,33.53,0,67.06.01,100.59-.03,1.48,0,3.5.85,4.05-1.64,11.69-1.59,12.1-1.25,12.09,10.1,0,12.24-.13,24.49.04,36.73.04,3.21-1.17,4.14-4.05,3.74.01-14.15-.07-28.29.12-42.44.05-3.46-.97-4.6-4.46-4.6-38.78.09-77.55.11-116.33-.04-4.33-.02-4.32,2.16-4.31,5.28.06,28.96.05,57.92-.01,86.87,0,2.01.82,4.29-1.93,7.02,0-3.28,0-5.61,0-7.94,0-28.63.03-57.25-.05-85.88,0-1.61,1.15-3.75-1.23-4.84Z"/>
      <path class="cls-1" d="m776.76,194.79c-1.56,1.45-3.49.85-5.25.85-161.66.03-323.33.03-484.99.01-1.6,0-3.37.55-4.7-.93,72.92.03,145.84.07,218.76.07,92.06,0,184.13,0,276.19-.01Z"/>
      <path class="cls-3" d="m413.89,709.7c0,10.64,0,21.28-.01,31.92-3.36.72-4.01-1.23-4-3.97.04-6.82.05-13.63.01-20.45,0-1.97.32-3.97-.56-5.9-.57-1.25-.78-3.14.46-3.66,6.04-2.57,2.81-13.27,11.69-13.16.09,1.25.89,3.09-.63,3.49-2.67.7-2.85,2.87-2.71,4.53.27,3.39-3.35,3.65-4.15,6.01-.75.34-1.04.72-.1,1.2Z"/>
      <path class="cls-3" d="m624.86,682.58c-3.16-.23-6.68,1.32-8.69-3.27-.5-1.14-4.94-.74-7.57-.7-2.75.04-3.99-1.11-3.98-3.78,3.13-.02,6.26-.06,9.38-.05,1.64,0,3.33-.19,3.75,2.18.37,2.09,2.36,1.63,3.67,1.6,2.99-.06,3.7,1.48,3.44,4.02Z"/>
      <path class="cls-3" d="m644.83,720.68c-.02-1-.05-2-.07-3,2.39-.29,3.17.87,3.14,3.15-.08,5.58-.06,11.17.03,16.75.04,2.32-.81,3.41-3.2,3.01.05-6.32.09-12.65.14-18.97.11-.1.33-.23.31-.28-.07-.23-.22-.43-.34-.64Z"/>
      <path class="cls-3" d="m456.99,674.8c0,2.18-.34,3.84-3.24,3.73-3.96-.14-7.94.07-11.91.14-.1-2.39.35-4.11,3.43-3.95,3.9.2,7.82.07,11.72.08Z"/>
      <path class="cls-3" d="m358.91,740.89c1.81-4.01,5.17-7.18,6.3-11.57,0-.03,1.2.25,1.83.39,1.75,6.61-2.32,12.2-8.14,11.18Z"/>
      <path class="cls-3" d="m789.14,619.85c-1.06-4.49,4-4.73,5.64-7.47.68-1.14,1.76-5.81,5.7-4.03,1.58,4.66-3.74,5.08-5.24,7.96-.7,1.34-2.54,5.11-6.1,3.53Z"/>
      <path class="cls-3" d="m640.68,701.78c-1.42-.39-3.51.49-3.67-2.18-.16-2.55-.15-5.16-3.68-5.85-.89-.18-.36-2.09-.29-3.22,5.75.59,8.12,4.07,7.64,11.26Z"/>
      <path class="cls-3" d="m152.77,393.64c-.36,3.47-4.86,7.98-7.95,7.96.28-5.09,2.98-7.8,7.95-7.96Z"/>
      <path class="cls-3" d="m144.97,733.52c1.59-1.23,3.31-1.39,3.65.86.51,3.44,3.61,4.5,5.33,6.79-5.07.61-8.69-2.49-8.97-7.66Z"/>
      <path class="cls-3" d="m433.77,682.62c.01,6.2-4.81,3.48-7.77,4.21-.31-6.76,4.84-3.43,7.77-4.21Z"/>
      <path class="cls-3" d="m441.84,678.67c-.24,6.32-5.1,3.17-8.05,3.93.06-6.67,5.09-3.19,8.05-3.93Z"/>
      <path class="cls-3" d="m644.44,710.03c-6.46-.38-2.89-5.33-3.77-8.25,7.09.09,3.21,5.19,3.77,8.25Z"/>
      <path class="cls-3" d="m800.7,213.84c-6.31-.08-3.15-5.06-4.1-7.92,6.94-.25,3.39,4.94,4.1,7.92Z"/>
      <path class="cls-3" d="m632.97,690.4c-2.91.31-4.61-.6-3.89-3.91,3.24-.64,4.36.85,3.89,3.91Z"/>
      <path class="cls-3" d="m796.59,205.92c-3.48.87-4.06-1.23-4.02-3.95,3.22-.6,4.84.43,4.02,3.95Z"/>
      <path class="cls-3" d="m628.96,686.4c-3.17.67-4.54-.58-4.07-3.8,3.07-.57,4.53.59,4.07,3.8Z"/>
      <path class="cls-3" d="m426,686.83c-.05.61-.1,1.22-.15,1.83-1.19-.09-2.58.37-3.26-1.27.98-1.22,2.29-.41,3.41-.56Z"/>
      <path class="cls-1" d="m771.29,823.56c-.51.7-1.02,1.4-1.53,2.1.07-1.02-.05-2.18,1.53-2.1Z"/>
      <path class="cls-1" d="m933.88,479.89c.09.16.19.31.25.48,0,.03-.18.12-.28.19.06-.22.07-.44.03-.67Z"/>
      <path class="cls-1" d="m293.02,901.55c-.31.3-.61.6-.92.9-.08-.45-.16-.89-.24-1.34.39.15.78.29,1.16.44Z"/>
      <path class="cls-1" d="m39.35,652.68c-.43-.1-.85-.2-1.28-.3.31-.29.61-.58.92-.87.12.39.24.78.36,1.18Z"/>
      <path class="cls-1" d="m429.61,932.8l-.3.28s-.28-.31-.28-.31c.19.06.38.07.58.02Z"/>
      <path class="cls-4" d="m28.8,316.66c-.05.14-.1.28-.15.42-.14-.16-.31-.3-.4-.49-.02-.04.19-.21.3-.32.08.13.17.26.25.39Z"/>
      <path class="cls-1" d="m280.66,41.12c-.11.1-.23.29-.34.29-.11,0-.23-.18-.35-.28.11-.1.23-.29.34-.29.11,0,.23.18.35.28Z"/>
      <path class="cls-4" d="m615.63,26.43c.2.21.39.41.59.62-.32-.12-.64-.23-.96-.35,0,0,.37-.27.37-.27Z"/>
      <path class="cls-2" d="m367.77,572.78c-.89-2.08-.46-4.27-.46-6.4-.03-45.09,0-90.19-.04-135.28,0-8.47-.19-16.94-.29-25.41,1.77-6.28-1.85-11.82-7.89-12.11-.42-.1-.84-.2-1.24-.29,2.12-4.11-1.19-3.49-3.23-3.5-15.21-.1-30.42-.1-45.63-.13-.07-19.15-.19-38.29-.19-57.44,0-27.81.09-55.62.14-83.43,53.8-.04,107.61-.11,161.41-.12,89.95-.02,179.91.01,269.86-.05,3.56,0,5.76.06,5.75,4.84-.14,104.45-.14,208.89-.02,313.34,0,4.78-1.3,6.05-6.13,6.04-120.77-.14-241.54-.11-362.31-.11q-6.68,0-6.69-6.74c0-50.14,0-100.28-.05-150.42,0-1.74.75-3.82-1.14-5.52-1.25,2.37-.75,4.56-.75,6.66-.03,49.97-.01,99.95-.07,149.92,0,2.05.88,4.36-1.03,6.14Z"/>
      <path class="cls-2" d="m351.72,412.78c.04,22.98.11,45.97.11,68.95.02,61.29,0,122.58,0,183.88,0,1.66-.07,3.33-.11,4.99-2.98-.31-4.22,1.08-3.92,3.99-61.15.02-122.3.02-183.45.12-3.14,0-4.63-.71-4.32-4.11.23-2.48.01-4.99.01-7.49,0-82.31-.02-164.63.02-246.94,0-8.32-.98-7.26,7.12-7.27,59.48-.06,118.97-.04,178.45-.03,1.66,0,3.32.18,4.98.28.39,1.21-2.08,3.27,1.1,3.64Z"/>
      <path class="cls-3" d="m367.77,572.78c1.91-1.77,1.03-4.09,1.03-6.14.06-49.97.04-99.95.07-149.92,0-2.1-.5-4.29.75-6.66,1.89,1.7,1.14,3.78,1.14,5.52.05,50.14.04,100.28.05,150.42q0,6.73,6.69,6.74c120.77,0,241.54-.03,362.31.11,4.83,0,6.14-1.26,6.13-6.04-.12-104.45-.12-208.89.02-313.34,0-4.79-2.19-4.85-5.75-4.84-89.95.06-179.91.03-269.86.05-53.8.01-107.61.08-161.41.12-.95-3.85.84-4.57,4.12-3.61,1.17,3.03,3.76,1.51,5.62,1.52,91.78.09,183.56.08,275.35.08,48.64,0,97.28,0,145.92-.06,1.97,0,4.42,1.14,5.84-1.44,3.08-1.06,4.32.06,4.11,3.27-.14,2.15.02,4.33.02,6.5,0,103.63,0,207.26,0,310.9,0,10.78,0,10.74-10.59,10.74-120.96,0-241.92,0-362.88,0-1.67,0-3.34-.16-5-.03-2.91.23-3.85-1.25-3.68-3.87Z"/>
      <path class="cls-3" d="m256.1,694.57c2.33,0,4.66-.04,7,0,6.38.15,10.48,3.45,10.47,9.95,0,3.48,4.14,4.31,3.28,7.77-1.69,6.76-3.69,12.94-9.57,17.8-6.18,5.12-12.55,3.9-19,2.57-4.21-.87-6.58-5.12-9.63-7.88-5.05-4.57-5.16-11.72-3.11-17.13,1.57-4.14,2.72-9.73,7.26-12.28,3.07-1.73,6.85-.59,10.3-.85.99-.07,2-.01,3-.01v.06Z"/>
      <path class="cls-4" d="m745.77,245.28c-1.42,2.58-3.88,1.43-5.84,1.44-48.64.07-97.28.06-145.92.06-91.78,0-183.56,0-275.35-.08-1.86,0-4.46,1.52-5.62-1.52,4.99-.05,9.99-.15,14.98-.15,112.1,0,224.2-.02,336.3,0,27.15,0,54.29.16,81.44.24Z"/>
      <path class="cls-4" d="m487.68,624c-.55,2.5-2.58,1.64-4.05,1.64-33.53.04-67.06.03-100.59.03-1.66,0-3.35.15-4.73-1.06,1.33-1,2.89-.64,4.33-.64,35.01-.02,70.02,0,105.04.02Z"/>
      <path class="cls-3" d="m308.98,389.65c15.21.03,30.42.03,45.63.13,2.04.01,5.36-.61,3.23,3.5-.24-.11-.39-.28-.45-.5-.77-.58-1.29-.42-1.53.53-14.77.8-29.56.17-44.34.33-3.25.04-2.87-1.92-2.54-4Z"/>
      <path class="cls-3" d="m359.09,393.58c6.05.28,9.66,5.83,7.89,12.11-3.92-3.19-5.71-7.78-7.89-12.11Z"/>
      <path class="cls-3" d="m347.81,674.59c-.3-2.91.94-4.3,3.92-3.99,1,3.59-.34,4.88-3.92,3.99Z"/>
      <path class="cls-3" d="m351.72,412.78c-3.18-.37-.71-2.43-1.1-3.64,2.52.57,1.17,2.29,1.1,3.64Z"/>
      <path class="cls-4" d="m355.86,393.32c.24-.95.76-1.11,1.53-.53-.51.18-1.02.35-1.53.53Z"/>
      <path class="cls-4" d="m373.39,624.62c-.75.52-1.29.43-1.54-.53.51.18,1.02.35,1.54.53Z"/>
      <path class="cls-4" d="m644.83,720.68c.12.21.27.42.34.64.02.06-.2.19-.31.28-.09-.31-.1-.62-.03-.93Z"/>
      <path class="cls-4" d="m413.89,709.7c-.95-.48-.65-.86.1-1.2-.03.4-.07.8-.1,1.2Z"/>
    </g>
  </g>
</svg>