<?xml version="1.0" encoding="utf-8"?>
<!-- Generator: Adobe Illustrator 27.3.1, SVG Export Plug-In . SVG Version: 6.00 Build 0)  -->
<svg version="1.1" id="Слой_1" xmlns="http://www.w3.org/2000/svg" xmlns:xlink="http://www.w3.org/1999/xlink" x="0px" y="0px"
	 viewBox="0 0 1920 1080" style="enable-background:new 0 0 1920 1080;" xml:space="preserve">
<style type="text/css">
	.st0{fill:#9F2DFF;}
	.st1{fill:#FFFFFF;}
</style>
<g>
	<path class="st0" d="M-583.9,1161c0,20.7,0,41.3,0,62c-1.6,2.8-1.7,5.9-1.9,8.9c-0.9,12.7-2.7,25.2-5.4,37.6
		c-6.3,28.9-17,56.3-31.7,82c-11.5,20.1-25.2,38.7-40.7,55.7c-13.8,15.1-28.4,29.3-44.6,41.8c-20.6,15.7-42.5,29.1-66.3,39.6
		c-31.5,13.9-64.6,21.6-98.8,22.9c-26.3,1.1-52.7,1.5-79-1.5c-19.4-2.2-38.2-6.3-56.7-12.1c-19.2-6-37.3-14.6-54.8-24.5
		c-20.7-11.8-39.6-26.1-57-42.3c-8.2-7.7-15.7-16.2-23.5-24.4c-8.9-9.3-17.1-19.2-24.6-29.7c-13.6-19.1-24.8-39.6-33.8-61.4
		c-12.5-30.3-19.4-61.9-20.6-94.5c-0.8-22-1.1-44.2,0.6-66.3c0.9-11.7,2-23.3,4.4-34.8c6.2-30.7,17-59.8,32.6-87.1
		c13-22.8,29.1-43.1,46.9-62.2c13.2-14.2,27.2-27.4,42.8-39c15.6-11.6,31.9-22.2,49.4-30.7c20.6-10,41.9-18,64.3-22.8
		c10.7-2.3,21.6-4.1,32.5-5.4c8.7-1,17.4-2.1,26.1-1.9c0.5,0,1.1-0.6,1.6-0.9c12.6,0,25.3,0,37.9,0c0.9,1.5,2.4,1,3.6,1
		c13.9-0.2,27.6,2.1,41.2,4.3c16.8,2.8,33.3,7.2,49.2,13.5c17.7,7,35,14.8,51.4,24.8c23,13.9,43.3,31.1,62.7,49.5
		c9.6,9,17.5,19.7,26.1,29.8c14.3,16.9,26.2,35.5,36,55.1c8,15.9,14.6,32.7,19,50.2c3.8,15,7.1,30,8.6,45.5
		C-586.1,1149.5-586.5,1155.6-583.9,1161z M-918.2,1302.9c-0.8,7-4,13.5-2.2,21c3.3,13.6,11.1,23,23.9,28.3
		c5.7,8.9,15.4,10.9,24.2,10.4c20.6-1.2,36.5-19.9,32.7-40.3c-1.5-7.8-3.9-16.2-12.5-20.2c-0.5-1.5-2.7-2.2-2.3-4.2
		c0.2-1.1-0.1-2.3,1.4-2.9c11.9-4.8,18.4-14.5,22.7-26c6.8-18.2,12.1-36.9,18.7-55.2c6.2-17.5,11.3-35.5,16.9-53.2
		c5.7-17.9,11.5-35.7,17.4-53.5c1.9-5.7,5.9-9.6,11.3-12.6c5.5-3.1,11.2-2.6,16.9-2.6c14.1-0.1,28.2,0,42.4-0.1
		c6.1,0,11.5-3.7,12.8-8.2c1.7-5.9,0.2-9.3-6.1-13.7c-1.2-0.8-2.2-1.9-3.4-2.8c-3-7.4-6.8-10.2-14.4-10.2c-15.1,0-30.3,0.1-45.4,0
		c-7.6-0.1-14.8,0.9-21.7,4.2c-8,3.8-14.9,8.8-20.2,16.1c-4.5,6.2-6.9,13.1-9.1,20.2c-1,3.3-2.3,4.8-6.2,3.2c-2.7-1.2-6-1.6-9-1.6
		c-49.4-0.1-98.7-0.2-148.1-0.2c-29.8,0-59.5-0.2-89.3,0.2c-11.2,0.2-20.4,5.4-25.5,15.9c-4.7,9.7-2.5,19.1,1.3,28.7
		c8.9,22.2,17.7,44.4,26,66.8c5.2,14.1,12.1,26.4,25.7,33.9c2.1,1.2,3.8,3,6.5,2.7c0.5,0.9,0.7,2,1.4,2.6
		c7.9,6.9,17.4,10.1,27.6,10.2c41.2,0.3,82.3,0.1,123.5,0.1c2.2,0,4.8-0.7,6.3,1.9c-4.1,4.8-9.6,5.2-15.5,5.2
		c-47.5-0.2-94.9-0.1-142.4-0.1c-8,0-14.7,5.6-15,12.5c-0.3,7.3,4.8,12.6,13.1,13.7c0.4,3.1,2.9,5,4.1,7.7c-1.7,5.1-4.1,10-4.2,15.4
		c-0.1,15.9,8.7,29.2,24.1,35.8c0.5,0.8,0.8,2,1.6,2.5c8.3,5,16.7,9.5,27.2,7.4c16.6-3.3,29.3-18.5,29-34.4
		c-0.1-7.3-2.8-13.5-6.6-19.4c-1.9-2.9-2.9-4.8,2.1-5.4c12.4-1.6,24.8-0.4,37.3-0.6C-919,1302.1-918.6,1302.7-918.2,1302.9z"/>
	<path d="M-896.5,1352.2c-12.8-5.3-20.6-14.7-23.9-28.3c-1.8-7.5,1.3-14,2.2-21c1.8-0.5,7-6.9,6.9-8.5c-0.2-2.3-1.9-1.4-3-1.4
		c-17.5-0.1-34.9-0.1-52.4,0c-0.9,0-2.9-0.8-2.7,0.7c0.1,1.3-1.2,2.3,0.4,4.4c5.7,7.4,7.3,16.4,5.8,25.5c-1.1,6.4-3.6,12.2-8.7,17
		c-6,5.7-12.4,9.6-20.5,11.4c-6,1.3-11.6,0.1-17.4,0c-15.3-6.6-24.2-19.9-24.1-35.8c0-5.4,2.5-10.4,4.2-15.4c2.2-2,3.5-4.6,5-7.7
		c-3.4,0-6.2,0-9.1,0c-8.3-1.1-13.5-6.4-13.1-13.7c0.3-6.9,7-12.5,15-12.5c47.5,0,94.9-0.1,142.4,0.1c5.9,0,11.4-0.4,15.5-5.2
		c5.8-0.1,8.9-3.1,8.8-8.3c-0.1-1.8-0.3-2.4-2.4-2.7c-6.6-0.9-13.1-0.8-19.7-0.8c-32.7,0-65.4,0.1-98.1,0
		c-15.8-0.1-31.8,1.5-47.4-2.9c-2.7,0.2-4.3-1.6-6.5-2.7c-13.6-7.5-20.5-19.8-25.7-33.9c-8.3-22.4-17.1-44.6-26-66.8
		c-3.8-9.5-6.1-19-1.3-28.7c5.1-10.5,14.3-15.7,25.5-15.9c29.7-0.5,59.5-0.2,89.3-0.2c49.4,0,98.7,0,148.1,0.2c3,0,6.3,0.4,9,1.6
		c3.8,1.6,5.2,0,6.2-3.2c2.2-7.1,4.7-14,9.1-20.2c5.3-7.3,12.2-12.3,20.2-16.1c6.9-3.3,14.2-4.2,21.7-4.2c15.1,0.1,30.3,0,45.4,0
		c7.6,0,11.4,2.8,14.4,10.2c-0.7,4.9-1.2,9.5-5.9,12.8c-1.9,1.3-4.2,0.3-5.6,2.2c-18.4-0.1-36.9-0.1-55.3-0.2
		c-0.4,0-0.8,0.4-1.2,0.7c-5.6,2.3-10.9,4.9-14.1,10.6c-5.8,10.2-8.2,21.6-11.8,32.5c-7,21.4-14.2,42.7-20.7,64.2
		c-6.3,20.9-13.8,41.4-21,62.1c-2,5.7-2.4,11.9-6.3,17c-4.8,6.3-9.8,12.3-17,16c-1.5,0.8-2.6,3.4-1.7,4c3.8,2.4,5.3,7.2,9.6,8.9
		c-0.4,2,1.8,2.6,2.3,4.2c0,1.3-0.4,2.8,0,3.9c3.9,10.7,2.8,20.9-3.2,30.4c-3.9,6.3-9.3,11-16.4,13.5
		C-879.8,1353-888,1353.8-896.5,1352.2z M-872.6,1314.8c-0.1-4.6-2.8-7-6.7-8.8c-3.8-1.7-8.5-2.2-11.4-0.5
		c-4.4,2.5-8.3,6.7-7.7,13.1c0.4,4.1,4.7,10.9,8.5,12.2c0.9,0.3,2,0.5,2.5-0.8C-876.8,1329.9-871.9,1324.8-872.6,1314.8z M-986,1315
		c1.3-0.9-0.1-1.8-0.3-2.4c-3.3-8.7-16.3-10.8-22.2-3.6c-3,3.6-3.1,15.4,0.7,18.1c2.2,1.5,4.4,6.1,8.5,2.7c6.6,0.5,9.9-1.5,12.4-6.5
		C-985.5,1320.5-986.6,1317.7-986,1315z M-844.6,1192.2c0.5-1.7,1-3.4,1.6-5c1.5-3.7,0.8-5.2-3.6-5.2c-14.9,0.2-29.9,0.1-44.8,0
		c-3,0-4.2,1-4.9,4c-2.6,10.4-5.7,20.7-8.3,31.1c-0.7,2.6-2.8,5.3-0.4,8.1c1.3,1.5,3.1,0.7,4.6,0.7c9.5-0.3,19-1.4,28.5-1.1
		c8.2,0.3,17.7-6.9,20.6-14.6C-849,1204.2-848,1197.8-844.6,1192.2z M-827.4,1136c3.3-2.4,3.3-5.9,2.8-9.3c-0.5-3.2-4.1-2.4-5.9-2.5
		c-15.5-0.3-30.9-0.2-46.4-0.2c-1.5,0-2.9,0.2-3.3,1.7c-3.2,12.1-6.3,24.3-9.4,36.4c-1.6,5.8-1.6,5.8,4,5.8
		c8.2,0.1,16.3-1.8,24.6-1.3c6.8,0.4,13.6,0,20.4,0.2c2.5,0,3.7-0.7,4.5-3.3C-833.5,1154.3-830.3,1145.2-827.4,1136z
		 M-1030.9,1220.3c2.1,1,4.3,1.8,6.4,2.9c1.7,0.9,3.3,2,5.4,1.9c10.1-0.1,20.2-0.2,30.3-0.1c3.4,0,4.1-0.6,3.1-4.2
		c-2.8-9.4-4.9-19-7.3-28.5c-0.6-8.9-1.8-10-10.4-10c-13.5,0-26.9,0-40.4,0c-4.6,0-5.1,0.9-3.4,5.2c0.5,1.2,0.8,2.5,1.3,3.6
		C-1041.1,1200.8-1039.9,1212.5-1030.9,1220.3z M-960.9,1225c11.5-0.1,22.9-0.2,34.4-0.1c3,0,4.7-0.5,5.4-4c1.2-6,3.1-11.9,4.9-17.7
		c1.1-3.7,1.3-7.7,3.7-10.9c0.6-2.1,1.2-4.3,1.9-6.4c0.9-2.8,0.2-3.8-2.9-3.8c-21.2,0.1-42.4,0.1-63.7,0c-3,0-3.4,1.1-2.7,3.5
		c3.5,11.6,5.8,23.6,9.7,35.1C-968.3,1226.6-967,1227.4-960.9,1225z M-1048.1,1166.7c14.7,0,29.5,0.1,44.2,0.1
		c2.2,0,3.8,0.2,2.9-3.1c-2.8-9.6-5.3-19.2-8-28.8c1.6-6.9-1.2-10.8-7.8-10.8c-13.9,0-27.9,0-41.8,0c-11.8,0-11.5-0.1-8.4,11.1
		c2.8,10,7.5,19.3,10.9,29.1C-1054.7,1168.5-1051.8,1169.4-1048.1,1166.7z M-977,1167c2.2-0.1,4.3-0.2,6.5-0.2
		c20.1,0,40.1,0,60.2-0.1c1.5,0,3.4,1,4.3-1.9c3-9.9,5.9-19.7,7.9-29.8c3.7-0.3,1.9-3.6,2.6-5.3c2.3-5.4,2-5.6-3.7-5.6
		c-29.7,0-59.4,0-89.1,0c-2.5,0-5.6-0.7-7.2,0.5c-1.7,1.4,1.4,3.6,1.6,5.6c1.4,11.4,5.7,22,8.1,33.1
		C-984.8,1168.7-982.7,1169.2-977,1167z"/>
	<path class="st1" d="M-714.9,1082.3c1.3-1.9,3.7-0.9,5.6-2.2c4.7-3.3,5.2-8,5.9-12.8c1.1,0.9,2.2,2,3.4,2.8
		c6.2,4.4,7.8,7.8,6.1,13.7c-1.3,4.5-6.7,8.2-12.8,8.2c-14.1,0.1-28.2,0-42.4,0.1c-5.7,0-11.4-0.5-16.9,2.6
		c-5.3,3-9.4,6.9-11.3,12.6c-6,17.8-11.7,35.6-17.4,53.5c-5.7,17.7-10.7,35.7-16.9,53.2c-6.5,18.3-11.9,37-18.7,55.2
		c-4.3,11.4-10.7,21.2-22.7,26c-1.5,0.6-1.2,1.8-1.4,2.9c-4.3-1.7-5.9-6.5-9.6-8.9c-0.9-0.6,0.2-3.2,1.7-4c7.2-3.7,12.2-9.6,17-16
		c3.8-5.1,4.3-11.3,6.3-17c7.2-20.6,14.7-41.2,21-62.1c6.5-21.5,13.7-42.9,20.7-64.2c3.6-10.9,5.9-22.4,11.8-32.5
		c3.2-5.7,8.5-8.2,14.1-10.5c18.1,0.1,36.1,0.1,54.2,0.1C-716.5,1083-715.7,1082.5-714.9,1082.3z"/>
	<path class="st1" d="M-1032.9,1247.2c15.6,4.4,31.5,2.8,47.4,2.9c32.7,0.2,65.4,0,98.1,0c6.6,0,13.2-0.1,19.7,0.8
		c2,0.3,2.3,0.9,2.4,2.7c0.2,5.2-3,8.2-8.8,8.3c-1.5-2.6-4-1.9-6.3-1.9c-41.2,0-82.4,0.1-123.5-0.1c-10.2-0.1-19.7-3.3-27.6-10.2
		C-1032.1,1249.2-1032.4,1248.1-1032.9,1247.2z"/>
	<path class="st1" d="M-1009.9,1352.2c5.8,0.1,11.5,1.3,17.4,0c8.1-1.8,14.6-5.7,20.5-11.4c5.1-4.9,7.6-10.7,8.7-17
		c1.5-9.1-0.1-18.2-5.8-25.5c-1.6-2.1-0.3-3.1-0.4-4.4c-0.2-1.5,1.8-0.7,2.7-0.7c17.5-0.1,34.9-0.1,52.4,0c1.1,0,2.8-0.9,3,1.4
		c0.1,1.5-5.1,8-6.9,8.5c-0.4-0.3-0.8-0.8-1.2-0.8c-12.4,0.2-24.8-1-37.3,0.6c-5,0.6-4,2.5-2.1,5.4c3.8,5.9,6.5,12.1,6.6,19.4
		c0.3,15.9-12.5,31.2-29,34.4c-10.5,2.1-18.9-2.3-27.2-7.4C-1009.1,1354.2-1009.4,1353-1009.9,1352.2z"/>
	<path class="st1" d="M-896.5,1352.2c8.5,1.6,16.7,0.8,24.8-2.1c7.1-2.5,12.5-7.3,16.4-13.5c5.9-9.6,7-19.8,3.2-30.4
		c-0.4-1.2,0-2.6,0-3.9c8.6,4,11,12.3,12.5,20.2c3.9,20.4-12.1,39.1-32.7,40.3C-881.1,1363.1-890.8,1361.1-896.5,1352.2z"/>
	<path class="st1" d="M-1033.9,1293.2c2.9,0,5.7,0,9.1,0c-1.5,3.1-2.8,5.7-5,7.7C-1030.9,1298.3-1033.4,1296.3-1033.9,1293.2z"/>
	<path class="st0" d="M-898.2,1135c-2,10.1-5,20-7.9,29.8c-0.9,2.9-2.8,1.9-4.3,1.9c-20.1,0.1-40.1,0-60.2,0.1
		c-2.2,0-4.3,0.1-6.5,0.2c-2.2-9-4.4-17.9-6.6-26.9c-1.4-5.6-1-6.1,4.5-6.1c25.3,0,50.5,0,75.8,0
		C-901.6,1134-899.6,1133.3-898.2,1135z"/>
	<path class="st0" d="M-1009,1134.9c2.6,9.6,5.2,19.3,8,28.8c1,3.3-0.7,3.1-2.9,3.1c-14.7-0.1-29.5-0.1-44.2-0.1
		c-3.4-8.7-6.8-17.5-10.2-26.2c-2.2-5.6-1.7-6.5,4.4-6.5c13.7-0.1,27.5-0.1,41.2,0C-1011.4,1134-1009.9,1133.6-1009,1134.9z"/>
	<path class="st0" d="M-912.5,1192.2c-2.5,3.2-2.6,7.2-3.7,10.9c-1.8,5.9-3.6,11.7-4.9,17.7c-0.7,3.5-2.4,4-5.4,4
		c-11.5-0.1-22.9,0.1-34.4,0.1c-2.5-9.4-5.3-18.7-7.7-28.1c-1.2-4.9,0.7-4.9,4.3-4.9c13.9,0.1,27.9-0.1,41.8,0.1
		C-919.2,1192.1-915.8,1189.8-912.5,1192.2z"/>
	<path class="st0" d="M-993.1,1192.1c2.4,9.5,4.5,19.1,7.3,28.5c1.1,3.6,0.3,4.3-3.1,4.2c-10.1-0.1-20.2,0-30.3,0.1
		c-2.1,0-3.7-1-5.4-1.9c-2.1-1.1-4.2-1.9-6.4-2.9c3.2-1.3,2.1-4,1.4-5.9c-2-5.2-4.2-10.3-6.6-15.3c-2.3-4.9-1.1-7,4.2-7
		C-1019,1192-1006,1192.1-993.1,1192.1z"/>
	<path class="st0" d="M-827.4,1136c-3,9.2-6.1,18.3-8.8,27.5c-0.8,2.7-2,3.4-4.5,3.3c-6.8-0.1-13.6,0.2-20.4-0.2
		c-8.3-0.5-16.3,1.4-24.6,1.3c-5.6-0.1-5.6,0-4-5.9c0.6,1.7-1.1,5.2,2.5,4.8c3.4-0.5,7.9,2.9,10.2-2.8c3.3-8.3,4.8-17.1,7.2-25.7
		c0.9-3.4,2.3-4.3,5.3-4.4c11.4-0.5,22.8,1,34.2-0.8C-828.3,1132.9-827.6,1134.4-827.4,1136z"/>
	<path class="st1" d="M-898.2,1135c-1.4-1.7-3.4-1-5.1-1c-25.3-0.1-50.5,0-75.8,0c-5.6,0-5.9,0.5-4.5,6.1c2.2,9,4.4,17.9,6.6,26.9
		c-5.7,2.3-7.8,1.7-8.9-3.6c-2.4-11.1-6.8-21.8-8.1-33.1c-0.3-2.1-3.4-4.3-1.6-5.6c1.6-1.2,4.8-0.5,7.2-0.5c29.7,0,59.4,0,89.1,0
		c5.7,0,6.1,0.2,3.7,5.6C-896.3,1131.4-894.5,1134.7-898.2,1135z"/>
	<path class="st0" d="M-844.6,1192.2c-3.4,5.6-4.4,12-6.7,18c-2.9,7.7-12.4,14.9-20.6,14.6c-9.6-0.3-19,0.7-28.5,1.1
		c-1.5,0.1-3.3,0.8-4.6-0.7c3-0.1,6-0.2,9-0.1c2.2,0,3.3-0.3,3.9-3.1c2-9,4.6-17.8,6.9-26.7c0.5-1.8,1.1-3.4,3.6-3.4
		C-869.4,1192.1-857,1192.1-844.6,1192.2z"/>
	<path class="st1" d="M-827.4,1136c-0.2-1.6-0.9-3.1-2.8-2.8c-11.4,1.7-22.8,0.3-34.2,0.8c-3,0.1-4.4,1.1-5.3,4.4
		c-2.4,8.6-3.9,17.4-7.2,25.7c-2.3,5.7-6.8,2.3-10.2,2.8c-3.6,0.5-1.9-3-2.5-4.8c3.1-12.1,6.2-24.3,9.4-36.4
		c0.4-1.4,1.8-1.7,3.3-1.7c15.5,0,30.9-0.1,46.4,0.2c1.8,0,5.4-0.8,5.9,2.5C-824.1,1130.1-824.1,1133.7-827.4,1136z"/>
	<path class="st1" d="M-844.6,1192.2c-12.4-0.1-24.7-0.1-37.1-0.2c-2.4,0-3.1,1.6-3.6,3.4c-2.4,8.9-5,17.7-6.9,26.7
		c-0.6,2.7-1.6,3.1-3.9,3.1c-3-0.1-6,0.1-9,0.1c-2.4-2.8-0.3-5.5,0.4-8.1c2.7-10.4,5.7-20.7,8.3-31.1c0.7-3,1.9-4,4.9-4
		c14.9,0.1,29.9,0.2,44.8,0c4.4-0.1,5.1,1.5,3.6,5.2C-843.7,1188.8-844.1,1190.5-844.6,1192.2z"/>
	<path class="st1" d="M-912.5,1192.2c-3.3-2.4-6.7-0.2-10.1-0.2c-13.9-0.1-27.9,0-41.8-0.1c-3.6,0-5.5,0-4.3,4.9
		c2.4,9.4,5.1,18.7,7.7,28.1c-6.1,2.4-7.3,1.7-9.3-4.3c-3.8-11.6-6.2-23.5-9.7-35.1c-0.7-2.4-0.2-3.5,2.7-3.5
		c21.2,0.1,42.4,0.1,63.7,0c3.1,0,3.8,1,2.9,3.8C-911.3,1187.9-911.9,1190.1-912.5,1192.2z"/>
	<path class="st1" d="M-1009,1134.9c-0.9-1.4-2.4-0.9-3.6-0.9c-13.7,0-27.5-0.1-41.2,0c-6.1,0-6.6,0.9-4.4,6.5
		c3.4,8.7,6.8,17.5,10.2,26.2c-3.7,2.6-6.5,1.8-8-2.4c-3.4-9.8-8.1-19-10.9-29.1c-3.1-11.2-3.3-11.1,8.4-11.1c13.9,0,27.9,0,41.8,0
		C-1010.2,1124.1-1007.4,1128-1009,1134.9z"/>
	<path class="st1" d="M-993.1,1192.1c-13-0.1-25.9-0.1-38.9-0.2c-5.3,0-6.5,2.2-4.2,7c2.4,5,4.6,10.1,6.6,15.3
		c0.7,1.9,1.8,4.6-1.4,5.9c-9-7.7-10.2-19.5-15-29.4c-0.6-1.1-0.9-2.4-1.3-3.6c-1.7-4.3-1.2-5.2,3.4-5.2c13.5,0,26.9,0,40.4,0
		C-994.9,1182.1-993.7,1183.2-993.1,1192.1z"/>
	<path class="st1" d="M-999.3,1329.8c-4.1,3.4-6.4-1.2-8.5-2.7c-3.8-2.6-3.7-14.5-0.7-18.1c5.9-7.1,18.9-5,22.2,3.6
		c0.2,0.6,1.6,1.4,0.3,2.4C-994.2,1313.2-1001.7,1321.5-999.3,1329.8z"/>
	<path class="st1" d="M-887.3,1330c-0.5,1.2-1.6,1.1-2.5,0.8c-3.8-1.3-8.1-8.1-8.5-12.2c-0.6-6.3,3.2-10.6,7.7-13.1
		c2.9-1.6,7.6-1.2,11.4,0.5c3.9,1.8,6.6,4.2,6.7,8.8c-4.3-2.2-8-0.3-10.9,2.4C-887,1320.5-888.8,1324.9-887.3,1330z"/>
	<path class="st0" d="M-887.3,1330c-1.5-5.1,0.3-9.5,3.9-12.8c2.9-2.6,6.6-4.6,10.9-2.4C-871.9,1324.8-876.8,1329.9-887.3,1330z"/>
	<path class="st0" d="M-999.3,1329.8c-2.4-8.3,5.1-16.6,13.2-14.8c-0.5,2.7,0.5,5.5-0.9,8.3
		C-989.3,1328.3-992.7,1330.2-999.3,1329.8z"/>
	<path class="st0" d="M-714.9,1082.3c-0.8,0.2-1.5,0.7-2.3,0.7c-18.1,0-36.1-0.1-54.2-0.1c0.4-0.2,0.8-0.7,1.2-0.7
		C-751.8,1082.2-733.4,1082.2-714.9,1082.3z"/>
</g>
</svg>
