<?xml version="1.0" encoding="UTF-8"?>
<svg id="_Слой_2" data-name="Слой 2" xmlns="http://www.w3.org/2000/svg" viewBox="0 0 1198.83 1197.62">
  <defs>
    <style>
      .cls-1 {
        fill: #611833;
      }

      .cls-2 {
        fill: #fefffd;
      }

      .cls-3 {
        fill: #c2175b;
      }
    </style>
  </defs>
  <g id="_Слой_1-2" data-name="Слой 1">
    <g>
      <path class="cls-3" d="m1198.83,566.74v65.99c-1.13.57-.88,1.65-.97,2.61-1.35,14.6-2.12,29.28-4.2,43.77-2.96,20.59-6.61,41.06-11.59,61.32-5.67,23.06-12.8,45.59-20.85,67.93-8.58,23.79-18.94,46.7-30.68,69.01-12,22.8-25.63,44.65-40.52,65.67-15.04,21.23-30.71,42-48.75,60.86-8.04,8.4-15.78,17.1-24.09,25.21-14.22,13.87-29.06,27.05-45,38.97-8.14,6.08-15.62,13.1-24.07,18.71-16.49,10.94-32.61,22.46-49.94,32.17-17.27,9.67-34.79,18.84-52.78,27.04-17.54,8-35.61,14.67-53.8,21.14-16.17,5.76-32.54,10.58-49.15,14.63-16.13,3.93-32.31,7.78-48.83,9.88-10.76,1.37-21.36,3.82-32.29,4.26-3.35.14-7.15-.08-10.39,1.73h-100.98c-4.77-2.33-10.07-1.32-15-1.68-13.21-.96-26.16-3.55-39.15-5.61-16.78-2.66-33.32-6.8-49.76-11.29-15.25-4.17-30.33-8.77-45.25-13.97-16.93-5.9-33.49-12.64-49.78-20.13-23.68-10.88-46.61-23.09-68.61-37.04-20.03-12.7-39.52-26.15-57.93-41.15-21.43-17.46-41.72-36.14-60.71-56.2-23.93-25.29-45.43-52.53-64.71-81.52-8.91-13.4-17.51-26.99-25.17-41.17-14.01-25.9-26.48-52.54-36.75-80.11-7.96-21.37-14.86-43.16-20.04-65.4-3.67-15.75-6.85-31.61-9.44-47.62-3.02-18.7-5.58-37.42-6.48-56.27-1.39-29.01-1.83-58.02.52-87.1,1.09-13.48,2.84-26.86,4.67-40.18,2.57-18.79,6.75-37.33,11.27-55.81,5.91-24.2,13.51-47.8,22.49-70.98,12.76-32.91,28.06-64.57,46.56-94.7,19.21-31.29,40.72-60.82,65.18-88.18,19.51-21.83,40.43-42.21,62.86-61.07,33.25-27.96,69.13-51.99,107.5-72.27,21.74-11.49,44.16-21.59,67.24-30.14,18.55-6.88,37.35-13.08,56.51-18.01,30.01-7.71,60.4-13.38,91.3-16.38,17.6-1.71,35.22-2.97,52.87-3.48,26.26-.76,52.39,1.67,78.5,4.53,14.81,1.62,29.44,4.23,44.13,6.51,17.63,2.74,34.82,7.58,51.94,12.48,18.64,5.34,37.04,11.32,55.11,18.63,21.71,8.78,42.94,18.37,63.53,29.43,56.73,30.44,106.99,69.4,151.32,116,36.6,38.48,67.52,81.18,92.69,127.93,16.47,30.59,30.4,62.29,41.05,95.5,5.5,17.18,10.63,34.42,14.98,51.88,4.3,17.25,7.15,34.84,9.62,52.45,1.79,12.71,2.39,25.59,3.98,38.33.54,4.3.13,8.79,1.86,12.93Zm-667.94-88.03c14.61,10.54,29.42,20.66,46.81,26.31,8.72,2.83,17.64,5.63,26.57,6.39,19.64,1.67,39.42,1.41,58.48-4.84,3.99-1.31,5.99.07,8.48,2.59,16.78,16.91,33.65,33.74,50.53,50.55,12.83,12.79,25.71,25.52,37.41,37.13-2.05,2.74-3.45,5.33-5.5,7.23-10.81,10.05-14.84,22.86-12.47,36.76,2.59,15.17,12.42,25.44,27.12,30.52,3.21,1.11,6.01,1.57,5.81,6.2-.12,2.74,1.31,5.73,2.62,8.32,5.74,11.32,14.15,19.55,27.03,22.22,2.51.52,3.95,1.42,4.3,4.39.4,3.39,1.27,6.94,2.85,9.93,13.05,24.67,43.63,29.16,62.43,11.59,3.65-3.41,7.13-7,10.63-10.56,1.34-1.37,2.15-1.99,4.51-1.01,14.46,6.04,31.29,3.87,43.27-7.85,12.15-11.87,24.02-24.04,36.05-36.03,15.55-15.51,13.87-40.91-.18-54.84-14.11-13.99-28.43-27.79-42.5-41.83-10.23-10.21-20.14-20.75-30.32-31.01-17.01-17.14-34.12-34.2-51.22-51.26-28.58-28.51-57.18-56.99-85.78-85.47-1.1-1.09-.91-2.15-.52-3.59,1.59-5.8,3.36-11.61,4.28-17.54,3.43-22.07,1.17-43.8-5.48-65-3.8-12.11-9.56-23.37-16.58-34.08-12.43-18.97-28.67-33.61-48.22-44.83-18.37-10.54-38.39-15.45-59.22-17.58-8.6-.88-17.12.31-25.72,1.09-19.74,1.78-37.72,8.11-54.71,17.93-20.77,12.02-36.91,28.69-49.64,48.86-10.15,16.09-16.82,33.68-18.74,52.41-1.75,17.06-1.88,34.28,2.38,51.42,2.57,10.32,5.5,20.36,10.26,29.73,7.67,15.1,17.55,28.71,29.93,40.4.65.62,2.26.96,1.08,2.44-4.26-2.09-7.11-5.84-10.28-9.12-11.22-11.61-25.12-14.71-40.42-12.72-6.04.79-11.83,3.18-16.58,7.35-9.23,8.11-18.08,16.6-26.91,25.13-8.82,8.52-18.13,16.52-26.6,25.41-1.26,1.33-2.95,2.04-2.96-.39-.01-3.67-2.25-2.92-4.29-2.92-19.99-.01-39.99,0-59.98,0-18.66,0-37.32,0-55.99,0-4.11,0-6.99.21-6.95,6.1.24,39.15.03,78.3-.09,117.46,0,1.44.26,2.66-1.4,4.19-14.37,13.23-28.79,26.43-42.5,40.32-12.15,12.31-15.27,27.59-9.96,43.92,8.12,24.97,39.02,39.05,64.24,21.42,1.22-.86,2.41-2.46,4.43-1.63,0,.69,0,1.35,0,2.01-.06,62.81-.1,125.62-.22,188.43-.01,7.46,1.2,14.72,5.35,20.82,7.71,11.33,18.7,16.45,32.57,16.34,31.99-.26,63.98-.24,95.97-.05,72.61.42,145.22-.94,217.82.69,20.23.46,37.45-15.49,37.44-37.75-.04-61.82-.02-123.63.02-185.45,0-1.73-.51-3.57.44-5.22,1.52-.24,2.17.96,3.06,1.59,9.23,6.55,19.28,8.98,30.54,7,17.33-3.06,29.05-12.97,34.15-29.47,5.17-16.73,1.14-31.85-11.8-44.12-39.71-37.63-79.59-75.1-119.12-112.91-11.37-10.88-23.07-21.41-34.23-32.54-16.61-16.56-33.97-32.37-50.99-48.52-.65-.61-2.25-1.09-.83-2.48Z"/>
      <path class="cls-2" d="m530.89,478.71c-1.42,1.38.18,1.86.83,2.48,17.02,16.15,34.37,31.96,50.99,48.52,11.16,11.12,22.86,21.66,34.23,32.54,39.54,37.82,79.41,75.28,119.12,112.91,12.94,12.26,16.97,27.38,11.8,44.12-5.1,16.5-16.82,26.42-34.15,29.47-11.26,1.98-21.32-.45-30.54-7-.89-.63-1.54-1.83-3.06-1.59-.96,1.65-.44,3.48-.44,5.22-.03,61.82-.05,123.63-.02,185.45.01,22.26-17.21,38.21-37.44,37.75-72.61-1.63-145.22-.27-217.82-.69-31.99-.19-63.98-.21-95.97.05-13.87.11-24.86-5.01-32.57-16.34-4.15-6.1-5.37-13.36-5.35-20.82.12-62.81.16-125.62.22-188.43,0-.66,0-1.33,0-2.01-2.02-.83-3.21.78-4.43,1.63-25.23,17.63-56.13,3.55-64.24-21.42-5.31-16.32-2.19-31.61,9.96-43.92,13.71-13.89,28.13-27.09,42.5-40.32,1.66-1.53,1.39-2.75,1.4-4.19.12-39.15.33-78.31.09-117.46-.04-5.88,2.84-6.1,6.95-6.1,18.66,0,37.32,0,55.99,0,19.99,0,39.99,0,59.98,0,2.03,0,4.27-.75,4.29,2.92,0,2.44,1.7,1.72,2.96.39,8.46-8.89,17.78-16.89,26.6-25.41,8.83-8.53,17.69-17.03,26.91-25.13,4.75-4.17,10.54-6.56,16.58-7.35,15.3-2,29.21,1.11,40.42,12.72,3.17,3.28,6.02,7.02,10.28,9.12l-.05-.1c-.13.86.29,1.17,1.09,1.1l-.11-.07c.37,1.05.71,2.15,2.12,1.02l-.09-.06c-.06.4-.75.64-.16,1.23.59.59.83-.08,1.23-.15l-.1-.08Zm-154.67,99.87c-.23-.67-.47-1.35-.7-2.02.07-11.99.01-23.99.29-35.98.08-3.56-1.02-4.48-4.5-4.45-20.66.16-41.33.22-61.99-.01-4.3-.05-5.19,1.3-5.17,5.34.16,33.33.02,66.65.19,99.98.02,4.04-1.24,6.76-4.11,9.46-15.65,14.71-31.14,29.58-46.67,44.42-2.37,2.27-4.86,4.59-5.54,7.93-1.25,6.1,2.04,13.05,7.31,16.01,5.31,2.99,12.89,2.19,17.53-2.19,22.01-20.82,44.05-41.61,65.9-62.61,20.27-19.48,40.77-38.71,60.95-58.28,14.25-13.82,28.8-27.41,43.48-40.81,13.36-12.2,25.53-25.62,39.13-37.58,2.63-2.31,3.72-1.47,5.49.22,8.59,8.23,17.15,16.49,25.79,24.67,21.67,20.53,43.43,40.95,65.04,61.53,24.84,23.65,49.54,47.44,74.33,71.14,13.69,13.09,27.43,26.14,41.17,39.19,4.25,4.04,8.59,7.42,15.22,6.4,7.54-1.15,13.11-9.26,12.03-16.61-.95-6.45-5.5-9.57-9.5-13.39-22.23-21.22-44.48-42.43-66.78-63.57-24.61-23.33-49.33-46.56-73.93-69.91-6.23-5.91-11.82-12.54-18.35-18.07-9.09-7.68-17.36-16.19-26.13-24.19-10.83-9.87-21.19-20.24-32.01-30.12-5.9-5.4-14.48-4.41-20.47.67-9.48,8.02-17.97,17.05-27.01,25.51-14.08,13.17-27.97,26.54-42.02,39.74-9.71,9.12-19.3,18.36-28.95,27.55Zm-57.47,242.43c0,36.49,0,72.98,0,109.47,0,7.42,1.85,9.29,9.37,9.3,34.49,0,68.99-.08,103.48.1,3.89.02,4.53-1.06,4.52-4.66-.14-42.49-.1-84.98-.09-127.47,0-7.24,2.55-9.75,9.87-9.75,25.66,0,51.32,0,76.98,0,8.76,0,11.04,2.22,11.04,10.92.01,41.32.01,82.65,0,123.97,0,6.42.33,6.84,6.69,6.85,31.66.02,63.32.03,94.98.03,3,0,6,.05,9-.06,3.64-.12,6.77-2.6,6.62-5.52-.23-4.44.3-8.77.3-13.14.04-68.82,0-137.63.07-206.45,0-4.43-1.53-7.94-4.68-10.82-3.18-2.9-6.74-5.42-9.65-8.55-16.3-17.52-34.23-33.36-51.22-50.17-14.76-14.61-30.29-28.46-44.88-43.23-16.33-16.54-33.15-32.56-49.75-48.82-3.83-3.76-8.23-4.38-11.18-1.55-18.69,17.97-37.35,35.97-56.04,53.95-12.23,11.77-24.5,23.5-36.74,35.27-21.24,20.43-42.35,40.99-63.79,61.19-3.67,3.45-4.98,6.86-4.96,11.66.13,35.82.07,71.65.08,107.47Z"/>
      <path class="cls-2" d="m526.94,475.82c1.19-1.48-.42-1.83-1.08-2.44-12.38-11.69-22.26-25.29-29.93-40.4-4.76-9.37-7.7-19.4-10.26-29.73-4.27-17.15-4.13-34.36-2.38-51.42,1.92-18.73,8.59-36.32,18.74-52.41,12.73-20.18,28.87-36.85,49.64-48.86,16.99-9.83,34.97-16.15,54.71-17.93,8.6-.78,17.11-1.97,25.72-1.09,20.83,2.13,40.85,7.05,59.22,17.58,19.55,11.22,35.79,25.85,48.22,44.83,7.01,10.71,12.77,21.96,16.58,34.08,6.66,21.19,8.91,42.92,5.48,65-.92,5.93-2.69,11.73-4.28,17.54-.39,1.44-.58,2.5.52,3.59,28.6,28.49,57.2,56.97,85.78,85.47,17.1,17.06,34.2,34.11,51.22,51.26,10.18,10.26,20.09,20.8,30.32,31.01,14.07,14.04,28.38,27.83,42.5,41.83,14.05,13.93,15.73,39.33.18,54.84-12.03,12-23.9,24.16-36.05,36.03-11.99,11.71-28.81,13.88-43.27,7.85-2.36-.99-3.17-.36-4.51,1.01-3.5,3.57-6.98,7.15-10.63,10.56-18.8,17.57-49.38,13.08-62.43-11.59-1.58-2.99-2.45-6.55-2.85-9.93-.35-2.97-1.79-3.86-4.3-4.39-12.88-2.68-21.29-10.9-27.03-22.22-1.31-2.59-2.75-5.58-2.62-8.32.21-4.63-2.59-5.09-5.81-6.2-14.7-5.08-24.53-15.35-27.12-30.52-2.37-13.9,1.66-26.71,12.47-36.76,2.05-1.9,3.45-4.49,5.5-7.23-11.7-11.61-24.58-24.34-37.41-37.13-16.88-16.82-33.75-33.64-50.53-50.55-2.5-2.52-4.5-3.9-8.48-2.59-19.05,6.25-38.84,6.51-58.48,4.84-8.93-.76-17.85-3.56-26.57-6.39-17.39-5.65-32.21-15.77-46.81-26.31,0,0,.1.08.1.08.2-.92-.24-1.2-1.08-1.08,0,0,.09.06.09.06-.32-1.15-.73-2.11-2.12-1.02l.11.07c.53-1.25.23-1.69-1.09-1.1l.05.1Zm-16.3-110.44c-.75,9.13-.22,18.29,1.44,27.19,3.32,17.8,10.59,33.98,22.02,48.23,19.81,24.69,45.37,39.37,76.76,42.86,20.54,2.28,40.59-1.42,59.35-10.16,3.61-1.68,4.83-.82,6.93,1.28,11.41,11.41,22.91,22.74,34.32,34.15,28.63,28.6,57.2,57.26,85.92,85.78,2.54,2.52,2.38,3.74-.1,6.12-8.29,7.96-16.31,16.19-24.43,24.33-5.24,5.25-5.42,11.87-.49,16.87,4.34,4.4,10.85,3.93,15.93-1.14,8.43-8.41,16.92-16.77,25.24-25.29,1.43-1.47,2.28-2.17,3.92-.51,4.8,4.86,9.69,9.62,14.47,14.5,1.75,1.79,2.15,3.42-.11,5.61-8.98,8.68-17.8,17.54-26.54,26.46-4.72,4.82-4.78,12.25-.56,16.52,3.61,3.65,12.31,3.59,16.45-.89,8.46-9.17,17.61-17.71,26.34-26.64,2.14-2.18,3.5-2.24,5.61.05,4.06,4.41,8.22,8.77,12.75,12.67,3.18,2.74,2.45,4.31-.15,6.84-9.42,9.18-18.65,18.55-27.89,27.92-2.56,2.6-3.99,5.94-2.59,9.4,1.36,3.35,2.53,7.58,6.94,8.18,5.53.76,10.31-.29,14.56-5,8.18-9.06,17.12-17.43,25.78-26.05,1.5-1.5,2.95-1.97,4.69.07,2.27,2.65,4.86,5.02,7.37,7.46,6.79,6.61,13.35,6.67,20.1.01,10.31-10.17,20.56-20.42,30.77-30.7,6.39-6.44,6.32-13.45.09-19.87-14.47-14.91-29.65-29.11-43.78-44.39-10.5-11.36-21.96-21.82-32.9-32.78-47.42-47.49-94.79-95.02-142.24-142.48-1.85-1.85-2.17-3.02-1.02-5.65,5.79-13.17,8.61-27.11,9.32-41.46.36-7.41-.85-14.7-1.88-22.03-2.75-19.56-10.98-36.54-23.12-51.87-9.82-12.41-21.59-22.65-35.91-29.19-19.86-9.07-40.54-14.64-62.87-11.26-9.53,1.44-18.9,2.79-28.07,6.11-18.07,6.54-33.09,17.3-45.52,31.65-16.62,19.19-26.01,41.46-26.91,67.04l-.25.03.25.02Z"/>
      <path class="cls-1" d="m318.74,821c0-35.83.06-71.65-.07-107.47-.02-4.8,1.3-8.21,4.96-11.66,21.44-20.21,42.56-40.77,63.79-61.19,12.23-11.77,24.5-23.5,36.74-35.27,18.69-17.98,37.35-35.98,56.04-53.95,2.95-2.83,7.34-2.21,11.18,1.55,16.59,16.26,33.41,32.29,49.75,48.82,14.59,14.77,30.12,28.62,44.88,43.23,16.98,16.82,34.92,32.66,51.22,50.17,2.91,3.13,6.48,5.65,9.65,8.55,3.16,2.88,4.69,6.39,4.68,10.82-.07,68.82-.03,137.63-.07,206.45,0,4.37-.53,8.7-.3,13.14.15,2.92-2.99,5.4-6.62,5.52-3,.1-6,.06-9,.06-31.66,0-63.32,0-94.98-.03-6.36,0-6.69-.43-6.69-6.85.01-41.32.01-82.65,0-123.97,0-8.7-2.28-10.92-11.04-10.92-25.66,0-51.32,0-76.98,0-7.31,0-9.86,2.5-9.87,9.75,0,42.49-.05,84.98.09,127.47.01,3.6-.63,4.68-4.52,4.66-34.49-.18-68.98-.1-103.48-.1-7.52,0-9.37-1.88-9.37-9.3,0-36.49,0-72.98,0-109.47Z"/>
      <path class="cls-1" d="m376.22,578.58c9.64-9.19,19.24-18.43,28.95-27.55,14.05-13.2,27.95-26.58,42.02-39.74,9.04-8.46,17.54-17.49,27.01-25.51,6-5.08,14.57-6.07,20.47-.67,10.81,9.88,21.18,20.25,32.01,30.12,8.77,7.99,17.04,16.51,26.13,24.19,6.54,5.52,12.13,12.16,18.35,18.07,24.6,23.35,49.31,46.58,73.93,69.91,22.3,21.14,44.55,42.35,66.78,63.57,4,3.81,8.55,6.93,9.5,13.39,1.08,7.36-4.48,15.46-12.03,16.61-6.64,1.01-10.97-2.36-15.22-6.4-13.73-13.05-27.47-26.1-41.17-39.19-24.79-23.7-49.49-47.49-74.33-71.14-21.61-20.58-43.38-41.01-65.04-61.53-8.64-8.18-17.19-16.45-25.79-24.67-1.76-1.69-2.86-2.53-5.49-.22-13.6,11.96-25.77,25.38-39.13,37.58-14.68,13.4-29.23,26.98-43.48,40.81-20.18,19.57-40.69,38.8-60.95,58.28-21.85,21-43.88,41.79-65.9,62.61-4.63,4.38-12.22,5.18-17.53,2.19-5.27-2.97-8.56-9.92-7.31-16.01.69-3.34,3.17-5.67,5.54-7.93,15.53-14.84,31.02-29.71,46.67-44.42,2.88-2.7,4.14-5.42,4.11-9.46-.17-33.33-.03-66.65-.19-99.98-.02-4.04.87-5.39,5.17-5.34,20.66.23,41.32.17,61.99.01,3.48-.03,4.58.89,4.5,4.45-.28,11.99-.22,23.99-.29,35.97-.63.97-.9,1.82.7,2.03Z"/>
      <path class="cls-3" d="m376.22,578.58c-1.6-.21-1.33-1.07-.7-2.03.23.68.47,1.36.7,2.03Z"/>
      <path class="cls-3" d="m527.88,476.74c1.39-1.08,1.81-.13,2.12,1.02-1.42,1.13-1.76.03-2.12-1.02Z"/>
      <path class="cls-3" d="m526.9,475.71c1.32-.59,1.62-.15,1.09,1.1-.81.07-1.23-.24-1.09-1.1Z"/>
      <path class="cls-3" d="m529.92,477.7c.84-.12,1.28.17,1.08,1.08-.4.06-.65.73-1.23.15-.59-.59.09-.83.16-1.23Z"/>
      <path class="cls-1" d="m510.64,365.33c.9-25.59,10.29-47.86,26.91-67.04,12.43-14.35,27.45-25.11,45.52-31.65,9.17-3.32,18.54-4.66,28.07-6.11,22.33-3.39,43.01,2.18,62.87,11.26,14.32,6.54,26.09,16.78,35.91,29.19,12.14,15.34,20.36,32.32,23.12,51.87,1.03,7.33,2.24,14.62,1.88,22.03-.71,14.35-3.53,28.28-9.32,41.46-1.15,2.63-.84,3.8,1.02,5.65,47.45,47.46,94.82,94.99,142.24,142.48,10.94,10.96,22.4,21.42,32.9,32.78,14.12,15.28,29.3,29.48,43.78,44.39,6.24,6.42,6.31,13.43-.09,19.87-10.21,10.28-20.46,20.52-30.77,30.7-6.75,6.66-13.31,6.6-20.1-.01-2.51-2.44-5.1-4.81-7.37-7.46-1.74-2.04-3.19-1.56-4.69-.07-8.66,8.62-17.6,17-25.78,26.05-4.25,4.7-9.03,5.75-14.56,5-4.4-.6-5.58-4.83-6.94-8.18-1.4-3.46.03-6.8,2.59-9.4,9.24-9.36,18.47-18.74,27.89-27.92,2.59-2.53,3.33-4.1.15-6.84-4.53-3.91-8.69-8.27-12.75-12.67-2.11-2.29-3.48-2.24-5.61-.05-8.73,8.93-17.88,17.46-26.34,26.64-4.13,4.48-12.84,4.54-16.45.89-4.22-4.27-4.16-11.71.56-16.52,8.74-8.92,17.56-17.78,26.54-26.46,2.26-2.18,1.87-3.81.11-5.61-4.78-4.88-9.67-9.64-14.47-14.5-1.64-1.66-2.48-.96-3.92.51-8.32,8.52-16.81,16.88-25.24,25.29-5.08,5.07-11.59,5.54-15.93,1.14-4.94-5-4.75-11.62.49-16.87,8.12-8.14,16.14-16.37,24.43-24.33,2.47-2.38,2.64-3.6.1-6.12-28.72-28.52-57.29-57.18-85.92-85.78-11.42-11.41-22.91-22.74-34.32-34.15-2.1-2.1-3.31-2.96-6.93-1.28-18.76,8.75-38.8,12.44-59.35,10.16-31.39-3.48-56.95-18.17-76.76-42.86-11.43-14.25-18.7-30.43-22.02-48.23-1.66-8.9-2.2-18.06-1.44-27.19,0,0,0-.05,0-.05Zm89.66-55.54c-13.81-1.77-27.2,11.89-27.3,26.31-.1,13.62,12.55,27.24,26.59,27.3,14.31.05,27.68-12.51,27.4-27.72-.24-13.46-13.13-27.68-26.68-25.89Z"/>
      <polygon class="cls-3" points="510.64 365.33 510.64 365.38 510.39 365.35 510.64 365.33"/>
      <path class="cls-2" d="m600.3,309.79c13.55-1.79,26.44,12.43,26.68,25.89.28,15.2-13.09,27.77-27.4,27.72-14.03-.05-26.69-13.67-26.59-27.3.11-14.42,13.49-28.08,27.3-26.31Z"/>
    </g>
  </g>
</svg>