<?xml version="1.0" encoding="UTF-8"?>
<svg id="_Слой_2" data-name="Слой 2" xmlns="http://www.w3.org/2000/svg" viewBox="0 0 1022.94 1024">
  <defs>
    <style>
      .cls-1 {
        fill: #fff;
      }

      .cls-2 {
        fill: #40c9e7;
      }

      .cls-3 {
        fill: #fabc3d;
      }
    </style>
  </defs>
  <g id="_Слой_1-2" data-name="Слой 1">
    <g>
      <path class="cls-3" d="m1021.9,537.1c.13-5,1.14-9.9,1.03-14.87-.3-12.94-.43-25.91-1.05-38.81-1.05-21.94-3.53-43.84-7.72-65.44-4.98-25.68-11.62-50.92-20.27-75.65-10.11-28.88-22.99-56.44-37.78-83.18-13.5-24.4-29.18-47.3-46.77-68.88-65.7-80.58-148.05-136.65-247.27-167.68-20.77-6.5-41.96-11.27-63.47-14.86-16.14-2.69-32.29-4.58-48.58-5.92-3.79-.31-7.91.1-11.53-1.81h-53.95c-3.98,1.9-8.4,1.41-12.54,1.79-9.33.86-18.62,2.29-27.94,2.9-15.59,1.01-30.64,4.72-45.82,7.86-25.97,5.37-50.88,14.14-75.67,23.39-7.59,2.83-15.65,5.22-22.64,8.75-9.8,4.94-19.67,9.95-29.47,14.98-19.28,9.9-37.21,21.96-55.18,33.89-11.22,7.45-21.82,16.06-32.21,24.67-11.04,9.15-21.75,18.85-31.33,29.69-5.5,6.21-11.88,11.65-17.66,17.62-9.8,10.12-18.64,21.07-26.96,32.42-9.81,13.4-19.65,26.79-28.81,40.62-2.76,4.17-5.35,8.65-7.86,13.07-25.19,44.47-44.55,91.21-56.51,140.99-4.68,19.48-8.13,39.17-10.72,58.98-1.32,10.12-2.58,20.36-2.31,30.66.03.97.05,2.03-.9,2.71v54c1.35,1.16.91,2.77.96,4.2.47,13.38,2.38,26.54,4.48,39.77,1.63,10.29,2.47,20.82,4.69,31.01,6.03,27.73,13.46,55.01,24.09,81.49,6.54,16.3,13.21,32.48,21.07,48.14,16.64,33.16,36.64,64.17,60.35,92.76,12.93,15.6,26.24,30.86,40.97,44.76,20.22,19.07,41.57,36.82,64.5,52.61,43.92,30.24,91.36,53.18,142.37,68.65,25.03,7.59,50.52,13.23,76.49,16.67,13.92,1.84,27.82,3.68,41.88,4.02.97.02,2.03-.06,2.69.92h53.95c5.65-2.36,11.7-1.05,17.55-1.73,13.96-1.63,27.96-3.03,41.8-5.42,15.38-2.66,30.73-5.74,45.74-10.11,12.68-3.69,25.49-6.97,37.86-11.69,6.35-2.42,12.85-4.47,19.07-7.18,13.82-6.02,28.02-11.25,41.21-18.62,14.87-8.31,30.02-16.07,44.33-25.51,10.27-6.78,20.56-13.57,30.38-20.91,7.88-5.88,15.82-11.78,23.34-18.16,17.42-14.77,34.07-30.36,49.37-47.33,18.11-20.09,35.13-41.08,49.62-63.96,5.01-7.92,10.05-15.83,14.17-24.42,2.17-4.52,6.33-9.05,8.59-13.87,3.67-7.81,7.63-15.58,11.43-23.24,4.84-9.75,9.59-19.55,13.42-29.68,5.02-13.28,10.06-26.54,14.08-40.24,4.08-13.89,7.97-27.79,11.05-41.91,2.17-9.96,4.24-20.01,5.32-30.13.49-4.62.74-8.92,2.66-13.33,1.16-2.66-.11-6.18.33-9.5,1.3-9.91,1.85-19.95,2.1-29.95Zm-724.14-237.81c-.72-1.73-1.54-3.39-2.49-4.99,1.4.27,2.82.38,4.25.37-.59,1.54-1.18,3.08-1.77,4.63Zm5.66-14.82c-1.57.38-3.11.59-4.58.5,1.07-.94,2.15-1.86,3.24-2.77.84-.27,1.67-.53,2.51-.8-.39,1.02-.78,2.05-1.17,3.07Z"/>
      <path class="cls-2" d="m399.36,334c.27.28.54.55.81.83-.27-.28-.54-.55-.81-.83Z"/>
      <path class="cls-1" d="m197.31,511.71c1-.28,2-.57,3-.85,1.44-.35,2.89-.7,4.33-1.04h.48c2.73-.71,5.45-1.4,8.18-2.1.34-.27.68-.55,1.03-.82.66-.06,1.31-.12,1.97-.18.34-.27.69-.55,1.03-.82,1.32-.4,2.64-.79,3.95-1.19.35-.28.69-.56,1.04-.84,17.6-7.59,30.55-20.35,40.16-36.65,7.79-13.2,12.91-27.44,13.7-42.81.62-12,1.54-24.26-.25-36.02-1.82-11.94-5.92-23.75-10.53-35-13.65-33.31-37.71-56.2-71.56-68.56-11.57-4.22-23.67-4.32-35.81-4.16-11.29.15-21.98,2.73-31.93,7.88-36.33,18.76-51.63,50.71-54.34,89.67-.77,11.04.63,22.55,3,33.41,4.61,21.12,13.64,40.51,27.53,57.3,18.18,21.99,40.56,37.16,69.23,41.83.23,0,.46,0,.69.01,8.36.31,16.73.61,25.09.92Z"/>
      <path class="cls-1" d="m768.79,567.77c1.07,2.66,2.15,5.32,3.22,7.98l.8.94c9.26,17.54,22.7,30.74,40.7,39.17,2.32,1.09,4.75,1.95,7.13,2.92.37.27.73.53,1.1.8,6.99,1.42,13.98,2.83,20.96,4.25,1.34.25,2.69.5,4.03.75,3.66,0,7.32,0,10.98,0,1.02-.23,2.04-.47,3.06-.7,1.99-.06,4.04.17,5.97-.22,16.55-3.4,32.43-8.6,46.71-17.95,23.88-15.64,41.71-36.32,52.36-62.98.26-.35.52-.71.78-1.06,2.4-9.3,4.79-18.61,7.19-27.91.26-.68.52-1.35.78-2.03,2.13-3.57,1.37-7.41.98-11.18-.84-8.1,1.89-16.24-1.64-24.44-2.73-6.35-3.61-13.5-5.31-20.29-.26-.35-.52-.7-.78-1.06-1.74-3.75-3.19-7.69-5.28-11.23-10.12-17.12-23.97-30-42.88-36.95-.35-.27-.7-.54-1.05-.81-8.63-1.73-17.27-3.46-25.9-5.19-2.96-2.66-12.04-2.67-15,0-2.61.07-5.23.15-7.84.22-.38.26-.75.53-1.13.79-12.91,1.35-24.84,5.6-36.23,11.78-24.3,13.18-42.58,32.2-55.68,56.4-.27.32-.54.64-.81.96-1.74,3.97-3.48,7.95-5.22,11.92-.24.36-.48.71-.73,1.07-1.76,6.29-3.52,12.58-5.29,18.88l-.78,1.13c-.43,3.32-.86,6.65-1.29,9.97-.33.67-.66,1.34-.99,2.01-3.51,2.47.47,4.75.28,7.26-.46,6.23-.06,12.52,0,18.78.23.69.46,1.38.69,2.06,1.79,7.65,3.58,15.31,5.36,22.96.25.34.51.68.76,1.02Z"/>
      <path class="cls-1" d="m442.91,110.81c-3.92-.42-7.85-.84-11.77-1.26-1.67-.27-3.34-.53-5.01-.8-3.65.02-7.3.03-10.95.05-1.94-1.5-3.75-2.15-5.03.76-9.85,2.36-20.25,3.4-29.44,7.31-45.24,19.23-68.57,56.16-79.21,102.26-3.71,16.06-4.33,32.58-2.37,49.2,2.41,20.32,7.17,39.83,16.83,57.96,17.12,32.13,41.39,55.88,77.25,66.18,13.45,3.86,27.05,5.43,40.83,3.15,32.58-5.41,58.77-21.67,78.27-48.23,5.84-7.96,10.09-17.1,15.07-25.7.32-.14.53-.38.64-.71.74-1.76,1.48-3.51,2.22-5.27l.78-1.05c.41-1.32.82-2.64,1.23-3.96.25-.36.51-.72.76-1.07,1.78-6.3,3.56-12.6,5.34-18.9.23-.67.47-1.34.7-2.01.05-1,.11-2,.16-3,.29-.66.58-1.33.87-1.99.05-1.34.09-2.67.14-4.01.48-.34.95-.67,1.43-1.01-.48-.34-.96-.67-1.43-1.01.33-1.66.66-3.32.99-4.98,2.62-1.31,2.64-2.65.04-4.02.31-2.33.63-4.65.94-6.98.6-.67,1.7-1.33,1.72-2.02.15-4.99.15-10,0-14.99-.02-.69-1.12-1.35-1.72-2.02-.72-7.33-1.44-14.66-2.16-21.99-.28-.67-.56-1.34-.84-2.01-1.07-4.97-2.13-9.93-3.2-14.9l-.71-1.07c-.09-.66-.18-1.31-.27-1.97-.24-.34-.49-.69-.73-1.03-.09-.65-.19-1.29-.28-1.94-.25-.35-.5-.71-.75-1.06-6.75-20.48-17.88-38.28-32.97-53.62-11.51-11.69-24.74-20.82-40.19-26.56-.35-.27-.71-.54-1.06-.81-4.98-1.42-9.96-2.85-14.93-4.27l-1.19-.67Z"/>
      <path class="cls-1" d="m584.99,382.69c15.61,29.12,38.25,49.65,70.8,58.08.37.26.74.53,1.1.79,5.65.76,11.31,1.52,16.96,2.28,6.34.22,12.69.44,19.03.66,1.97-.56,3.9-1.35,5.9-1.65,13.82-2.04,26.8-6.61,39-13.27,24.96-13.62,44.37-32.94,58.16-57.86.28-.32.56-.63.84-.95,2.39-5.02,4.79-10.03,7.18-15.05.26-.34.53-.68.79-1.02,1.08-2.99,2.16-5.99,3.24-8.98.25-.35.5-.7.75-1.05,2.65-9.99,5.29-19.97,7.94-29.96.04-1,.09-2,.13-2.99.3-1.33.6-2.66.9-3.99,0-.99,0-1.98,0-2.97,1.23-13.29,1.7-26.63-1.08-39.74-2.16-10.16-5.23-20.12-7.9-30.18-.26-.36-.52-.72-.78-1.08-.74-1.98-1.48-3.96-2.21-5.94l-.81-1.06c-12-26.11-30.36-45.85-57.12-57.17-.35-.27-.69-.55-1.04-.82-1.32-.4-2.64-.79-3.96-1.19-.36-.27-.72-.53-1.08-.8-2.97-1-5.94-2-8.92-3-2.31-.72-4.63-1.43-6.94-2.15l-3.07-.98c-.66.35-1.32.7-1.98,1.06-2.3-.63-3.85-2.05-7.12-1.37-6.19,1.28-12.89.13-19.37,0-.02-.49-.05-.97-.07-1.46-14.21,5.14-28.74,9.56-42.55,15.63-14.25,6.27-26.13,16.37-36.95,27.59-10.81,11.21-19.65,23.83-26.79,37.66-.27.32-.54.65-.81.97-1.41,3.3-2.81,6.61-4.22,9.91-.26.36-.52.72-.78,1.09-1.07,2.99-2.13,5.97-3.2,8.96-.25.34-.5.69-.74,1.03-.42,1.34-.83,2.69-1.25,4.03-.22.71-.44,1.42-.66,2.12-3.16,12.58-5.98,25.14-6.74,38.25-1.29,22.33,2.2,43.73,9.63,64.65.24.36.49.73.73,1.09,1.41,3.3,2.83,6.6,4.24,9.9.27.31.54.63.8.94Z"/>
      <path class="cls-1" d="m680.89,899.56c3.66,0,7.32,0,10.98,0,1.35-.25,2.69-.49,4.04-.74,7.75-1.28,15.61-2.09,23.22-3.94,21.67-5.25,40.25-16.36,56.79-31.11,1.31-1.43,2.62-2.87,3.94-4.3,11.94-12.41,21.2-26.52,27.12-42.76.26-.35.51-.7.77-1.05,2.06-8.32,4.12-16.63,6.18-24.95.26-.38.52-.76.78-1.14.37-3.42.96-6.84,1.07-10.27.59-19.29-.95-38.3-8.03-56.51-.26-.35-.51-.71-.77-1.06-.41-1.31-.82-2.61-1.24-3.92-.27-.36-.53-.72-.8-1.08-1.38-3.01-2.77-6.03-4.15-9.04-.27-.32-.55-.64-.82-.96-1.8-3.17-3.47-6.44-5.43-9.51-36.78-57.5-73.62-114.95-110.38-172.47-13.2-20.66-29.05-38.95-48.13-54.34-15.61-12.59-32.32-23.41-51.04-30.86-.35-.27-.7-.55-1.05-.82-2.98-1.07-5.96-2.13-8.94-3.2-.34-.27-.68-.54-1.02-.81-2.32-.72-4.65-1.45-6.97-2.17-.37-.27-.74-.53-1.11-.8-.63-.07-1.26-.13-1.88-.2-.38-.26-.76-.53-1.14-.79-.82-.08-1.7.02-2.45-.25-18.31-6.56-37.4-8.73-56.63-9.66-8.23-.4-16.54.26-24.77.91-9.47.75-19.09,1.2-28.33,3.22-58.85,12.87-106.38,43.51-139.64,93.92-40.32,61.11-79.16,123.2-118.65,184.86-.27.31-.55.62-.82.92-2.06,4.33-4.13,8.66-6.19,12.99-.26.34-.52.67-.78,1.01-.41,1.33-.82,2.66-1.22,3.99-.25.34-.5.67-.75,1.01-.09.64-.18,1.27-.27,1.91-.25.36-.5.73-.75,1.1-.09.63-.17,1.26-.26,1.88-.24.37-.49.74-.73,1.11-1.78,9.32-3.57,18.65-5.35,27.97-.23.69-.47,1.37-.7,2.06,0,6.33,0,12.66,0,18.99.23.69.45,1.38.68,2.07,1.79,9.32,3.57,18.64,5.36,27.96.24.37.49.74.73,1.11l.26,1.89c.25.37.5.73.75,1.1.09.63.18,1.27.27,1.9.25.34.5.68.75,1.02.41,1.33.81,2.65,1.22,3.98.25.37.5.74.75,1.1,2.07,4.3,4.15,8.6,6.22,12.89.28.31.55.62.83.93,13.69,23.11,32.56,40.56,56.85,52.08.35.27.71.55,1.06.82,14.17,5.6,28.45,10.81,43.94,11.22,1.68.25,3.35.51,5.03.76,3.66,0,7.32,0,10.98,0,2.33-.02,4.67-.04,7-.06,2.29-.59,4.57-1.21,6.86-1.77,6.35-1.53,12.9-2.51,19.03-4.65,18.52-6.45,36.6-14.33,55.4-19.78,16.82-4.88,34.35-7.27,51.57-10.76,1.34-.02,2.67-.04,4.01-.07,1.01-.21,2.02-.42,3.04-.63,1.98-.12,3.97-.25,5.95-.37l4.99-.93,7-.82c2.66-.29,5.33-.59,7.99-.88,1-.02,2-.04,3-.06l17.98-.04c1.33.04,2.67.09,4,.13,1.47.58,2.92,1.54,4.42,1.64,1.82.12,3.7-.47,5.55-.76,1.67.26,3.34.53,5.01.79,2,.05,4,.09,6,.14,1.33.29,2.66.57,3.99.86,4.32.4,8.65.81,12.97,1.21.67.26,1.34.53,2.01.79,4.36.6,8.85.73,13.06,1.87,18.31,4.95,36.55,10.19,54.81,15.33.34.27.69.54,1.03.81,2.31.74,4.61,1.47,6.92,2.21.36.27.72.54,1.08.81,1.99.72,3.98,1.45,5.98,2.17.34.27.68.55,1.02.82,1.98.73,3.97,1.46,5.95,2.19.35.27.69.54,1.04.81,5.37,1.6,10.7,3.34,16.11,4.76,5.92,1.55,11.91,2.8,17.87,4.18,2.67.02,5.33.03,8,.05Z"/>
    </g>
  </g>
</svg>