<?xml version="1.0" encoding="UTF-8"?>
<svg id="_Слой_2" data-name="Слой 2" xmlns="http://www.w3.org/2000/svg" viewBox="0 0 1023.79 1023.78">
  <defs>
    <style>
      .cls-1 {
        fill: #bceded;
      }

      .cls-2 {
        fill: #e34744;
      }

      .cls-3 {
        fill: #233338;
      }

      .cls-4 {
        fill: #f0a765;
      }

      .cls-5 {
        fill: #e0ffb3;
      }

      .cls-6 {
        fill: #fefefe;
      }
    </style>
  </defs>
  <g id="_Слой_1-2" data-name="Слой 1">
    <path class="cls-5" d="m0,540.88v-56.99c1.4-.92.94-2.4.95-3.64.14-11.41,1.71-22.68,3.12-33.98,2.02-16.19,4.53-32.32,8.38-48.15,5.97-24.55,12.84-48.88,22.46-72.29C95.83,177.61,201.87,77.04,353.58,25.15c38.78-13.26,78.83-20.88,119.83-23.34,3.75-.23,7.89.11,11.5-1.81h53.99c1.3,1.52,3.09.83,4.67.98,11.48,1.1,23.02,1.7,34.43,3.28,14,1.95,27.95,4.38,41.81,7.18,18.76,3.79,37.21,8.85,55.29,15.15,128.45,44.79,225.02,127.14,289.71,246.72,21.27,39.32,36.48,81.04,46.02,124.71,2.02,9.26,3.82,18.63,5.36,28.04,2.72,16.58,5.11,33.13,5.6,49.92.09,3.13.9,6.04,2.01,8.91v54.99c-1.44,2.8-1.94,5.93-1.92,8.93.06,16.94-2.71,33.6-5.69,50.12-3.57,19.85-7.89,39.56-13.87,58.95-4.62,15-9.48,29.9-15.33,44.41-9.02,22.39-19.64,44-31.7,65.01-16.67,29.05-35.96,56.12-57.96,81.25-16.42,18.76-34.2,36.2-53.13,52.48-30.93,26.6-64.53,49.13-100.89,67.53-59.3,30.02-122.07,47.83-188.33,53.52-5.66.49-11.57-.58-17.08,1.69h-52.99c-5.63-2.48-11.71-1.11-17.54-1.7-15.87-1.62-31.65-3.66-47.37-6.37-24.45-4.21-48.36-10.57-71.83-18.4-29.38-9.81-57.51-22.61-84.67-37.54-38.91-21.4-73.93-48.05-106.32-78.27-12.15-11.34-23.37-23.63-34.09-36.28-15.97-18.83-30.79-38.56-43.92-59.57-22.2-35.51-40.07-73.01-53.3-112.74-8.59-25.79-15.15-52.1-19.64-78.88-1.92-11.46-3.41-23.04-4.32-34.68-.48-6.14.13-12.46-1.91-18.46Zm493.75-269.34c8.08-5.73,6.79-14.85,1.23-20.26-4.33-4.21-9-7.79-14.33-10.64-10.17-5.43-21.15-5.4-32.12-4.76-17.59,1.03-30.79,9.62-39.69,24.7-3.97,6.73-1.8,12.98,5.16,16.29-1.94,7.74-3.77,15.5-4.18,23.51-1.06-.47-2.21-.79-3.15-1.43-6.06-4.1-11.96-3.53-18.14-.02-4.26,2.43-8.56,4.93-13.33,6.38,0-6.81.02-13.63.03-20.44,9.22-3.29,11.63-6.73,11.62-16.51,0-20.14.02-40.28-.01-60.42-.02-16.85-9.06-25.94-25.79-25.95-36.29-.02-72.57-.02-108.86,0-15.3,0-24.5,9.17-24.56,24.55-.08,20.97.19,41.94-.12,62.9-.14,9.76,2.42,13.1,11.38,15.43.01,6.79.03,13.58.04,20.37-5.29-.13-9.03-4-13.7-5.66-2.62-.93-4.66-3.14-7.51-3.58-7.49-1.14-12.83,4.36-12.83,13.31-.02,81.79-.03,163.57-.02,245.36.01,77.62.02,155.24.11,232.87.02,13.55,5.41,25.15,14.26,35.15,6.85,7.74,11.64,7.91,19.53,1.29,7.6,5.09,16.08,6.44,25,5.83,6.04,8.83,14.28,12.16,25.07,12.12,65.38-.3,130.76-.31,196.14.02,10.59.05,17.96-4.15,23.97-12.1,1.12.96,2.48.8,3.8.8,12.61-.02,25.22-.06,37.83-.08,5.63,3.11,11.24,6.22,17.39,8.31,14.03,4.77,28.49,2.36,42.78,2.77.91.03,1.87-.57,2.76-.98,6.56-2.99,7.22-8.57,6.44-14.77,11.45-.1,22.9-.21,34.36-.31,5.66,3.19,11.13,6.79,17.01,9.5,15.59,7.2,31.25,8.78,46.48-1.13,1.65-1.07,2.75-1.26,4.3.2,8.6,8.04,19.32,8.86,30.01,7.34,25.53-3.63,46.61-16.37,65.18-33.7,13.04-12.17,24.59-25.62,33.98-40.81,19.15-30.96,32.65-63.57,30.68-101.09-.64-12.2-2.07-24.03-6.18-35.54-7.91-22.16-22.2-38.76-43.33-49.13-14.95-7.34-30.91-10.8-47.62-10.49-.05-2.04-.09-4.07-.14-6.11,15.63-4.66,31-9.93,45.12-18.34,11.4-6.79,20.92-15.28,26.66-27.53,5.64-12.04,4.71-16.08-5.99-24.04-10.48-7.8-22.46-12.04-35.11-14.82-10.18-2.24-20.48-1.76-30.75-2.07.03-7.24.07-14.48.1-21.72,7.41-3.07,10.5-7.23,8.93-14.05-2.03-8.81-4.22-17.63-8.69-25.71-6.42-11.59-12.56-23.33-18.78-35.03-7.94-14.92-16.15-29.71-23.63-44.86-4.68-9.47-11.46-18.46-8.98-30.27.74-3.51.35-7.33.04-10.97-.34-3.86.86-5.87,4.71-7.34,11.55-4.4,19.06-13.34,23.39-24.46,3.16-8.11,3.76-16.69,1.53-25.66-4.46-17.94-17.82-29-34.44-31.9-9.28-1.62-18.54-.94-27.81-.98-34.66-.13-69.31.09-103.97-.1-22.19-.12-45.28,20.35-42.63,46.16,1.8,17.46,10.98,30.26,27.49,37.1,2.92,1.21,4.14,2.58,3.96,5.78-.3,5.32-.15,10.66-.2,15.98-4.66-2.94-8.9-1.55-13.14,1.1-1.64,1.03-3.55,1.62-5.34,2.41-1.51-2.02-3.19-3.81-5.52-4.93-7.1-3.41-14.33-6.59-21.21-10.4-4.77-2.64-9.04-2.59-13.6,0-2.02,1.15-4.37,1.81-6.21,3.18-7.37,5.5-14.22,4.65-20.83-1.27-.88-9.71-1.63-19.45-6.07-28.39Z"/>
    <path class="cls-4" d="m263.79,829.81c-8.93.6-17.4-.75-25-5.84,2.55-5.35,2.28-10.16-1.73-14.96-6.29-7.52-9.79-15.72-9.75-26.24.37-102.42.22-204.85.22-307.27,0-48.3.03-96.59-.05-144.89,0-3.78.42-5.48,4.42-2.92,4.64,2.97,9.39,2.75,14.17.02,3.03-1.73,6.39-2.91,9.3-4.81,4.19-2.74,7.69-2.47,12.28-.18,19.68,9.8,12.76,9.78,32.14.15,4.82-2.39,8.71-2.63,13.72-.05,18.68,9.6,14.13,9.63,32.74.05,4.62-2.38,8.1-2.34,12.76,0,18.89,9.49,12.48,9.66,31.68.04,4.74-2.37,8.66-2.76,13.73-.16,18.67,9.59,13.96,9.76,33.22,0,4.19-2.12,7.38-2.47,11.82-.1,16.2,8.64,16.41,8.57,32.61.17,4.63-2.4,8.19-2.68,13.08-.18,19.68,10.05,14.42,9.77,33.1.17,4.91-2.53,8.9-2.79,13.08.53,2.48,1.97,5.48,2.84,8.14,4.35,4.98,2.83,9.88,2.99,14.34-.38,4.69-3.55,4.74-8.71,3.38-13.98,1.79-.79,3.7-1.39,5.34-2.41,4.24-2.65,8.48-4.04,13.14-1.1-.52,8.49-3.74,15.93-7.6,23.5-13.04,25.56-26.7,50.8-40.44,75.97-9.59,17.56-14.65,35.56-14.59,55.69.35,104.3.18,208.6.09,312.89,0,4.65.61,9.09,1.55,13.6,3.44,16.51,13.07,28.84,25.93,39.07-12.61.03-25.22.07-37.83.09-1.31,0-2.68.16-3.8-.8,1.92-3.19,2.16-6.9,2.49-10.37,1.03-10.64,1.26-21.27-8.31-28.91-2.02-1.61-2.73-3.47-2.58-6.01.69-11.88-.36-23.76.01-35.68.56-17.8.04-35.63.03-53.45-.02-41.63-.03-83.26.04-124.9,0-1.98-.95-4.27,1.41-5.9,5.46-3.78,8.35-9.12,9.29-15.68,1.09-7.62,1.53-15.41-1.24-22.51-3.91-10.05-10.33-14.3-23.1-14.46-25.14-.31-50.3-.09-75.44-.09-41.97,0-83.94,0-125.91.01-10.72,0-19.02,4.07-22.78,14.68-2.26,6.37-.86,13.13-1.12,19.71-.3,7.22,2.94,12.89,8.34,17.22,2.25,1.8,2.93,3.58,2.93,6.27-.05,71.28-.05,142.56.02,213.84,0,2.74-.73,4.67-2.89,6.37-4.46,3.49-7.76,8.04-8.09,13.74-.51,8.72-1.41,17.57,1.74,26.09Z"/>
    <path class="cls-1" d="m784.74,456.11c-.03,7.24-.07,14.48-.1,21.72-11.62,2.49-22.96,5.83-33.66,11.1-12.4,0-24.8,0-37.2,0-4.89-2.9-9.77-2.85-14.65.04-7.58-.01-15.16-.02-22.74-.03-1.64-7.63-5.72-11.36-12.12-11.07-5.75.26-9.82,4.41-10.88,11.09-6.1,0-12.21,0-18.31,0-1.11-4.14-2.11-8.39-6.88-10-8.19-2.77-14.66,1.16-16.51,9.99-6.21,0-12.42,0-18.63,0-.47-6.91-4.24-10.8-10.76-11.11-5.93-.28-10.83,4.41-11.61,11.11-6.07.01-12.15.02-18.22.03-.29-.94-.32-2.13-.92-2.8-7.79-8.73-5.38-19.31-5.5-29.44,0-.66-.2-1.36-.07-1.99,1.39-6.88,1.67-14.29,4.51-20.52,5.73-12.59,12.87-24.54,19.41-36.77,8.89-16.62,17.63-33.32,26.66-49.86,7.92-14.51,12.87-29.75,12.04-46.42-.28-5.58.71-9.74,6.01-12.81,3.82-2.22,5.18-6.42,4.01-10.95-1.26-4.88-4.41-8.26-9.47-8.42-4.8-.15-9.55-.75-14.31-.96-11.03-.49-19.98-15.72-16.1-25.54,3.98-10.1,11.35-15.14,22.36-15.07,36.31.23,72.62.09,108.93.11,4.33,0,8.68-.2,12.98.2,11.07,1.03,19.48,10.46,18.75,20.68-.78,10.91-9.46,19.4-20.35,19.61-11.15.21-22.31.17-33.47.26-2.83.02-5.69-.11-8.48.25-6.24.79-11.12,6.88-10.56,12.84.46,4.87,6.27,9.57,11.99,9.63,4.83.05,9.66-.03,14.49.03,4.81.06,11.23-1.6,14,.83,3.22,2.83.91,9.41,1.03,14.36.23,9.39.42,18.76,4.93,27.37,9.48,18.08,19.25,36.02,28.37,54.28,9.44,18.89,21.85,36.36,27.14,57.25,2.28,9.03,4.89,10.76,13.91,10.99Z"/>
    <path class="cls-3" d="m263.79,829.81c-3.14-8.52-2.25-17.36-1.74-26.09.33-5.7,3.63-10.25,8.09-13.74,2.17-1.7,2.9-3.62,2.89-6.37-.07-71.28-.07-142.56-.02-213.84,0-2.69-.68-4.47-2.93-6.27-5.4-4.33-8.63-10-8.34-17.22.27-6.58-1.14-13.33,1.12-19.71,3.77-10.61,12.06-14.68,22.78-14.68,41.97-.02,83.94-.01,125.91-.01,25.15,0,50.3-.22,75.44.09,12.77.16,19.19,4.4,23.1,14.46,2.76,7.11,2.33,14.9,1.24,22.51-.94,6.56-3.83,11.9-9.29,15.68-2.36,1.64-1.4,3.92-1.41,5.9-.06,41.63-.06,83.26-.04,124.9,0,17.82.53,35.65-.03,53.45-.37,11.91.68,23.79-.01,35.68-.15,2.54.55,4.4,2.58,6.01,9.58,7.64,9.34,18.27,8.31,28.91-.34,3.47-.57,7.19-2.49,10.37-6.01,7.95-13.38,12.15-23.97,12.1-65.38-.33-130.76-.31-196.14-.02-10.79.05-19.02-3.29-25.07-12.12Zm32.33-226.81c-.1,2.49-.28,4.98-.28,7.47-.02,29.12-.04,58.23,0,87.35.03,17.63.17,35.26.27,52.89-.06,9.48.11,18.97-.29,28.44-.19,4.49,1.04,5.74,5.65,5.73,56.74-.17,113.47-.11,170.21-.11,1,0,2.01-.1,2.99,0,2.43.27,3.12-.81,3.09-3.15-.15-10.31-.16-20.62-.22-30.94.09-1.49.26-2.98.26-4.46.01-40.76.02-81.52,0-122.27,0-6.98-.18-13.95-.28-20.93.07-9.65-.06-19.3.31-28.94.16-4.12-.93-5.25-5.14-5.22-32.62.19-65.23.1-97.85.1-24.8,0-49.59.05-74.39-.06-3.18-.01-4.77.34-4.63,4.17.34,9.97.23,19.96.29,29.94Zm90.08-57.02c32.46,0,64.92-.09,97.38.11,4.32.03,5.79-.89,5.48-5.39-.26-3.75.2-6.18-5.24-6.16-64.75.23-129.51.22-194.27,0-5.18-.02-5.71,1.76-5.82,6.19-.11,4.59,1.35,5.37,5.58,5.34,32.29-.18,64.59-.1,96.88-.1Zm-.34,272.98c32.79,0,65.58,0,98.38-.03,1.43,0,3.61.8,4.18-.57,1.21-2.93.77-6.26.31-9.3-.37-2.51-3.01-1.33-4.58-1.33-65.08-.06-130.17,0-195.25-.15-4.34-.01-5.28,1.28-5.07,5.3.2,3.67-.41,6.31,5.16,6.25,32.29-.32,64.58-.16,96.88-.17Z"/>
    <path class="cls-3" d="m750.98,488.93c10.7-5.27,22.04-8.61,33.66-11.1,10.27.31,20.58-.17,30.75,2.07,12.65,2.78,24.63,7.02,35.11,14.82,10.7,7.96,11.63,12,5.99,24.04-5.74,12.25-15.26,20.74-26.66,27.53-14.12,8.41-29.49,13.68-45.12,18.34-9.16,1.34-18.09,4.13-27.44,4.98,9.17,1.01,18.48-.92,27.58,1.13,16.71-.31,32.67,3.15,47.62,10.49,21.12,10.37,35.42,26.97,43.33,49.13,4.11,11.51,5.54,23.34,6.18,35.54,1.97,37.52-11.53,70.12-30.68,101.09-9.39,15.19-20.95,28.64-33.98,40.81-18.56,17.33-39.65,30.07-65.18,33.7-10.68,1.52-21.41.7-30.01-7.34-1.56-1.45-2.65-1.27-4.3-.2-15.24,9.9-30.89,8.33-46.48,1.13-5.88-2.72-11.35-6.31-17.01-9.5-19.27-15.17-34.51-33.55-46.9-54.83-7.28-12.52-13.6-25.29-19.14-38.58-6.44-15.46-10.54-31.63-12.16-48.13-1.54-15.73-.33-31.61,3.62-47.11,2.91-10.4,7.1-20.2,12.34-29.7,8.99-16.29,22.57-26.85,39.57-33.29,14.47-5.48,29.3-7.72,45.01-6.38,11.13.95,22.22,1.85,32.99,4.55,4.38,1.1,4.31-.42,4.34-3.43.06-6.45-.14-12.81-.96-19.29-1.94-15.39-6.59-29.65-14.72-42.8-4.91-7.95-4.88-10.28.79-17.64,4.88-2.89,9.76-2.94,14.65-.04,5.77,6.86,8.7,15.45,13.52,23.41,6.38-10.03,14.46-17.31,23.68-23.4Zm-152.67,181.52c.32,5.15.32,10.34,1.03,15.43,4.47,32,17.81,60.42,35.92,86.74,10.58,15.38,22.85,29.21,39.23,38.95,11.41,6.78,22.26,10.11,34.24.83,7.4-5.74,21.51-5.36,27.13,3.99,1.36,2.26,3.7,2.5,6.09,2.59,16.56.67,30.88-5.82,43.98-14.87,15.45-10.67,28.68-23.98,39.41-39.33,22.56-32.28,38.59-66.71,33.76-107.8-1.91-16.23-6.83-30.85-18.22-42.74-13.8-14.41-31.73-19.45-50.85-21.42-21.1-2.17-41.76,1.14-62.32,5.29-3.92.79-7.48.6-11.24-.58-18.19-5.73-36.69-9.55-55.9-7.71-21.91,2.11-39.37,11.76-50.58,31.17-8.83,15.27-11.46,32.08-11.66,49.47Zm145.26-122.62c7-1.34,14.26-1.61,21.43-2.75,19.11-3.02,37.19-8.72,53.78-18.66,5.07-3.04,9.83-6.72,13.36-11.7,1.47-2.07,1.62-3.45-.97-4.57-6.05-2.61-11.91-5.72-18.36-7.24-9.57-2.25-19.13-2.48-29.01-1.35-22.05,2.53-40.54,18.94-44.7,40.79-.7,3.65-.66,6.48,4.47,5.48Zm3.52,23.43c-3.36,0-6.91-1.35-10.87.99,4.26,1.31,7.56.29,10.87-.99Z"/>
    <path class="cls-3" d="m784.74,456.11c-9.01-.23-11.62-1.97-13.91-10.99-5.28-20.9-17.7-38.37-27.14-57.25-9.12-18.26-18.89-36.2-28.37-54.28-4.51-8.61-4.7-17.97-4.93-27.37-.12-4.94,2.18-11.52-1.03-14.36-2.77-2.44-9.19-.77-14-.83-4.83-.06-9.66.02-14.49-.03-5.72-.05-11.53-4.75-11.99-9.63-.56-5.96,4.32-12.05,10.56-12.84,2.79-.35,5.65-.22,8.48-.25,11.16-.09,22.32-.05,33.47-.26,10.89-.21,19.57-8.7,20.35-19.61.73-10.22-7.68-19.65-18.75-20.68-4.29-.4-8.65-.2-12.98-.2-36.31-.02-72.62.13-108.93-.11-11.02-.07-18.38,4.97-22.36,15.07-3.87,9.82,5.07,25.05,16.1,25.54,4.77.21,9.51.8,14.31.96,5.06.16,8.21,3.54,9.47,8.42,1.17,4.52-.19,8.73-4.01,10.95-5.3,3.08-6.29,7.23-6.01,12.81.83,16.68-4.12,31.92-12.04,46.42-9.03,16.54-17.77,33.24-26.66,49.86-6.54,12.23-13.68,24.17-19.41,36.77-2.84,6.24-3.11,13.64-4.51,20.52-.13.63.06,1.32.07,1.99.11,10.13-2.29,20.72,5.5,29.44.6.67.63,1.85.92,2.8-1.49,3.57-1.87,7.75-5.72,10.01-1.24.73-.76,2.1-.76,3.2.02,44.59.07,89.18.12,133.77-.05,1.66-.13,3.32-.13,4.98-.03,45.23.06,90.46-.17,135.69-.05,10.06,2.53,19.05,8.64,26.83,7.09,9.02,16.26,14.85,28.09,15.27,8.14.29,16.3.34,24.44.18,5.79-.11,10.01,2.18,13,7,.77,6.2.11,11.78-6.44,14.77-.89.41-1.85,1.01-2.76.98-14.29-.41-28.75,2-42.78-2.77-6.15-2.09-11.76-5.2-17.4-8.31-12.86-10.23-22.49-22.56-25.93-39.07-.94-4.51-1.56-8.95-1.55-13.6.09-104.3.26-208.6-.09-312.89-.07-20.13,5-38.13,14.59-55.69,13.74-25.17,27.39-50.41,40.44-75.97,3.86-7.57,7.08-15.01,7.6-23.5.04-5.33-.1-10.67.2-15.99.18-3.2-1.04-4.57-3.96-5.78-16.51-6.84-25.69-19.65-27.49-37.1-2.66-25.82,20.43-46.29,42.63-46.16,34.66.19,69.31-.03,103.97.1,9.27.03,18.53-.64,27.81.98,16.62,2.9,29.98,13.96,34.44,31.9,2.23,8.97,1.63,17.55-1.53,25.66-4.33,11.12-11.84,20.05-23.39,24.46-3.85,1.47-5.05,3.48-4.71,7.34.32,3.64.7,7.46-.04,10.97-2.48,11.81,4.3,20.81,8.98,30.27,7.48,15.15,15.7,29.93,23.63,44.86,6.22,11.7,12.36,23.44,18.78,35.03,4.47,8.07,6.66,16.9,8.69,25.71,1.57,6.82-1.52,10.98-8.93,14.05Z"/>
    <path class="cls-3" d="m567.18,313.35c1.36,5.27,1.31,10.43-3.38,13.98-4.46,3.37-9.36,3.21-14.34.38-2.66-1.51-5.66-2.38-8.14-4.35-4.18-3.32-8.17-3.06-13.08-.53-18.68,9.61-13.43,9.89-33.1-.17-4.88-2.49-8.45-2.22-13.08.18-16.2,8.4-16.4,8.47-32.61-.17-4.44-2.37-7.63-2.02-11.82.1-19.26,9.76-14.54,9.59-33.22,0-5.07-2.6-8.99-2.22-13.73.16-19.2,9.62-12.79,9.45-31.68-.04-4.66-2.34-8.14-2.38-12.76,0-18.6,9.58-14.06,9.55-32.74-.05-5.01-2.58-8.9-2.34-13.72.05-19.38,9.62-12.46,9.65-32.14-.15-4.59-2.29-8.09-2.56-12.28.18-2.9,1.9-6.27,3.08-9.3,4.81-4.78,2.72-9.53,2.94-14.17-.02-4-2.56-4.43-.86-4.42,2.92.08,48.3.05,96.59.05,144.89,0,102.42.15,204.85-.22,307.27-.04,10.52,3.46,18.71,9.75,26.24,4.01,4.8,4.27,9.61,1.73,14.96-7.88,6.62-12.68,6.45-19.53-1.29-8.85-10-14.24-21.6-14.26-35.15-.1-77.62-.1-155.24-.11-232.87-.01-81.79,0-163.57.02-245.36,0-8.95,5.34-14.44,12.83-13.31,2.86.43,4.9,2.65,7.51,3.58,4.66,1.65,8.41,5.53,13.7,5.66,5.06-2.42,10.09-4.91,15.19-7.24,3.23-1.48,6.54-3.11,10.22-1.45,4.44,1.99,9.12,3.62,13.17,6.22,4.01,2.57,7.48,3.39,11.55.58,1.49-1.03,3.31-1.56,4.85-2.52,7.53-4.73,14.95-7.21,23.23-1.19,7.89,5.73,16.08,6.92,24.39.15,6.75-5.49,13.82-4.01,20.89-.19,4.1,2.21,7.86,5.3,12.78,5.72,4.76-1.45,9.05-3.95,13.32-6.38,6.18-3.51,12.07-4.07,18.14.02.94.64,2.1.96,3.15,1.43,6.32,4.87,12.71,6.33,19.7,1.07,8.64-6.5,17.48-6.8,26.23-.04,6.41,4.95,12.63,4.68,19.22,0,7.84-5.57,16.19-7.37,24.85-1.48,6.61,5.92,13.45,6.76,20.83,1.27,1.84-1.37,4.18-2.03,6.21-3.18,4.56-2.59,8.83-2.64,13.6,0,6.88,3.81,14.11,6.99,21.21,10.4,2.34,1.12,4.02,2.91,5.52,4.93Z"/>
    <path class="cls-3" d="m238.89,284.87c-8.96-2.32-11.53-5.67-11.38-15.43.31-20.96.04-41.93.12-62.9.06-15.38,9.26-24.54,24.56-24.55,36.29-.02,72.57-.03,108.86,0,16.74,0,25.77,9.1,25.79,25.95.03,20.14,0,40.28.01,60.42,0,9.78-2.4,13.21-11.63,16.51-10.41-1.9-12.17-9.14-11.46-18.16.34-4.3-.09-8.66.1-12.98.12-2.69-.91-3.38-3.46-3.37-35.47.06-70.94.07-106.41,0-2.89,0-3.77,1.03-3.67,3.79.17,4.99.06,9.99.06,14.99,0,10.38-1.78,12.81-11.49,15.75Zm68.08-57.68v.02c17.48,0,34.96-.09,52.44.07,3.43.03,4.71-.84,4.49-4.41-.3-4.81-.2-9.66-.02-14.48.09-2.56-.63-3.63-3.33-3.43-2.98.21-5.99.06-8.99.06-31.96,0-63.93.07-95.89-.08-3.93-.02-5.8.64-5.36,5.07.4,4.12.31,8.33,0,12.47-.28,3.74.97,4.84,4.73,4.8,17.31-.19,34.63-.08,51.94-.08Z"/>
    <path class="cls-1" d="m619.97,825.9c-2.99-4.82-7.21-7.12-13-7-8.14.16-16.3.11-24.44-.18-11.83-.42-21-6.24-28.09-15.27-6.11-7.78-8.69-16.77-8.64-26.83.23-45.23.14-90.46.17-135.69,0-1.66.09-3.32.13-4.98,1.79,1.16,3.82.94,5.8.94,9.29.02,18.57.03,27.86.05-3.95,15.49-5.17,31.37-3.62,47.11,1.62,16.5,5.71,32.67,12.16,48.13,5.54,13.29,11.85,26.06,19.14,38.58,12.39,21.28,27.62,39.67,46.9,54.83-11.45.1-22.9.21-34.36.31Z"/>
    <path class="cls-1" d="m238.89,284.87c9.72-2.94,11.49-5.37,11.49-15.75,0-5,.11-10-.06-14.99-.09-2.76.78-3.8,3.67-3.79,35.47.08,70.94.07,106.41,0,2.54,0,3.57.68,3.46,3.37-.19,4.32.23,8.68-.1,12.98-.71,9.02,1.05,16.25,11.46,18.16,0,6.82-.01,13.63-.02,20.44-4.92-.42-8.68-3.5-12.78-5.72-7.07-3.82-14.14-5.3-20.89.19-8.31,6.76-16.5,5.58-24.39-.15-8.28-6.02-15.69-3.54-23.23,1.19-1.54.97-3.36,1.5-4.85,2.52-4.06,2.8-7.54,1.99-11.55-.58-4.06-2.6-8.74-4.23-13.17-6.22-3.68-1.65-6.99-.03-10.22,1.45-5.1,2.34-10.13,4.82-15.19,7.24-.02-6.79-.03-13.58-.04-20.37Z"/>
    <path class="cls-2" d="m499.82,299.93c-8.66-5.9-17.01-4.09-24.85,1.48-6.59,4.68-12.81,4.94-19.22,0-8.75-6.76-17.59-6.46-26.23.04-6.99,5.26-13.38,3.8-19.7-1.07.4-8.01,2.24-15.77,4.18-23.51,6.06,2.09,11.16.19,14.59-5.81,3.13-5.48,7.72-9,13.46-11.33,6.61-2.68,13.43-1.81,20.2-1.32,6.62.47,12.35,2.97,16.28,8.61,3.9,5.6,9.47,5.31,15.23,4.52,4.43,8.95,5.19,18.69,6.07,28.39Z"/>
    <path class="cls-3" d="m493.75,271.54c-5.76.79-11.33,1.08-15.23-4.52-3.93-5.64-9.66-8.13-16.28-8.61-6.77-.48-13.59-1.36-20.2,1.32-5.74,2.33-10.33,5.85-13.46,11.33-3.43,6-8.53,7.9-14.59,5.81-6.96-3.31-9.13-9.56-5.16-16.29,8.9-15.08,22.1-23.66,39.69-24.7,10.97-.64,21.94-.67,32.12,4.76,5.34,2.85,10,6.43,14.33,10.64,5.56,5.41,6.85,14.54-1.23,20.26Z"/>
    <path class="cls-6" d="m784.85,570.73c-9.09-2.05-18.41-.12-27.58-1.13,9.35-.85,18.28-3.64,27.44-4.98.04,2.04.09,4.07.14,6.11Z"/>
    <path class="cls-6" d="m579.76,636.94c-9.29-.02-18.57-.03-27.86-.05-1.98,0-4,.22-5.8-.94-.05-44.59-.09-89.18-.12-133.76,0-1.1-.48-2.47.76-3.2,3.84-2.26,4.22-6.44,5.72-10.01,6.07-.01,12.15-.02,18.22-.03.73,6.74,4.04,12.02,13.53,10.99,5.3-.57,8.55-4.34,8.84-10.99,6.21,0,12.42,0,18.63,0,2.06,9.86,9.25,13.99,17.24,9.94,4.1-2.08,5.44-5.8,6.15-9.94,6.1,0,12.21,0,18.31,0,.65,2.48.63,5.04,2.43,7.31,3.48,4.39,8.22,4.26,12.64,3.41,5.41-1.05,7-5.87,7.93-10.74,7.58.01,15.16.02,22.74.03-5.67,7.36-5.7,9.69-.79,17.64,8.13,13.15,12.78,27.41,14.72,42.8.82,6.48,1.02,12.84.96,19.29-.03,3.02.04,4.53-4.34,3.43-10.77-2.7-21.86-3.6-32.99-4.55-15.71-1.34-30.54.9-45.01,6.38-17.01,6.44-30.58,17-39.57,33.29-5.24,9.5-9.43,19.3-12.34,29.7Z"/>
    <path class="cls-3" d="m635.08,488.96c-.71,4.14-2.06,7.86-6.15,9.94-7.99,4.05-15.18-.09-17.24-9.94,1.85-8.84,8.32-12.76,16.51-9.99,4.77,1.61,5.77,5.85,6.88,10Z"/>
    <path class="cls-3" d="m676.39,488.93c-.93,4.87-2.53,9.69-7.93,10.74-4.42.86-9.17.99-12.64-3.41-1.8-2.27-1.78-4.83-2.43-7.31,1.06-6.68,5.13-10.83,10.88-11.09,6.41-.29,10.48,3.43,12.12,11.07Z"/>
    <path class="cls-3" d="m593.06,488.95c-.3,6.65-3.55,10.42-8.84,10.99-9.49,1.03-12.8-4.25-13.53-10.99.79-6.7,5.69-11.39,11.61-11.11,6.52.31,10.29,4.19,10.76,11.11Z"/>
    <path class="cls-6" d="m750.98,488.93c-9.23,6.09-17.3,13.37-23.68,23.4-4.81-7.96-7.75-16.54-13.52-23.41,12.4,0,24.8,0,37.2,0Z"/>
    <path class="cls-6" d="m477.53,603.01c.1,6.98.27,13.95.28,20.93.03,40.76.02,81.52,0,122.27,0,1.49-.17,2.98-.26,4.46-6.15,0-12.31.01-18.46.02-.41-6.66-3.68-10.49-9.24-10.86-7.26-.47-11.39,2.53-12.9,9.43-.14.66-.17,1.31-.92,1.57-5.98-.05-11.96-.1-17.93-.14-.38-6.98-3.84-10.3-9.98-10.97-6.19-.67-12.24,4.28-12.39,10.97h-18.62c-.3-6.31-3.48-10.31-8.63-10.84-7.91-.82-12,2.41-13.72,10.85-6.21,0-12.42,0-18.64,0-.26-6.68-3.67-10.34-9.41-10.92-6.57-.66-12.21,3.16-12.94,10.93-5.89,0-11.78,0-17.66,0-.09-17.63-.24-35.26-.27-52.89-.05-29.12-.02-58.23,0-87.35,0-2.49.18-4.98.28-7.47,5.89,0,11.77,0,17.66,0,.82,8.23,6.89,11.59,13.2,10.91,5.51-.59,8.84-4.38,9.15-10.91,6.21,0,12.42,0,18.62,0,.69,7.87,6.59,11.63,13.18,10.91,5.52-.61,8.83-4.36,9.18-10.91,6.2,0,12.41,0,18.61,0,.83,7.17,5.16,11.04,12.16,10.87,6.31-.16,9.8-3.87,10.21-10.87,6.19,0,12.39,0,18.58,0,1.19,7.61,5.29,11.23,12.32,10.86,6.21-.32,9.65-4.03,10.09-10.87,6.15,0,12.29.01,18.44.02Zm-90.69,101.84c14.47,0,28.94,0,43.41-.01,2.31,0,4.61.12,6.82-.99,4.94-2.5,6.99-7.31,5.6-13.56-.94-4.22-5.54-7.37-11.16-7.37-29.44-.04-58.88-.03-88.32-.01-8.04,0-13.17,4.42-13.06,11.1.11,6.74,5.08,10.83,13.29,10.85,14.47.02,28.94,0,43.41,0Zm.12-56.02c-4,0-8-.13-11.99.03-5.93.24-10.71,4.84-10.75,10.12-.05,6.59,4.38,11.57,10.83,11.71,7.82.17,15.65.18,23.47,0,6.37-.15,10.18-4.45,10.19-10.98.01-6.56-3.68-10.56-10.28-10.86-3.82-.17-7.66-.03-11.49-.03Z"/>
    <path class="cls-1" d="m313.78,602.99c-5.89,0-11.77,0-17.66,0-.07-9.98.05-19.97-.29-29.94-.13-3.83,1.46-4.18,4.63-4.17,24.79.11,49.59.06,74.39.06,32.62,0,65.23.09,97.85-.1,4.22-.02,5.3,1.1,5.14,5.22-.38,9.64-.24,19.29-.31,28.94-6.15,0-12.29-.01-18.44-.02.42-5.06-1.85-8.56-6.38-10.56-7.46-3.31-14.68,1.5-16.03,10.57-6.19,0-12.39,0-18.58,0,.44-5.06-1.82-8.55-6.35-10.56-7.45-3.3-14.67,1.49-16.02,10.56-6.2,0-12.41,0-18.61,0-.16-5.9-2.5-9.47-7.21-10.98-7.4-2.37-13.77,2.25-15.15,10.98-6.21,0-12.42,0-18.62,0-.13-5.91-2.47-9.49-7.18-10.98-7.4-2.35-13.7,2.21-15.17,10.98Z"/>
    <path class="cls-1" d="m296.11,750.7c5.89,0,11.78,0,17.66,0,.57,6.28,6.39,12.46,11.47,12.19,6.06-.33,10.73-5.56,10.88-12.2,6.21,0,12.42,0,18.64,0,.53,6.27,6.09,12.27,11.29,12.19,6.05-.09,10.86-5.4,11.07-12.2,6.21,0,12.41,0,18.62,0,.49,6.24,6.06,12.25,11.27,12.2,6.01-.06,10.85-5.38,11.1-12.2,5.98.05,11.96.09,17.93.14.25.59.59,1.15.74,1.76,1.56,6.43,6.57,10.09,12.91,9.4,5.83-.63,9.13-4.59,9.41-11.3,6.15,0,12.31-.01,18.46-.02.06,10.31.06,20.62.22,30.93.03,2.33-.65,3.42-3.09,3.15-.99-.11-1.99,0-2.99,0-56.74,0-113.48-.06-170.21.11-4.61.01-5.84-1.24-5.65-5.73.39-9.47.22-18.96.29-28.44Z"/>
    <path class="cls-1" d="m386.2,545.98c-32.29,0-64.59-.08-96.88.1-4.22.02-5.69-.76-5.58-5.34.11-4.43.64-6.21,5.82-6.19,64.76.21,129.51.23,194.27,0,5.44-.02,4.98,2.41,5.24,6.16.31,4.5-1.16,5.42-5.48,5.39-32.46-.2-64.92-.11-97.38-.11Z"/>
    <path class="cls-1" d="m385.86,818.97c-32.29,0-64.59-.17-96.88.16-5.57.06-4.96-2.58-5.16-6.25-.22-4.01.73-5.31,5.07-5.3,65.08.15,130.17.09,195.25.15,1.57,0,4.21-1.19,4.58,1.33.45,3.05.9,6.38-.31,9.3-.57,1.37-2.75.57-4.18.57-32.79.04-65.58.03-98.38.04Z"/>
    <path class="cls-2" d="m598.31,670.45c.2-17.39,2.83-34.2,11.66-49.47,11.22-19.41,28.68-29.06,50.58-31.17,19.21-1.85,37.71,1.98,55.9,7.71,3.76,1.19,7.32,1.38,11.24.58,20.56-4.15,41.22-7.47,62.32-5.29,19.12,1.97,37.05,7.01,50.85,21.42,11.39,11.89,16.31,26.51,18.22,42.74,4.83,41.09-11.2,75.52-33.76,107.8-10.73,15.36-23.96,28.67-39.41,39.33-13.1,9.05-27.41,15.54-43.98,14.87-2.39-.1-4.73-.33-6.09-2.59-5.61-9.35-19.72-9.73-27.13-3.99-11.98,9.29-22.83,5.95-34.24-.83-16.38-9.73-28.65-23.56-39.23-38.95-18.1-26.32-31.45-54.74-35.92-86.74-.71-5.09-.7-10.28-1.03-15.43Zm71.61-69.61v-.02c-1.66,0-3.33-.06-4.99.02-1.8.09-3.56.1-5.39.55-25.69,6.4-41.32,22.4-46.7,48.38-1.35,6.51,2.4,13.78,7.84,14.99,6.63,1.47,13.3-3.65,14.31-10.98,1.88-13.62,13.54-26.6,26.86-29.55,4.66-1.03,9.46-1.24,14.27-1.37,6.41-.18,10.06-5.16,9.74-12.4-.26-5.78-4.41-9.59-10.45-9.6-1.83,0-3.66,0-5.49,0Zm147.92,147.8c.04-5.87-2.55-9.61-7.57-11.24-5.16-1.68-9.89.13-13.26,4.67-4.97,6.7-9.97,13.34-15.96,19.26-4.61,4.55-9.72,8.49-14.31,13.03-4.19,4.15-4.16,10.9-.23,15.24,3.73,4.11,10.31,4.7,14.8,1.22,2.44-1.89,4.71-3.99,7.11-5.93,10.57-8.53,19.61-18.47,27.43-29.56,1.5-2.12,2.34-4.38,1.97-6.68Zm-195.87-75.79c-4.88,0-10.13,2.51-10.72,6.45-1.09,7.24-.96,14.73,3.85,20.91,2.77,3.56,6.99,4.63,11.31,3.29,4.17-1.29,7.07-3.82,7.7-8.73.51-4.03-.89-7.64-1.19-11.46-.59-7.37-3.75-10.46-10.94-10.46Z"/>
    <path class="cls-5" d="m743.57,547.82c-5.13,1-5.16-1.82-4.47-5.48,4.16-21.85,22.65-38.26,44.7-40.79,9.88-1.13,19.44-.91,29.01,1.35,6.45,1.52,12.31,4.63,18.36,7.24,2.6,1.12,2.44,2.51.97,4.57-3.53,4.98-8.29,8.66-13.36,11.7-16.6,9.94-34.67,15.64-53.78,18.66-7.18,1.13-14.43,1.41-21.43,2.75Z"/>
    <path class="cls-6" d="m747.08,571.25c-3.31,1.28-6.61,2.3-10.87.99,3.96-2.34,7.51-.99,10.87-.99Z"/>
    <path class="cls-1" d="m306.97,227.19c-17.31,0-34.63-.1-51.94.08-3.76.04-5.02-1.06-4.73-4.8.31-4.14.4-8.35,0-12.47-.43-4.43,1.43-5.09,5.36-5.07,31.96.15,63.93.08,95.89.08,3,0,6,.16,8.99-.06,2.71-.19,3.42.88,3.33,3.43-.17,4.82-.27,9.67.02,14.48.22,3.57-1.06,4.45-4.49,4.41-17.48-.16-34.96-.07-52.44-.07v-.02Z"/>
    <path class="cls-3" d="m386.84,704.85c-14.47,0-28.94.02-43.41,0-8.21-.01-13.18-4.1-13.29-10.85-.11-6.68,5.02-11.09,13.06-11.1,29.44-.02,58.88-.03,88.32.01,5.62,0,10.23,3.15,11.16,7.37,1.39,6.26-.66,11.07-5.6,13.56-2.21,1.12-4.51.99-6.82.99-14.47.02-28.94.01-43.41,0Z"/>
    <path class="cls-3" d="m386.96,648.84c3.83,0,7.66-.14,11.49.03,6.6.3,10.29,4.29,10.28,10.86-.01,6.53-3.82,10.83-10.19,10.98-7.82.19-15.65.18-23.47,0-6.45-.14-10.88-5.12-10.83-11.71.04-5.28,4.82-9.89,10.75-10.12,3.99-.16,7.99-.03,11.99-.03Z"/>
    <path class="cls-3" d="m336.12,750.7c-.15,6.64-4.82,11.87-10.88,12.2-5.08.27-10.9-5.91-11.47-12.19.73-7.77,6.37-11.59,12.94-10.93,5.74.58,9.15,4.24,9.41,10.92Z"/>
    <path class="cls-3" d="m377.11,750.7c-.2,6.79-5.02,12.1-11.07,12.2-5.2.08-10.76-5.92-11.29-12.19,1.72-8.44,5.81-11.67,13.72-10.85,5.15.54,8.33,4.53,8.63,10.85Z"/>
    <path class="cls-3" d="m418.1,750.7c-.25,6.81-5.09,12.13-11.1,12.2-5.22.06-10.78-5.96-11.27-12.2.15-6.69,6.21-11.64,12.39-10.97,6.14.67,9.6,3.99,9.98,10.97Z"/>
    <path class="cls-3" d="m459.09,750.7c-.28,6.71-3.58,10.67-9.41,11.3-6.34.69-11.35-2.97-12.91-9.4-.15-.61-.49-1.18-.74-1.76.75-.27.78-.92.92-1.57,1.51-6.9,5.63-9.9,12.9-9.43,5.56.36,8.83,4.2,9.24,10.86Z"/>
    <path class="cls-3" d="m354.75,603c1.39-8.73,7.76-13.35,15.15-10.98,4.71,1.51,7.05,5.08,7.21,10.98-.35,6.55-3.66,10.3-9.18,10.91-6.59.73-12.49-3.03-13.18-10.91Z"/>
    <path class="cls-3" d="m313.78,602.99c1.47-8.77,7.77-13.34,15.17-10.98,4.7,1.5,7.04,5.08,7.18,10.98-.31,6.53-3.64,10.31-9.15,10.91-6.31.68-12.37-2.68-13.2-10.91Z"/>
    <path class="cls-3" d="m395.73,603c1.35-9.07,8.57-13.87,16.02-10.56,4.53,2.01,6.8,5.5,6.35,10.56-.41,7-3.9,10.71-10.21,10.87-7,.17-11.33-3.7-12.16-10.87Z"/>
    <path class="cls-3" d="m436.68,603c1.35-9.07,8.57-13.88,16.03-10.57,4.53,2.01,6.8,5.51,6.38,10.56-.44,6.84-3.88,10.54-10.09,10.87-7.02.37-11.13-3.25-12.32-10.86Z"/>
    <path class="cls-6" d="m669.92,600.84c1.83,0,3.66,0,5.49,0,6.04,0,10.19,3.82,10.45,9.6.32,7.24-3.32,12.22-9.74,12.4-4.81.13-9.61.34-14.27,1.37-13.32,2.95-24.98,15.93-26.86,29.55-1.01,7.34-7.68,12.46-14.31,10.98-5.45-1.21-9.19-8.48-7.84-14.99,5.38-25.98,21.02-41.98,46.7-48.38,1.83-.46,3.59-.46,5.39-.55,1.66-.08,3.33-.02,4.99-.02v.02Z"/>
    <path class="cls-6" d="m817.84,748.64c.36,2.3-.48,4.56-1.97,6.68-7.82,11.09-16.86,21.03-27.43,29.56-2.4,1.94-4.68,4.04-7.11,5.93-4.49,3.48-11.08,2.89-14.8-1.22-3.93-4.33-3.97-11.09.23-15.24,4.58-4.53,9.7-8.48,14.31-13.03,5.99-5.92,11-12.56,15.96-19.26,3.37-4.54,8.1-6.34,13.26-4.67,5.01,1.63,7.6,5.36,7.57,11.24Z"/>
    <path class="cls-6" d="m621.96,672.85c7.19,0,10.35,3.09,10.94,10.46.3,3.82,1.71,7.44,1.19,11.46-.63,4.91-3.53,7.45-7.7,8.73-4.32,1.33-8.54.26-11.31-3.29-4.8-6.18-4.93-13.66-3.85-20.91.59-3.94,5.84-6.45,10.72-6.45Z"/>
  </g>
</svg>