<?xml version="1.0" encoding="UTF-8"?>
<svg id="_Слой_2" data-name="Слой 2" xmlns="http://www.w3.org/2000/svg" viewBox="0 0 642 643">
  <defs>
    <style>
      .cls-1 {
        fill: #fff;
      }

      .cls-2 {
        fill: #fc6;
      }
    </style>
  </defs>
  <g id="_Слой_1-2" data-name="Слой 1">
    <g>
      <path class="cls-2" d="m641.9,291.01v61.98c-1.61,2.76-1.71,5.93-1.91,8.91-.85,12.67-2.75,25.21-5.46,37.57-6.35,28.95-17.05,56.28-31.8,82.03-11.52,20.12-25.21,38.68-40.8,55.72-13.77,15.05-28.41,29.35-44.67,41.78-20.6,15.75-42.6,29.13-66.43,39.62-31.59,13.9-64.72,21.57-98.92,22.94-26.31,1.06-52.77,1.53-79.15-1.47-19.39-2.21-38.22-6.32-56.78-12.1-19.27-6.01-37.4-14.59-54.91-24.55-20.73-11.79-39.67-26.07-57.1-42.26-8.26-7.67-15.69-16.24-23.54-24.37-8.96-9.27-17.15-19.18-24.64-29.67-13.67-19.13-24.81-39.62-33.83-61.35-12.55-30.28-19.42-61.89-20.6-94.46-.8-22.05-1.09-44.2.56-66.32.87-11.7,2.04-23.33,4.36-34.77,6.23-30.75,17.04-59.77,32.62-87.15,13-22.85,29.19-43.11,46.98-62.19,13.2-14.16,27.26-27.44,42.86-39.03,15.65-11.62,31.95-22.22,49.47-30.73,20.59-10.01,41.98-18.01,64.45-22.82,10.76-2.3,21.61-4.11,32.57-5.36,8.72-1,17.39-2.08,26.18-1.93.53,0,1.06-.6,1.6-.92,12.66,0,25.33,0,37.99,0,.87,1.5,2.36.99,3.59.97,13.92-.17,27.64,2.11,41.25,4.35,16.81,2.76,33.31,7.22,49.26,13.55,17.75,7.04,35.02,14.84,51.44,24.76,23.03,13.93,43.37,31.14,62.78,49.48,9.57,9.04,17.57,19.69,26.12,29.75,14.35,16.89,26.23,35.51,36.08,55.15,8,15.94,14.61,32.74,19,50.2,3.76,14.97,7.14,30,8.59,45.45.54,5.73.13,11.79,2.79,17.25Zm-270.96,136.92c.12-.96-.17-2.25.91-2.68,13.34-5.26,19.67-16.29,24.18-28.96,6.19-17.38,11.46-35.06,17.66-52.45,6.24-17.52,11.28-35.46,16.96-53.18,5.73-17.86,11.49-35.7,17.46-53.48,1.9-5.67,5.94-9.58,11.28-12.57,5.48-3.07,11.18-2.55,16.91-2.58,13.98-.08,27.96.02,41.93-.05,6.45-.03,12-3.56,13.33-8.22,1.7-5.92.16-9.35-6.07-13.72-1.19-.84-2.25-1.87-3.36-2.81-2.98-7.45-6.76-10.18-14.4-10.2-15.16-.03-30.31.08-45.47-.05-7.58-.06-14.86.9-21.78,4.18-8.02,3.8-14.96,8.8-20.26,16.11-4.47,6.17-6.85,13.14-9.17,20.22-.66,2.02-1.26,4.84-4.3,3.67-7.3-2.81-14.89-2.22-22.4-2.23-73.62-.07-147.23-.04-220.85-.04-3.94,0-7.84.1-11.72,1.1-15.83,4.09-25.12,18.02-20.69,33.79,4.62,16.46,11.5,32.16,17.89,48.01,3.83,9.5,7.65,19.01,10.99,28.68,4.89,14.19,12.07,26.38,25.75,33.92,2.14,1.18,3.81,2.99,6.49,2.74.47.87.74,1.97,1.43,2.57,7.9,6.87,17.43,10.11,27.6,10.18,41.24.28,82.48.11,123.72.13,2.23,0,4.78-.73,6.26,1.89-4.15,4.83-9.58,5.22-15.54,5.2-47.57-.16-95.14-.07-142.71-.1-6.6,0-11.29,3.07-14.14,8.8-2.34,4.68-.19,8.87,2.46,12.65,2.34,3.34,6,4.45,9.93,4.74.44,3.05,2.93,5.02,4.07,7.7-1.69,5.07-4.14,10-4.18,15.43-.13,15.89,8.75,29.23,24.12,35.82.51.84.82,2.02,1.57,2.47,8.35,5.05,16.71,9.46,27.24,7.39,16.58-3.26,29.38-18.51,29.08-34.44-.14-7.31-2.8-13.51-6.62-19.39-1.9-2.94-2.95-4.79,2.06-5.44,12.44-1.6,24.88-.44,37.32-.63.39,0,.79.52,1.19.79-.85,6.96-3.98,13.48-2.16,20.95,3.32,13.61,11.09,22.99,23.94,28.32,5.72,8.91,15.38,10.9,24.22,10.39,20.59-1.19,36.56-19.85,32.72-40.25-1.48-7.85-3.95-16.2-12.54-20.16-.53-1.53-2.56-2.25-2.26-4.22Z"/>
      <path class="cls-1" d="m303.01.1c-.53.32-1.07.92-1.6.92-8.79-.15-17.45.93-26.18,1.93-10.97,1.26-21.81,3.06-32.57,5.36-22.46,4.81-43.85,12.81-64.45,22.82-17.52,8.51-33.82,19.11-49.47,30.73-15.6,11.59-29.67,24.88-42.86,39.03-17.79,19.08-33.98,39.35-46.98,62.19-15.58,27.38-26.39,56.4-32.62,87.15-2.32,11.44-3.48,23.07-4.36,34.77-1.65,22.12-1.36,44.27-.56,66.32,1.18,32.57,8.05,64.17,20.6,94.46,9.01,21.74,20.15,42.22,33.83,61.35,7.5,10.49,15.68,20.4,24.64,29.67,7.85,8.12,15.27,16.69,23.54,24.37,17.43,16.19,36.36,30.47,57.1,42.26,17.51,9.96,35.64,18.54,54.91,24.55,18.55,5.79,37.39,9.9,56.78,12.1,26.38,3,52.84,2.52,79.15,1.47,34.2-1.37,67.33-9.04,98.92-22.94,23.83-10.48,45.83-23.87,66.43-39.62,16.26-12.43,30.9-26.73,44.67-41.78,15.59-17.04,29.28-35.6,40.8-55.72,14.75-25.75,25.44-53.08,31.8-82.03,2.71-12.35,4.6-24.89,5.46-37.57.2-2.98.3-6.16,1.91-8.91,0,95.28-.02,190.56.08,285.84,0,3.26-.43,4.18-4,4.18-211.38-.12-422.76-.11-634.13-.03-3.13,0-3.82-.71-3.82-3.83C.11,427.44.12,215.72,0,4.01,0,.43.93,0,4.18.01c99.61.1,199.22.08,298.83.08Z"/>
      <path class="cls-1" d="m641.9,291.01c-2.66-5.45-2.26-11.52-2.79-17.25-1.45-15.45-4.83-30.48-8.59-45.45-4.39-17.46-11-34.27-19-50.2-9.86-19.63-21.73-38.25-36.08-55.15-8.55-10.07-16.56-20.71-26.12-29.75-19.41-18.34-39.75-35.56-62.78-49.48-16.41-9.93-33.69-17.72-51.44-24.76-15.95-6.33-32.45-10.79-49.26-13.55-13.6-2.23-27.33-4.51-41.25-4.35-1.24.01-2.72.53-3.59-.97C439.97.1,538.94.12,637.91,0c3.42,0,4.1.67,4.09,4.09-.12,95.64-.1,191.27-.1,286.91Z"/>
      <path d="m192.22,377.15c-2.68.24-4.35-1.57-6.49-2.74-13.68-7.54-20.85-19.74-25.75-33.92-3.34-9.67-7.17-19.19-10.99-28.68-6.39-15.85-13.26-31.56-17.89-48.01-4.43-15.77,4.86-29.7,20.69-33.79,3.88-1,7.78-1.1,11.72-1.1,73.62,0,147.23-.03,220.85.04,7.51,0,15.1-.58,22.4,2.23,3.04,1.17,3.63-1.65,4.3-3.67,2.32-7.08,4.7-14.05,9.17-20.22,5.3-7.31,12.24-12.31,20.26-16.11,6.91-3.28,14.2-4.24,21.78-4.18,15.16.12,30.31.01,45.47.05,7.63.02,11.42,2.75,14.4,10.2-.67,4.85-1.16,9.55-5.91,12.8-1.87,1.28-4.24.32-5.57,2.23-18.47-.06-36.94-.13-55.41-.16-.39,0-.77.44-1.16.68-5.61,2.32-10.89,4.87-14.14,10.55-5.83,10.18-8.19,21.61-11.78,32.55-7.02,21.37-14.22,42.69-20.76,64.23-6.35,20.89-13.82,41.44-21.05,62.06-1.99,5.67-2.47,11.86-6.29,16.96-4.77,6.36-9.85,12.22-17.06,15.95-1.48.76-2.6,3.37-1.7,3.96,3.77,2.44,5.29,7.23,9.65,8.9-.3,1.97,1.73,2.69,2.26,4.22-.02,1.32-.41,2.78,0,3.94,3.89,10.69,2.77,20.9-3.18,30.44-3.9,6.26-9.28,11.01-16.4,13.53-8.1,2.87-16.35,3.68-24.82,2.11-12.85-5.33-20.62-14.72-23.94-28.32-1.82-7.47,1.31-14,2.16-20.95,1.85-.46,7.03-6.94,6.9-8.46-.19-2.31-1.93-1.4-3-1.4-17.49-.06-34.99-.06-52.48,0-.95,0-2.91-.81-2.74.72.14,1.33-1.18,2.3.45,4.42,5.68,7.36,7.31,16.44,5.78,25.54-1.07,6.35-3.63,12.16-8.7,17.02-5.99,5.74-12.44,9.58-20.58,11.39-5.97,1.33-11.65.14-17.46.01-15.37-6.59-24.25-19.93-24.12-35.82.05-5.43,2.5-10.36,4.18-15.43,2.21-2.05,3.52-4.64,5.02-7.7h-9.08c-3.93-.28-7.59-1.4-9.93-4.74-2.64-3.78-4.79-7.97-2.46-12.65,2.86-5.73,7.54-8.8,14.14-8.8,47.57.03,95.14-.05,142.71.1,5.96.02,11.39-.36,15.54-5.2,5.82-.1,8.93-3.13,8.78-8.29-.05-1.78-.34-2.42-2.38-2.71-6.57-.93-13.15-.84-19.75-.84-32.74,0-65.48.11-98.22-.05-15.85-.07-31.83,1.5-47.43-2.89Zm160.56,67.62c-.1-4.55-2.77-7.03-6.69-8.79-3.83-1.72-8.55-2.15-11.42-.53-4.45,2.51-8.32,6.74-7.69,13.09.41,4.11,4.74,10.89,8.51,12.23.87.31,1.97.46,2.5-.76,10.58-.17,15.46-5.21,14.78-15.24Zm-113.66.2c1.26-.93-.08-1.75-.31-2.37-3.28-8.67-16.3-10.77-22.21-3.64-2.97,3.58-3.09,15.42.69,18.05,2.16,1.51,4.46,6.11,8.56,2.72,6.61.46,9.96-1.46,12.41-6.47,1.36-2.77.3-5.56.85-8.29Zm81.12-89.78c1.33,1.54,3.11.74,4.62.69,9.53-.33,19.01-1.37,28.58-1.05,8.22.28,17.71-6.92,20.62-14.64,2.26-6,3.28-12.47,6.68-18.05.43-1.56.72-3.17,1.32-4.66,1.91-4.73,1.54-5.42-3.32-5.42-14.96-.02-29.92.05-44.87-.06-2.98-.02-4.18.97-4.93,3.96-2.58,10.41-5.66,20.7-8.33,31.09-.67,2.6-2.78,5.33-.37,8.15Zm15.54-63.07c-1.58,5.82-1.58,5.78,4.02,5.85,8.22.1,16.32-1.8,24.59-1.3,6.78.41,13.6.05,20.39.16,2.5.04,3.68-.66,4.46-3.34,2.69-9.24,5.82-18.34,8.78-27.5,3.32-2.35,3.31-5.95,2.8-9.26-.49-3.23-4.14-2.43-5.94-2.47-15.48-.33-30.97-.18-46.46-.22-1.47,0-2.9.25-3.28,1.66-3.19,12.12-6.26,24.27-9.37,36.42Zm-141.62,58.1c2.13.95,4.31,1.82,6.38,2.88,1.73.89,3.28,1.95,5.41,1.92,10.12-.14,20.24-.22,30.36-.13,3.41.03,4.13-.63,3.07-4.25-2.77-9.42-4.9-19.02-7.28-28.55-.63-8.92-1.8-10.05-10.42-10.05-13.48,0-26.97-.01-40.45,0-4.6,0-5.13.86-3.44,5.16.47,1.19.78,2.46,1.33,3.6,4.82,9.9,6.01,21.65,15.04,29.4Zm118.64-28.02c.61-2.15,1.16-4.32,1.86-6.44.91-2.76.21-3.79-2.88-3.77-21.25.11-42.5.12-63.75,0-2.97-.02-3.45,1.1-2.74,3.49,3.47,11.65,5.83,23.59,9.67,35.14,1.98,5.97,3.21,6.74,9.34,4.3,11.48-.06,22.96-.19,34.44-.12,3.04.02,4.72-.54,5.44-3.99,1.24-5.99,3.09-11.87,4.88-17.74,1.11-3.66,1.26-7.68,3.75-10.87Zm-96.67-57.29c1.59-6.92-1.22-10.83-7.78-10.83-13.97,0-27.94,0-41.91,0-11.77,0-11.55-.06-8.42,11.12,2.8,10.02,7.49,19.3,10.9,29.07,1.47,4.22,4.29,5.05,8,2.42,14.76.04,29.53.05,44.29.13,2.2.01,3.85.19,2.89-3.07-2.81-9.57-5.34-19.22-7.98-28.84Zm110.98.08c3.66-.28,1.91-3.62,2.65-5.34,2.34-5.43,1.99-5.58-3.75-5.58-29.76,0-59.52,0-89.28.01-2.48,0-5.66-.7-7.24.54-1.74,1.36,1.37,3.55,1.62,5.64,1.37,11.37,5.74,22,8.14,33.13,1.13,5.25,3.22,5.81,8.92,3.56,2.15-.07,4.31-.21,6.46-.21,20.08-.01,40.16.02,60.24-.06,1.5,0,3.41,1.08,4.28-1.85,2.93-9.88,5.95-19.73,7.96-29.85Z"/>
      <path class="cls-1" d="m510.65,212.25c1.33-1.91,3.7-.95,5.57-2.23,4.75-3.26,5.24-7.95,5.91-12.8,1.12.94,2.17,1.98,3.36,2.81,6.23,4.37,7.77,7.8,6.07,13.72-1.33,4.65-6.89,8.19-13.33,8.22-13.98.07-27.96-.04-41.93.05-5.73.03-11.43-.49-16.91,2.58-5.35,3-9.38,6.9-11.28,12.57-5.96,17.78-11.73,35.63-17.46,53.48-5.68,17.72-10.72,35.67-16.96,53.18-6.2,17.39-11.47,35.07-17.66,52.45-4.51,12.66-10.83,23.7-24.18,28.96-1.08.43-.79,1.71-.91,2.68-4.36-1.67-5.88-6.46-9.65-8.9-.9-.58.22-3.2,1.7-3.96,7.2-3.73,12.29-9.59,17.06-15.95,3.82-5.09,4.3-11.29,6.29-16.96,7.23-20.61,14.7-41.17,21.05-62.06,6.55-21.54,13.74-42.86,20.76-64.23,3.59-10.93,5.95-22.36,11.78-32.55,3.25-5.68,8.54-8.24,14.14-10.55,18.1.06,36.19.12,54.29.14.76,0,1.52-.43,2.28-.66Z"/>
      <path class="cls-1" d="m192.22,377.15c15.6,4.39,31.58,2.81,47.43,2.89,32.74.15,65.48.04,98.22.05,6.59,0,13.17-.09,19.75.84,2.04.29,2.33.93,2.38,2.71.16,5.16-2.96,8.19-8.78,8.29-1.48-2.62-4.03-1.88-6.26-1.89-41.24-.03-82.48.14-123.72-.13-10.17-.07-19.7-3.31-27.6-10.18-.7-.61-.97-1.7-1.43-2.57Z"/>
      <path class="cls-1" d="m215.22,482.15c5.81.13,11.49,1.31,17.46-.01,8.14-1.81,14.58-5.65,20.58-11.39,5.07-4.86,7.64-10.67,8.7-17.02,1.53-9.11-.11-18.18-5.78-25.54-1.63-2.12-.31-3.09-.45-4.42-.16-1.53,1.79-.72,2.74-.72,17.49-.06,34.99-.06,52.48,0,1.07,0,2.81-.91,3,1.4.12,1.52-5.06,8-6.9,8.46-.4-.28-.79-.8-1.19-.79-12.44.19-24.88-.97-37.32.63-5,.64-3.96,2.5-2.06,5.44,3.82,5.89,6.47,12.08,6.62,19.39.31,15.92-12.5,31.18-29.08,34.44-10.53,2.07-18.88-2.34-27.24-7.39-.75-.45-1.05-1.63-1.57-2.47Z"/>
      <path class="cls-1" d="m328.81,482.17c8.47,1.57,16.72.76,24.82-2.11,7.12-2.52,12.51-7.27,16.4-13.53,5.95-9.55,7.06-19.75,3.18-30.44-.42-1.16-.03-2.62,0-3.94,8.59,3.96,11.06,12.31,12.54,20.16,3.85,20.4-12.13,39.06-32.72,40.25-8.84.51-18.5-1.47-24.22-10.39Z"/>
      <path class="cls-1" d="m191.21,423.2h9.08c-1.5,3.06-2.81,5.66-5.02,7.7-1.13-2.69-3.62-4.65-4.06-7.7Z"/>
      <path class="cls-2" d="m327.1,264.98c-2.02,10.12-5.04,19.97-7.96,29.85-.87,2.92-2.78,1.84-4.28,1.85-20.08.08-40.16.04-60.24.06-2.15,0-4.31.14-6.46.21-2.2-8.95-4.4-17.91-6.61-26.86-1.39-5.61-1.03-6.14,4.54-6.14,25.29,0,50.59-.01,75.88.04,1.72,0,3.7-.75,5.13,1Z"/>
      <path class="cls-2" d="m216.12,264.9c2.64,9.62,5.17,19.27,7.98,28.84.96,3.26-.69,3.09-2.89,3.07-14.76-.07-29.53-.09-44.29-.13-3.39-8.73-6.77-17.46-10.17-26.18-2.2-5.65-1.72-6.48,4.43-6.51,13.77-.08,27.54-.05,41.3-.03,1.26,0,2.71-.44,3.64.94Z"/>
      <path class="cls-2" d="m312.79,322.2c-2.49,3.19-2.64,7.2-3.75,10.87-1.78,5.87-3.63,11.75-4.88,17.74-.72,3.45-2.4,4.01-5.44,3.99-11.48-.08-22.96.06-34.45.12-2.55-9.37-5.31-18.68-7.68-28.11-1.23-4.89.7-4.91,4.26-4.89,13.95.08,27.9-.05,41.85.07,3.35.03,6.78-2.2,10.08.21Z"/>
      <path class="cls-2" d="m232.09,322.09c2.38,9.53,4.51,19.13,7.28,28.55,1.06,3.62.34,4.28-3.07,4.25-10.12-.08-20.24,0-30.36.13-2.14.03-3.68-1.03-5.41-1.92-2.07-1.07-4.25-1.93-6.38-2.89,3.21-1.31,2.11-3.96,1.38-5.91-1.96-5.21-4.22-10.31-6.61-15.35-2.31-4.86-1.14-7.03,4.2-7.01,12.99.03,25.98.1,38.97.15Z"/>
      <path class="cls-2" d="m398.02,265.99c-2.96,9.16-6.09,18.27-8.78,27.5-.78,2.68-1.96,3.38-4.46,3.34-6.8-.11-13.62.25-20.39-.16-8.28-.5-16.37,1.4-24.59,1.3-5.59-.07-5.59-.03-4.01-5.85.65,1.74-1.07,5.23,2.52,4.75,3.43-.46,7.95,2.9,10.21-2.8,3.3-8.33,4.8-17.14,7.18-25.71.93-3.35,2.32-4.32,5.29-4.44,11.42-.46,22.88.98,34.28-.77,1.87-.29,2.54,1.2,2.76,2.84Z"/>
      <path class="cls-1" d="m327.1,264.98c-1.43-1.75-3.4-.99-5.13-1-25.29-.05-50.59-.05-75.88-.04-5.57,0-5.93.53-4.54,6.14,2.21,8.95,4.41,17.91,6.61,26.86-5.7,2.25-7.79,1.69-8.92-3.56-2.4-11.13-6.77-21.76-8.14-33.13-.25-2.08-3.36-4.28-1.62-5.64,1.59-1.24,4.77-.54,7.24-.54,29.76-.02,59.52-.01,89.28-.01,5.74,0,6.09.15,3.75,5.58-.74,1.72,1.01,5.06-2.65,5.34Z"/>
      <path class="cls-2" d="m380.74,322.14c-3.4,5.58-4.42,12.04-6.68,18.05-2.91,7.72-12.39,14.91-20.62,14.64-9.57-.32-19.05.73-28.58,1.05-1.51.05-3.29.85-4.63-.69,2.99-.06,5.98-.2,8.97-.14,2.24.04,3.27-.34,3.88-3.06,1.98-8.97,4.56-17.8,6.96-26.68.49-1.8,1.15-3.43,3.58-3.41,12.38.12,24.75.17,37.13.24Z"/>
      <path class="cls-1" d="m398.02,265.99c-.22-1.64-.89-3.12-2.76-2.84-11.4,1.75-22.86.31-34.28.77-2.97.12-4.36,1.09-5.29,4.44-2.38,8.57-3.88,17.38-7.18,25.71-2.26,5.7-6.78,2.34-10.21,2.8-3.59.48-1.87-3.02-2.52-4.75,3.1-12.14,6.18-24.29,9.37-36.41.37-1.41,1.81-1.67,3.28-1.66,15.49.04,30.98-.11,46.46.22,1.8.04,5.45-.77,5.94,2.47.51,3.31.52,6.91-2.8,9.26Z"/>
      <path class="cls-1" d="m380.74,322.14c-12.38-.07-24.75-.12-37.13-.24-2.43-.02-3.09,1.61-3.58,3.41-2.39,8.87-4.97,17.71-6.96,26.68-.6,2.72-1.64,3.11-3.88,3.06-2.99-.06-5.98.08-8.97.14-2.41-2.81-.3-5.54.37-8.14,2.67-10.39,5.75-20.67,8.33-31.09.74-3,1.95-3.99,4.93-3.96,14.96.11,29.91.04,44.87.06,4.86,0,5.23.69,3.32,5.42-.6,1.49-.89,3.1-1.32,4.66Z"/>
      <path class="cls-1" d="m312.79,322.2c-3.3-2.41-6.72-.18-10.08-.21-13.95-.12-27.9.01-41.85-.07-3.56-.02-5.49,0-4.26,4.89,2.37,9.43,5.13,18.74,7.68,28.11-6.12,2.44-7.35,1.67-9.33-4.3-3.84-11.55-6.21-23.49-9.67-35.14-.71-2.39-.22-3.5,2.74-3.49,21.25.12,42.5.11,63.75,0,3.1-.02,3.8,1.01,2.88,3.77-.7,2.12-1.25,4.29-1.86,6.44Z"/>
      <path class="cls-1" d="m216.12,264.9c-.93-1.39-2.38-.94-3.64-.94-13.77-.02-27.54-.05-41.3.03-6.15.04-6.63.86-4.43,6.51,3.4,8.73,6.78,17.46,10.17,26.18-3.71,2.63-6.53,1.79-8-2.42-3.41-9.77-8.1-19.05-10.9-29.07-3.13-11.18-3.35-11.12,8.42-11.12,13.97,0,27.94,0,41.91,0,6.56,0,9.37,3.91,7.78,10.83Z"/>
      <path class="cls-1" d="m232.09,322.09c-12.99-.05-25.98-.12-38.97-.15-5.34-.01-6.51,2.15-4.2,7.01,2.39,5.03,4.65,10.14,6.61,15.35.73,1.94,1.83,4.6-1.38,5.91-9.02-7.74-10.22-19.49-15.04-29.39-.56-1.15-.87-2.41-1.33-3.6-1.69-4.3-1.16-5.15,3.44-5.16,13.48-.02,26.97,0,40.45,0,8.61,0,9.79,1.13,10.42,10.05Z"/>
      <path class="cls-1" d="m225.85,459.72c-4.11,3.39-6.4-1.21-8.56-2.72-3.78-2.63-3.66-14.47-.69-18.05,5.91-7.12,18.93-5.03,22.21,3.64.23.62,1.57,1.44.31,2.37-8.16-1.86-15.65,6.48-13.27,14.75Z"/>
      <path class="cls-1" d="m338,460.01c-.54,1.22-1.63,1.07-2.5.76-3.77-1.34-8.11-8.12-8.51-12.23-.63-6.35,3.24-10.58,7.69-13.09,2.87-1.62,7.59-1.18,11.42.53,3.92,1.76,6.59,4.24,6.69,8.79-4.27-2.21-7.98-.25-10.87,2.39-3.61,3.3-5.43,7.71-3.92,12.85Z"/>
      <path class="cls-2" d="m338,460.01c-1.51-5.14.3-9.54,3.92-12.85,2.89-2.64,6.59-4.6,10.87-2.39.68,10.03-4.21,15.06-14.78,15.24Z"/>
      <path class="cls-2" d="m225.85,459.72c-2.39-8.27,5.11-16.61,13.27-14.75-.55,2.72.5,5.52-.85,8.29-2.45,5.01-5.8,6.93-12.41,6.47Z"/>
      <path class="cls-2" d="m510.65,212.25c-.76.23-1.52.66-2.28.66-18.1-.02-36.2-.08-54.29-.14.39-.24.78-.69,1.16-.69,18.47.03,36.94.1,55.41.16Z"/>
    </g>
  </g>
</svg>