<?xml version="1.0" encoding="UTF-8"?>
<svg id="_Слой_2" data-name="Слой 2" xmlns="http://www.w3.org/2000/svg" viewBox="0 0 640.18 642.27">
  <defs>
    <style>
      .cls-1 {
        fill: #fff;
      }

      .cls-2 {
        fill: #9f2dff;
      }
    </style>
  </defs>
  <g id="_Слой_1-2" data-name="Слой 1">
    <g>
      <path class="cls-2" d="m640.18,290.91v61.98c-1.61,2.76-1.71,5.93-1.91,8.92-.85,12.67-2.74,25.21-5.45,37.57-6.34,28.95-17.02,56.28-31.75,82.03-11.5,20.12-25.17,38.68-40.74,55.72-13.75,15.05-28.37,29.35-44.6,41.78-20.57,15.75-42.53,29.13-66.32,39.62-31.54,13.9-64.62,21.57-98.77,22.94-26.27,1.06-52.68,1.53-79.03-1.47-19.36-2.21-38.16-6.32-56.69-12.1-19.24-6.01-37.34-14.59-54.83-24.55-20.7-11.79-39.6-26.07-57.01-42.26-8.25-7.67-15.66-16.24-23.5-24.37-8.95-9.27-17.12-19.18-24.61-29.67-13.65-19.13-24.78-39.62-33.77-61.35-12.53-30.28-19.39-61.89-20.57-94.46-.8-22.05-1.09-44.2.56-66.32.87-11.7,2.04-23.33,4.35-34.77,6.22-30.75,17.02-59.77,32.57-87.15,12.98-22.85,29.15-43.11,46.91-62.19,13.17-14.16,27.22-27.44,42.8-39.03,15.63-11.62,31.9-22.22,49.39-30.73,20.56-10.01,41.92-18.01,64.35-22.82,10.75-2.3,21.57-4.11,32.52-5.36,8.71-1,17.36-2.08,26.13-1.93.53,0,1.06-.6,1.6-.92,12.64,0,25.29,0,37.93,0,.87,1.5,2.35.99,3.59.97,13.9-.17,27.6,2.11,41.18,4.35,16.78,2.76,33.26,7.22,49.18,13.55,17.72,7.04,34.97,14.84,51.36,24.76,22.99,13.93,43.31,31.14,62.69,49.48,9.55,9.04,17.55,19.69,26.08,29.75,14.33,16.89,26.19,35.51,36.03,55.15,7.99,15.94,14.59,32.74,18.97,50.2,3.75,14.97,7.13,30,8.58,45.45.54,5.73.14,11.79,2.79,17.25Zm-334.35,141.9c-.85,6.96-3.98,13.48-2.16,20.95,3.32,13.61,11.07,22.99,23.9,28.32,5.71,8.91,15.36,10.9,24.18,10.39,20.57-1.2,36.52-19.87,32.66-40.26-1.48-7.84-3.94-16.21-12.53-20.16-.48-1.54-2.66-2.17-2.27-4.19.21-1.07-.15-2.27,1.36-2.88,11.93-4.8,18.41-14.53,22.67-25.96,6.8-18.21,12.13-36.93,18.66-55.25,6.25-17.51,11.26-35.47,16.93-53.19,5.72-17.86,11.48-35.71,17.43-53.49,1.9-5.67,5.92-9.58,11.26-12.58,5.47-3.07,11.16-2.55,16.88-2.59,14.12-.08,28.25.04,42.37-.06,6.07-.05,11.54-3.72,12.82-8.2,1.7-5.92.16-9.35-6.06-13.72-1.19-.84-2.24-1.87-3.36-2.81-2.97-7.44-6.75-10.18-14.37-10.2-15.13-.03-30.25.08-45.38-.05-7.56-.06-14.84.9-21.74,4.17-8,3.79-14.94,8.77-20.23,16.09-4.45,6.17-6.95,13.09-9.14,20.21-1,3.25-2.35,4.81-6.17,3.21-2.75-1.15-5.98-1.58-9-1.58-49.36-.13-98.73-.16-148.1-.17-29.75,0-59.51-.22-89.26.24-11.2.17-20.38,5.35-25.53,15.87-4.74,9.7-2.52,19.14,1.31,28.68,8.89,22.18,17.68,44.41,25.97,66.83,5.19,14.06,12.09,26.35,25.74,33.89,2.13,1.18,3.81,2.98,6.48,2.74.47.87.74,1.97,1.43,2.57,7.89,6.87,17.4,10.11,27.56,10.18,41.17.28,82.35.11,123.52.13,2.23,0,4.77-.73,6.25,1.89-4.15,4.82-9.56,5.22-15.51,5.2-47.47-.16-94.95-.1-142.42-.08-8.02,0-14.68,5.63-14.98,12.5-.31,7.25,4.8,12.57,13.14,13.66.44,3.05,2.93,5.02,4.06,7.7-1.68,5.07-4.13,10-4.18,15.43-.13,15.89,8.73,29.23,24.08,35.82.51.84.82,2.02,1.56,2.47,8.34,5.05,16.68,9.46,27.19,7.39,16.55-3.26,29.34-18.51,29.03-34.44-.14-7.31-2.79-13.51-6.61-19.39-1.9-2.94-2.94-4.79,2.05-5.44,12.42-1.6,24.84-.44,37.26-.63.39,0,.79.52,1.18.79Z"/>
      <path d="m327.58,482.08c-12.83-5.33-20.58-14.72-23.9-28.32-1.82-7.47,1.31-14,2.15-20.95,1.84-.46,7.02-6.94,6.89-8.46-.19-2.31-1.93-1.4-2.99-1.4-17.47-.06-34.93-.06-52.4,0-.95,0-2.9-.81-2.74.72.14,1.33-1.18,2.3.45,4.42,5.67,7.36,7.3,16.44,5.77,25.54-1.06,6.35-3.62,12.16-8.69,17.02-5.98,5.74-12.42,9.58-20.55,11.39-5.96,1.33-11.63.14-17.43.01-15.35-6.59-24.22-19.93-24.08-35.82.05-5.43,2.49-10.36,4.18-15.43,2.21-2.05,3.51-4.64,5.01-7.7h-9.07c-8.34-1.09-13.45-6.41-13.14-13.66.3-6.87,6.96-12.5,14.98-12.5,47.47-.02,94.95-.08,142.42.08,5.95.02,11.37-.37,15.51-5.2,5.81-.1,8.92-3.13,8.76-8.29-.05-1.78-.34-2.42-2.38-2.71-6.56-.93-13.13-.84-19.71-.84-32.69,0-65.38.11-98.07-.05-15.83-.07-31.78,1.5-47.36-2.89-2.67.24-4.35-1.57-6.48-2.74-13.65-7.53-20.55-19.83-25.74-33.89-8.28-22.41-17.07-44.65-25.97-66.83-3.83-9.54-6.05-18.98-1.31-28.68,5.14-10.52,14.32-15.7,25.53-15.87,29.75-.46,59.5-.24,89.26-.24,49.37,0,98.73.04,148.1.17,3.02,0,6.25.43,9,1.58,3.82,1.6,5.17.05,6.17-3.21,2.19-7.11,4.69-14.04,9.14-20.21,5.29-7.32,12.23-12.3,20.23-16.09,6.9-3.27,14.18-4.23,21.74-4.17,15.12.13,30.25.01,45.38.05,7.61.02,11.4,2.75,14.37,10.2-.66,4.85-1.16,9.55-5.9,12.8-1.87,1.28-4.24.32-5.56,2.23-18.44-.06-36.88-.13-55.33-.16-.39,0-.77.44-1.16.68-5.6,2.32-10.87,4.87-14.12,10.55-5.82,10.18-8.17,21.61-11.76,32.54-7.01,21.37-14.19,42.69-20.73,64.23-6.34,20.89-13.8,41.44-21.02,62.05-1.99,5.67-2.45,11.88-6.28,16.96-4.78,6.32-9.78,12.27-17.02,15.95-1.49.76-2.6,3.38-1.71,3.95,3.77,2.45,5.29,7.23,9.62,8.94-.39,2.02,1.78,2.64,2.27,4.19-.01,1.32-.41,2.78.02,3.94,3.88,10.69,2.76,20.9-3.17,30.45-3.89,6.27-9.27,11.01-16.38,13.53-8.08,2.87-16.33,3.68-24.78,2.11Zm23.93-37.4c-.1-4.55-2.76-7.03-6.68-8.79-3.82-1.72-8.54-2.15-11.41-.53-4.44,2.51-8.3,6.74-7.68,13.09.41,4.11,4.74,10.89,8.5,12.23.87.31,1.96.46,2.5-.76,10.56-.17,15.44-5.21,14.76-15.24Zm-113.49.2c1.25-.93-.08-1.75-.31-2.37-3.27-8.67-16.27-10.77-22.17-3.64-2.97,3.58-3.09,15.42.69,18.05,2.16,1.51,4.45,6.11,8.55,2.72,6.6.46,9.95-1.46,12.4-6.47,1.35-2.77.3-5.56.85-8.29Zm141.41-122.83c.53-1.67.97-3.39,1.62-5.02,1.47-3.66.8-5.22-3.61-5.16-14.93.21-29.87.14-44.81.03-2.98-.02-4.18.97-4.92,3.96-2.58,10.41-5.65,20.7-8.32,31.09-.67,2.6-2.78,5.33-.37,8.14,1.33,1.54,3.11.74,4.62.69,9.51-.33,18.98-1.37,28.54-1.05,8.21.28,17.68-6.92,20.58-14.64,2.26-6,3.27-12.47,6.67-18.05Zm17.25-56.15c3.31-2.36,3.3-5.95,2.8-9.26-.49-3.23-4.13-2.43-5.93-2.47-15.46-.33-30.92-.18-46.39-.22-1.46,0-2.9.25-3.27,1.66-3.19,12.12-6.25,24.27-9.35,36.42-1.57,5.82-1.57,5.78,4.01,5.85,8.21.1,16.29-1.8,24.55-1.3,6.77.41,13.57.05,20.36.16,2.49.04,3.67-.66,4.45-3.34,2.69-9.24,5.81-18.34,8.77-27.5Zm-203.55,84.22c2.13.95,4.3,1.82,6.37,2.88,1.73.89,3.27,1.95,5.41,1.92,10.1-.14,20.21-.22,30.31-.13,3.4.03,4.13-.63,3.06-4.25-2.76-9.42-4.89-19.02-7.27-28.55-.63-8.92-1.8-10.05-10.4-10.05-13.46,0-26.92-.01-40.39,0-4.59,0-5.12.86-3.44,5.16.47,1.19.77,2.46,1.33,3.6,4.81,9.9,6,21.65,15.02,29.4Zm70.01,4.7c11.46-.06,22.93-.19,34.39-.12,3.03.02,4.72-.54,5.43-3.99,1.24-5.99,3.09-11.87,4.87-17.74,1.11-3.66,1.26-7.68,3.75-10.87.61-2.15,1.16-4.32,1.86-6.44.91-2.76.21-3.79-2.88-3.77-21.22.11-42.44.12-63.65,0-2.96-.02-3.45,1.1-2.74,3.49,3.46,11.65,5.82,23.59,9.66,35.14,1.98,5.97,3.2,6.74,9.32,4.3Zm-87.22-58.23c14.74.04,29.48.05,44.23.13,2.2.01,3.84.19,2.89-3.07-2.81-9.57-5.33-19.22-7.97-28.84,1.59-6.92-1.22-10.83-7.77-10.83-13.95,0-27.89,0-41.84,0-11.75,0-11.54-.06-8.41,11.12,2.8,10.02,7.48,19.3,10.88,29.07,1.47,4.22,4.29,5.05,7.99,2.42Zm71.13.26c2.15-.07,4.3-.21,6.45-.21,20.05-.01,40.11.02,60.16-.05,1.51,0,3.38,1.04,4.26-1.87,2.96-9.86,5.9-19.72,7.94-29.83,3.65-.28,1.91-3.62,2.65-5.34,2.34-5.43,1.99-5.58-3.74-5.58-29.72,0-59.43,0-89.15.01-2.47,0-5.65-.7-7.23.54-1.74,1.36,1.37,3.55,1.62,5.64,1.37,11.37,5.73,22,8.13,33.13,1.13,5.25,3.22,5.81,8.91,3.56Z"/>
      <path class="cls-1" d="m509.13,212.15c1.33-1.91,3.7-.95,5.56-2.23,4.74-3.26,5.24-7.95,5.9-12.8,1.12.94,2.17,1.98,3.36,2.81,6.22,4.37,7.76,7.8,6.06,13.72-1.28,4.48-6.75,8.16-12.82,8.2-14.12.11-28.25-.02-42.37.06-5.72.03-11.41-.48-16.88,2.59-5.34,3-9.36,6.91-11.26,12.58-5.95,17.78-11.72,35.63-17.43,53.49-5.67,17.72-10.68,35.67-16.93,53.19-6.54,18.32-11.86,37.04-18.66,55.25-4.27,11.43-10.74,21.16-22.67,25.96-1.51.61-1.15,1.81-1.36,2.88-4.34-1.71-5.85-6.49-9.62-8.94-.89-.58.22-3.19,1.71-3.95,7.24-3.68,12.24-9.63,17.02-15.95,3.84-5.08,4.29-11.28,6.28-16.96,7.22-20.61,14.68-41.17,21.02-62.05,6.53-21.54,13.71-42.86,20.73-64.23,3.59-10.93,5.94-22.36,11.76-32.54,3.25-5.68,8.52-8.24,14.12-10.55,18.07.06,36.14.12,54.21.14.76,0,1.52-.43,2.28-.66Z"/>
      <path class="cls-1" d="m191.19,377.05c15.58,4.39,31.53,2.81,47.36,2.89,32.69.15,65.38.04,98.07.05,6.58,0,13.15-.09,19.71.84,2.04.29,2.33.93,2.38,2.71.16,5.16-2.95,8.19-8.76,8.29-1.48-2.62-4.03-1.88-6.25-1.89-41.17-.03-82.35.14-123.52-.13-10.16-.07-19.67-3.31-27.56-10.18-.7-.61-.96-1.7-1.43-2.57Z"/>
      <path class="cls-1" d="m214.15,482.06c5.8.13,11.47,1.31,17.43-.01,8.13-1.81,14.56-5.65,20.55-11.39,5.06-4.86,7.62-10.67,8.69-17.02,1.52-9.11-.11-18.18-5.77-25.54-1.63-2.12-.31-3.09-.45-4.42-.16-1.53,1.79-.72,2.74-.72,17.47-.06,34.93-.06,52.4,0,1.07,0,2.81-.91,2.99,1.4.12,1.52-5.05,8-6.89,8.46-.39-.28-.79-.8-1.18-.79-12.42.19-24.84-.97-37.26.63-4.99.64-3.95,2.5-2.05,5.44,3.81,5.89,6.46,12.08,6.61,19.39.31,15.92-12.48,31.18-29.03,34.44-10.51,2.07-18.85-2.34-27.19-7.39-.75-.45-1.05-1.63-1.56-2.47Z"/>
      <path class="cls-1" d="m327.58,482.08c8.45,1.57,16.7.76,24.78-2.11,7.11-2.52,12.49-7.27,16.38-13.53,5.93-9.55,7.05-19.76,3.17-30.45-.42-1.16-.03-2.62-.02-3.94,8.58,3.95,11.04,12.32,12.53,20.16,3.86,20.39-12.09,39.06-32.66,40.26-8.82.51-18.47-1.47-24.18-10.39Z"/>
      <path class="cls-1" d="m190.19,423.1h9.07c-1.5,3.06-2.8,5.66-5.01,7.7-1.13-2.69-3.62-4.65-4.06-7.7Z"/>
      <path class="cls-2" d="m325.86,264.89c-2.04,10.11-4.98,19.96-7.94,29.83-.88,2.91-2.75,1.86-4.26,1.87-20.05.08-40.11.04-60.16.05-2.15,0-4.3.14-6.45.21-2.2-8.95-4.39-17.91-6.6-26.86-1.39-5.61-1.02-6.14,4.54-6.14,25.25,0,50.51-.01,75.76.04,1.72,0,3.7-.75,5.12,1Z"/>
      <path class="cls-2" d="m215.06,264.81c2.64,9.62,5.16,19.27,7.97,28.84.96,3.26-.69,3.08-2.89,3.07-14.74-.07-29.48-.09-44.23-.13-3.38-8.73-6.76-17.46-10.15-26.18-2.19-5.65-1.72-6.48,4.42-6.51,13.75-.08,27.49-.05,41.24-.03,1.26,0,2.7-.44,3.63.94Z"/>
      <path class="cls-2" d="m311.58,322.1c-2.49,3.19-2.64,7.2-3.75,10.87-1.78,5.87-3.63,11.75-4.87,17.74-.72,3.45-2.4,4.01-5.43,3.99-11.46-.08-22.93.06-34.39.12-2.54-9.37-5.3-18.68-7.66-28.11-1.23-4.89.7-4.91,4.25-4.89,13.93.08,27.86-.05,41.79.07,3.35.03,6.77-2.19,10.06.21Z"/>
      <path class="cls-2" d="m231,322c2.38,9.53,4.51,19.13,7.27,28.55,1.06,3.62.34,4.28-3.06,4.25-10.1-.08-20.21,0-30.31.13-2.13.03-3.68-1.03-5.41-1.92-2.07-1.07-4.24-1.93-6.37-2.89,3.2-1.31,2.11-3.96,1.38-5.91-1.96-5.21-4.22-10.31-6.6-15.35-2.3-4.86-1.14-7.03,4.19-7.01,12.97.03,25.94.1,38.91.15Z"/>
      <path class="cls-2" d="m396.67,265.89c-2.96,9.16-6.08,18.27-8.77,27.5-.78,2.68-1.96,3.38-4.45,3.34-6.79-.11-13.6.25-20.36-.16-8.26-.5-16.34,1.4-24.55,1.3-5.58-.07-5.58-.03-4.01-5.85.64,1.74-1.07,5.23,2.51,4.75,3.42-.46,7.94,2.9,10.19-2.8,3.29-8.33,4.79-17.14,7.17-25.71.93-3.35,2.32-4.32,5.28-4.44,11.4-.46,22.84.98,34.22-.77,1.87-.29,2.54,1.2,2.76,2.84Z"/>
      <path class="cls-1" d="m325.86,264.89c-1.43-1.75-3.4-.99-5.12-1-25.25-.05-50.51-.05-75.76-.04-5.56,0-5.92.53-4.54,6.14,2.21,8.95,4.4,17.91,6.6,26.86-5.69,2.25-7.78,1.69-8.91-3.56-2.4-11.13-6.76-21.76-8.13-33.13-.25-2.08-3.35-4.28-1.62-5.64,1.58-1.24,4.76-.54,7.23-.54,29.72-.02,59.43-.01,89.15-.01,5.73,0,6.08.15,3.74,5.58-.74,1.72,1,5.06-2.65,5.34Z"/>
      <path class="cls-2" d="m379.42,322.04c-3.4,5.58-4.41,12.04-6.67,18.05-2.9,7.72-12.37,14.91-20.58,14.64-9.55-.32-19.02.73-28.54,1.05-1.51.05-3.28.85-4.62-.69,2.98-.06,5.97-.2,8.95-.14,2.23.04,3.27-.34,3.87-3.06,1.98-8.97,4.55-17.8,6.95-26.68.48-1.8,1.15-3.43,3.57-3.41,12.36.12,24.71.17,37.07.24Z"/>
      <path class="cls-1" d="m396.67,265.89c-.22-1.64-.89-3.12-2.76-2.84-11.38,1.75-22.82.31-34.22.77-2.97.12-4.35,1.09-5.28,4.44-2.38,8.57-3.88,17.38-7.17,25.71-2.25,5.7-6.77,2.34-10.19,2.8-3.58.48-1.87-3.02-2.51-4.75,3.1-12.14,6.17-24.29,9.35-36.41.37-1.41,1.81-1.67,3.27-1.66,15.46.04,30.93-.11,46.39.22,1.8.04,5.44-.77,5.93,2.47.51,3.31.51,6.91-2.8,9.26Z"/>
      <path class="cls-1" d="m379.42,322.04c-12.36-.07-24.72-.12-37.07-.24-2.42-.02-3.08,1.61-3.57,3.41-2.39,8.87-4.97,17.71-6.95,26.68-.6,2.72-1.64,3.11-3.87,3.06-2.98-.06-5.97.08-8.95.14-2.41-2.81-.3-5.54.37-8.14,2.66-10.39,5.74-20.68,8.32-31.09.74-3,1.94-3.99,4.92-3.96,14.94.11,29.87.19,44.81-.03,4.41-.06,5.09,1.5,3.61,5.16-.65,1.63-1.09,3.34-1.62,5.02Z"/>
      <path class="cls-1" d="m311.58,322.1c-3.29-2.4-6.71-.18-10.06-.21-13.93-.12-27.86.01-41.79-.07-3.56-.02-5.48,0-4.25,4.89,2.36,9.43,5.12,18.74,7.66,28.11-6.11,2.44-7.34,1.67-9.32-4.3-3.83-11.55-6.2-23.49-9.66-35.14-.71-2.39-.22-3.5,2.74-3.49,21.22.12,42.44.11,63.65,0,3.09-.02,3.79,1.01,2.88,3.77-.7,2.12-1.24,4.29-1.86,6.44Z"/>
      <path class="cls-1" d="m215.06,264.81c-.93-1.39-2.38-.94-3.63-.94-13.75-.02-27.49-.05-41.24.03-6.14.04-6.62.86-4.42,6.51,3.39,8.73,6.77,17.46,10.15,26.18-3.7,2.63-6.52,1.79-7.99-2.42-3.41-9.77-8.09-19.05-10.88-29.07-3.12-11.18-3.34-11.12,8.41-11.12,13.95,0,27.89,0,41.84,0,6.55,0,9.36,3.91,7.77,10.83Z"/>
      <path class="cls-1" d="m231,322c-12.97-.05-25.94-.12-38.91-.15-5.33-.01-6.5,2.15-4.19,7.01,2.38,5.03,4.64,10.14,6.6,15.35.73,1.94,1.83,4.6-1.38,5.91-9.01-7.74-10.2-19.49-15.01-29.39-.56-1.15-.86-2.41-1.33-3.6-1.69-4.3-1.15-5.15,3.44-5.16,13.46-.02,26.92,0,40.39,0,8.6,0,9.78,1.13,10.4,10.05Z"/>
      <path class="cls-1" d="m224.77,459.63c-4.1,3.39-6.39-1.21-8.55-2.72-3.77-2.63-3.65-14.47-.69-18.05,5.9-7.12,18.9-5.03,22.17,3.64.23.62,1.57,1.44.31,2.37-8.15-1.86-15.63,6.48-13.25,14.75Z"/>
      <path class="cls-1" d="m336.74,459.91c-.54,1.22-1.63,1.07-2.5.76-3.77-1.34-8.09-8.12-8.5-12.23-.63-6.35,3.23-10.58,7.68-13.09,2.87-1.62,7.58-1.18,11.41.53,3.91,1.76,6.58,4.24,6.68,8.79-4.27-2.21-7.97-.25-10.85,2.39-3.61,3.3-5.42,7.71-3.91,12.85Z"/>
      <path class="cls-2" d="m336.74,459.91c-1.51-5.14.3-9.54,3.91-12.85,2.88-2.64,6.58-4.6,10.85-2.39.68,10.03-4.2,15.06-14.76,15.24Z"/>
      <path class="cls-2" d="m224.77,459.63c-2.38-8.27,5.1-16.61,13.25-14.75-.55,2.72.5,5.52-.85,8.29-2.45,5.01-5.79,6.93-12.4,6.47Z"/>
      <path class="cls-2" d="m509.13,212.15c-.76.23-1.52.66-2.28.66-18.07-.02-36.14-.08-54.21-.14.39-.24.77-.69,1.16-.69,18.44.03,36.88.1,55.33.16Z"/>
    </g>
  </g>
</svg>