<?xml version="1.0" encoding="UTF-8"?>
<svg id="_Слой_2" data-name="Слой 2" xmlns="http://www.w3.org/2000/svg" viewBox="0 0 511.24 510.11">
  <defs>
    <style>
      .cls-1 {
        fill: #fff;
      }

      .cls-2 {
        fill: #e600d7;
      }

      .cls-3 {
        fill: #be3cc6;
      }

      .cls-4 {
        fill: #603fe6;
      }

      .cls-5 {
        fill: #bfa295;
      }
    </style>
  </defs>
  <g id="_Слой_1-2" data-name="Слой 1">
    <g>
      <path class="cls-2" d="m0,275.52v-34.94c1.55-6.57,1.42-13.31,2.07-19.98.59-3.34,1.18-6.69,1.77-10.03,2.65-10.27,4.41-20.76,7.91-30.81,1.36-4.37,2.72-8.75,4.07-13.12,4.71-10.61,9.42-21.23,14.13-31.84.63-.52,1.48-.91,1.84-1.57,2.84-5.23,5.78-10.38,8.95-15.44,2.71-4.34,6.78-7.85,8.29-12.94,1.36-1.04,3.09-1.81,2.83-3.99,3.95-2.91,6.56-6.94,9.15-10.98,2.61-1.77,4.64-4.05,5.94-6.94,2.09-1.27,3.47-3.25,5.02-5.05.35-.32.7-.64,1.05-.95l-.02.06c2.64-2.67,5.28-5.35,7.92-8.02,2.79-2.92,6.91-4.37,8.98-8.09,2.02-1.61,4.7-2.39,6-4.89,5.66-2.79,9.79-7.68,15.06-11,.32-.32.64-.64.96-.96,5-3.01,10.63-4.97,15.01-9.01,2.63-.77,5.16-1.72,6.92-3.99,1-.7,2-1.39,3-2.09,6.98-2.24,13.54-5.41,19.96-8.91,3.43-.46,6.12-2.5,8.95-4.22,2.55.25,5.08.4,7.03-1.77,4.67-1.32,9.33-2.65,14-3.97,4.48-1.74,9.15-2.7,13.91-3.24,1.56-.14,2.56-2.92,4.56-.97,2.1-3.06,6.62,1.15,8.43-2.79,3.47,2.59,6.99-.26,10.31-.5,4.66-.33,9.32-1.04,14.07-.86.52.02,1.08-1.11,1.62-1.7C250.33,0,260.98,0,271.63,0c6.65.93,13.29,1.86,19.94,2.79,4.81-.24,9.29,1.85,14.05,2,4.88,1.53,9.84,2.64,14.91,3.29,4.72,2.58,10.21,2.63,15.1,4.63,10.61,3.27,20.55,8.25,30.86,12.29,9.3,5.35,18.6,10.7,27.9,16.04,2.28,2.47,5.29,3.91,8.04,5.72,3.4,1.5,5.16,5.34,8.95,6.28,3.28,4.31,8.2,6.65,12.15,10.16,9.04,8.04,17.34,16.84,25.26,25.92,1.53,1.75,4.34.55,4.76,3.25.78,5,4.87,7.84,7.69,11.5,2.7,3.99,5.4,7.99,8.09,11.98,1.02,1.3,1.18,3.21,2.9,4,2.81,5.12,5.24,10.47,9.12,14.94.04,3.33,2.45,5.5,3.94,8.12,1.32,2.98,2.64,5.95,3.96,8.93,2,4.67,4.01,9.34,6.01,14.01.63,3.89,1.66,7.63,4.06,10.87-.06,1.74-.23,3.5,1.15,4.9.71,4.51,2.03,8.85,3.74,13.07.2,5.48,2.17,10.59,3.25,15.89-.88,3.48,1.25,6.65,1,10.06-.11.33-.22.65-.33.98-1.6.12-2.81-.51-3.96-1.66-7.2-7.26-14.47-14.44-21.7-21.67-35.98-35.96-71.96-71.94-107.96-107.88-1.49-1.48-2.66-3.52-5.13-3.67.07-.29.02-.56-.16-.8-.77-1.63-2.27-1-3.46-1.01-8.04-.06-16.08-.06-24.12,0-1,0-2.37-.66-2.91.94-.1,13.06-11.26,20.06-19.98,20.03-12.56-.04-20.45-7.3-21.37-20.03-6.87-1.59-13.74-1.58-20.6,0-.71,2.52-1.2,5.13-2.16,7.55-4.04,10.19-18.34,16.17-27.63,10.96-6.97-3.91-11.28-10.34-12.48-18.51-6.88-1.58-13.76-1.58-20.65,0-1.02,15.61-19.17,25.14-30.81,17.08-6.19-4.28-10.06-9.73-11.24-17.12-.87-1.53-2.36-.88-3.56-.89-7.61-.06-15.21-.07-22.82.01-1.15.01-2.7-.82-3.44.93-.05,1.33-.14,2.66-.14,3.98,0,121.4,0,242.8,0,364.2,9.78,11.01,19.62,21.97,29.31,33.06,3.34,3.82,7.26,7.2,9.56,11.86-3.63.26-6.61-1.88-9.95-2.69-10.18-2.79-19.57-7.47-29.04-11.98-7.18-3.83-14.37-7.62-21.21-12.08-2.77-1.81-5.26-4.23-8.6-5.13-1.06-1.39-1.91-3.05-4.02-3.03-3.93-3.06-7.41-6.72-11.99-8.9-1.6-2.88-4.88-3.8-7.03-6.03-1.72-2.67-4.06-4.62-6.9-6-1.36-1.33-2.72-2.65-4.08-3.98-.33-.38-.65-.76-.98-1.14-1.28-1.28-2.55-2.55-3.83-3.83-2.38-2.68-4.77-5.35-7.15-8.03-2.32-2.67-4.64-5.34-6.96-8.01-2.67-3.32-5.35-6.64-8.02-9.96-.99-1.34-1.97-2.67-2.96-4.01-8.49-11.3-14.84-23.9-22.01-36-1.32-2.97-2.64-5.95-3.96-8.92-.11-.81-.01-1.71-1.04-2.06-1.79-3.93-2.37-8.39-5.19-11.87-.72-5.6-3.01-10.69-5-15.89-.97-4.1-1.79-8.25-3.75-12.05-.47-2.29.71-4.87-1.24-6.89-.82-2.66-.29-5.66-2-8.11.77-2.88-.54-5.59-.98-8.3-1.01-6.19-.62-12.6-2.86-18.6Z"/>
      <path class="cls-3" d="m369.4,86.75c2.47.15,3.64,2.18,5.13,3.67,36,35.94,71.98,71.92,107.96,107.88,7.23,7.23,14.5,14.41,21.7,21.67,1.14,1.15,2.36,1.78,3.96,1.66,2.3,5.77,2.01,11.91,2.51,17.94.21,4.94.63,9.88.58,14.81-.08,7.39-.49,14.78-.76,22.17-.76,7.28-1.52,14.55-2.28,21.83-1.21,5.38-2.42,10.76-3.63,16.15-2.36,10.86-6.55,21.17-9.4,31.88-2.73,3.97-3.68,8.71-5.65,13-1.6,3.37-3.11,6.8-4.84,10.11-3.45,6.63-7.03,13.19-10.55,19.78-1.59,1.74-3.35,3.36-3.79,5.85-2.71,2.59-4.54,5.78-6.18,9.11-5.6,5.55-9.07,12.86-14.89,18.21-6.18,5.69-11.02,12.59-17.41,18.19-6.52,5.72-13.33,11.17-19.44,17.37-3.1,1.55-5.92,3.47-8.18,6.12-3.3,1.43-6.36,3.22-8.79,5.94-5,3.01-10,6.01-15,9.02-6.74,2.14-12.2,6.91-18.86,9.2-3.25,1.79-7.1,2.3-10.07,4.69-1.43.04-2.81.25-3.91,1.3-2.34.97-5,1.08-7.07,2.73-7.3,2.08-14.59,4.17-21.89,6.25-3.03.67-6.05,1.33-9.08,2-1.08.28-2.15.63-3.24.83-7.23,1.35-14.46,2.67-21.7,3.99h-58.92c-2.42-2.35-5.55-.71-8.35-1.44-6.41-1.66-13.05-2.45-19.6-3.59-3.79-1.74-7.77-2.76-11.93-3.08-1.69-1.01-3.38-2.01-5.06-3.02-2.3-4.66-6.22-8.04-9.56-11.86-9.69-11.09-19.53-22.05-29.31-33.06,7.65.04,15.34-.36,22.94.29,5.3.45,7.27-1.59,8.68-6.29,2.54-8.44,9.7-13.78,18.72-13.71,7.94.06,16.89,3.41,19.11,11.88,2.2,8.41,6.86,8.72,13.33,7.99.99-.11,2.02-.16,2.99,0,4.68.82,6.87-.67,8.27-5.7,2.53-9.05,10.94-14.95,20.06-14.12,9.69.88,17.63,5,19.62,17.03.41,2.48,1.83,2.79,3.84,2.78,4.82-.04,9.65-.13,14.47.04,2.59.09,3.32-.53,3.88-3.38,1.96-10.07,9.79-16.3,20.1-16.48,10.12-.17,18.65,6.39,20.52,16.61.46,2.52.95,3.3,3.48,3.25,8.15-.14,16.3-.17,24.45,0,2.73.06,2.62-1.04,2.61-3.21-.09-35.5-.09-71.01-.04-106.51.09-69.48.27-138.96.3-208.44,0-16.45-.64-32.91.2-49.36Z"/>
      <path class="cls-1" d="m369.4,86.75c-.84,16.45-.19,32.9-.2,49.36-.02,69.48-.21,138.96-.3,208.44-.05,35.5-.05,71.01.04,106.51,0,2.17.11,3.27-2.61,3.21-8.15-.18-16.3-.15-24.45,0-2.54.05-3.02-.73-3.48-3.25-1.87-10.22-10.4-16.78-20.52-16.61-10.31.18-18.15,6.41-20.1,16.48-.55,2.85-1.28,3.47-3.88,3.38-4.82-.17-9.65-.07-14.47-.04-2.01.02-3.43-.3-3.84-2.78-1.99-12.03-9.94-16.14-19.62-17.03-9.12-.83-17.53,5.07-20.06,14.12-1.4,5.03-3.6,6.51-8.27,5.7-.97-.17-2-.12-2.99,0-6.48.73-11.13.42-13.33-7.99-2.22-8.46-11.17-11.82-19.11-11.88-9.02-.06-16.18,5.27-18.72,13.71-1.41,4.7-3.38,6.74-8.68,6.29-7.6-.65-15.29-.24-22.94-.29,0-121.4,0-242.8,0-364.2,0-1.33.09-2.66.14-3.98,9.94-.02,19.88-.03,29.82-.05,1.17,7.4,5.05,12.84,11.24,17.12,11.63,8.05,29.79-1.48,30.81-17.08,6.88,0,13.76,0,20.65,0,1.2,8.17,5.51,14.6,12.48,18.51,9.29,5.21,23.59-.77,27.63-10.96.96-2.42,1.45-5.03,2.16-7.55,6.87,0,13.74,0,20.6,0,.92,12.73,8.81,19.99,21.37,20.03,8.72.03,19.88-6.96,19.98-20.03,10.17.02,20.33.04,30.5.06.18.24.23.51.16.8Zm-113.1,185.78c24.94,0,49.87,0,74.81,0,3.58,0,8.32,1.36,10.45-.41,2.69-2.23.47-7.2,1.01-10.93.69-4.68-1.26-5.74-5.75-5.73-52.03.15-104.07.1-156.1.1-12.03,0-11.83,0-12.05,11.86-.08,4.25,1.28,5.22,5.34,5.2,27.43-.17,54.86-.09,82.29-.09Zm-.69-73.87h-75.33c-11.54,0-11.26,0-11.64,11.3-.17,5.09,1.67,5.88,6.24,5.87,51.88-.16,103.76-.1,155.65-.1,12.07,0,11.9,0,12.1-11.84.07-4.07-.97-5.36-5.21-5.33-27.27.19-54.54.1-81.81.1Zm.13-50.91h-75.3c-11.72,0-11.48,0-11.79,11.63-.12,4.57,1.38,5.44,5.63,5.43,52.03-.14,104.06-.09,156.09-.09,12.29,0,12.1,0,12.27-12.13.06-4.11-1.34-4.93-5.12-4.91-27.26.14-54.52.08-81.78.08Zm56.81,221.61h17.44c12.84,0,12.7,0,12.64-12.72-.02-3.59-1.25-4.45-4.61-4.41-13.95.15-27.9.06-41.84.06-13.07,0-12.96,0-12.63,13.26.08,3.16,1.2,3.92,4.11,3.87,8.3-.15,16.6-.05,24.91-.05Z"/>
      <path class="cls-4" d="m369.24,85.95c-10.17-.02-20.33-.04-30.5-.06.55-1.6,1.92-.93,2.91-.94,8.04-.06,16.08-.06,24.12,0,1.19,0,2.69-.62,3.46,1.01Z"/>
      <path class="cls-4" d="m171.83,85.84c-9.94.02-19.88.03-29.82.05.74-1.75,2.29-.91,3.44-.93,7.61-.09,15.21-.08,22.82-.01,1.21,0,2.69-.64,3.56.89Z"/>
      <path class="cls-4" d="m234.52,85.88c-6.88,0-13.76,0-20.65,0,6.88-1.58,13.76-1.58,20.65,0Z"/>
      <path class="cls-4" d="m297.39,85.89c-6.87,0-13.74,0-20.6,0,6.87-1.57,13.74-1.59,20.6,0Z"/>
      <path class="cls-5" d="m256.3,272.52c-27.43,0-54.86-.08-82.29.09-4.06.03-5.42-.95-5.34-5.2.22-11.86.02-11.86,12.05-11.86,52.03,0,104.07.06,156.1-.1,4.49-.01,6.44,1.05,5.75,5.73-.55,3.73,1.68,8.7-1.01,10.93-2.13,1.77-6.87.41-10.45.41-24.94,0-49.87,0-74.81,0Z"/>
      <path class="cls-5" d="m255.61,198.65c27.27,0,54.54.09,81.81-.1,4.24-.03,5.28,1.26,5.21,5.33-.2,11.84-.03,11.84-12.1,11.84-51.88,0-103.76-.06-155.65.1-4.57.01-6.41-.78-6.24-5.87.38-11.29.1-11.3,11.64-11.3,25.11,0,50.22,0,75.33,0Z"/>
      <path class="cls-5" d="m255.74,147.74c27.26,0,54.52.07,81.78-.08,3.78-.02,5.18.8,5.12,4.91-.17,12.13.02,12.13-12.27,12.13-52.03,0-104.06-.05-156.09.09-4.25.01-5.75-.86-5.63-5.43.31-11.63.07-11.63,11.79-11.63,25.1,0,50.2,0,75.3,0Z"/>
      <path class="cls-5" d="m312.55,369.35c-8.3,0-16.61-.09-24.91.05-2.91.05-4.03-.71-4.11-3.87-.33-13.26-.44-13.26,12.63-13.26,13.95,0,27.9.09,41.84-.06,3.36-.04,4.59.83,4.61,4.41.06,12.73.2,12.72-12.64,12.72-5.81,0-11.62,0-17.44,0Z"/>
    </g>
  </g>
</svg>